<?xml version="1.0" standalone="no" ?>
<!DOCTYPE svg PUBLIC "-//W3C//DTD SVG 1.1//EN" "http://www.w3.org/Graphics/SVG/1.1/DTD/svg11.dtd">
<svg width="210px" height="297px" viewBox="0 0 210.000000 297.000000" xmlns="http://www.w3.org/2000/svg" version="1.1" >
	<path d="M52.88825035468461522,120.9847790149175921 56.22112433973877899,121.013761764082119 56.71983476687971404,120.7300177667520984 58.1997066732327113,118.1912684135400013 96.85052234541473126,136.4722254013429392 96.7977293508376988,139.0625281637625221 98.39758578115720411,139.0839618373953499 98.41497742532592952,136.3727826284454068 107.2119859677417821,134.5387057422524322 117.0110396263748385,133.2346711485020023 117.0787223865070814,133.2220623615326076 128.1988680577317155,130.4555152592011495 128.2561523543401449,130.4381707732787277 135.9500097662848361,127.6604208118608028 136.2789761467790868,127.3536565517411816 137.5703165534776531,124.4297742121883914 139.2813388627432118,121.8635374042323463 142.3115357472145206,121.8378530603550587 142.3018504502741735,120.6950369579121514 138.96897010586747,120.7232789458631999 138.4983735991149274,120.977685088256834 136.5919941704908069,123.8367473025028573 136.5447177688178044,123.922875751952148 135.3321036786953186,126.6678416027350522 127.8951424768879974,129.3468713804357435 116.8284802220030372,132.0544709935429637 107.0198556061244233,133.2435442719672096 106.9769470522612096,133.2504544009612459 98.05090749487814605,134.8766182221172016 98.06987138243087543,134.8365235092027206 59.07197561599242874,116.3914055285700613 60.09918444203729848,113.7859653696588964 60.10004155911387613,113.3621597812622781 58.84750779171561419,109.9489236451691738 58.80852968671526071,109.8659057207800913 57.04300973138414577,106.3926856378353989 56.35182904327716358,105.9833620019903435 53.01895505822299981,105.9543792528258166 53.00504194731293239,107.554318759602495 55.89534216995427585,107.5794528771054956 57.6673075777846833,110.469507847001978 58.92269320208426109,113.5778222167140541 57.66840931883919552,116.8299810338428131 55.89926286617431117,119.868062495336801 52.89818829104893894,119.8419650815056912 52.88825035468461522,120.9847790149175921 z " fill-rule="nonzero" fill="none" stroke-width="0.166667" stroke="rgb(0,0,0)" stroke-linecap="round"  stroke-linejoin="round" />
</svg>
