<?xml version="1.0" encoding="UTF-8" standalone="no"?>
<svg
   xmlns:dc="http://purl.org/dc/elements/1.1/"
   xmlns:cc="http://creativecommons.org/ns#"
   xmlns:rdf="http://www.w3.org/1999/02/22-rdf-syntax-ns#"
   xmlns:svg="http://www.w3.org/2000/svg"
   xmlns="http://www.w3.org/2000/svg"
   xmlns:sodipodi="http://sodipodi.sourceforge.net/DTD/sodipodi-0.dtd"
   xmlns:inkscape="http://www.inkscape.org/namespaces/inkscape"
   id="svg23"
   version="1.2"
   viewBox="0 0 1200 1200"
   height="1200pt"
   width="1200pt"
   sodipodi:docname="591_tree.svg"
   inkscape:version="0.92.3 (2405546, 2018-03-11)">
  <sodipodi:namedview
     pagecolor="#ffffff"
     bordercolor="#666666"
     borderopacity="1"
     objecttolerance="10"
     gridtolerance="10"
     guidetolerance="10"
     inkscape:pageopacity="0"
     inkscape:pageshadow="2"
     inkscape:window-width="1920"
     inkscape:window-height="1025"
     id="namedview4669"
     showgrid="false"
     inkscape:zoom="2.0350391"
     inkscape:cx="624.16696"
     inkscape:cy="1214.8992"
     inkscape:window-x="0"
     inkscape:window-y="27"
     inkscape:window-maximized="1"
     inkscape:current-layer="svg23" />
  <metadata
     id="metadata29">
    <rdf:RDF>
      <cc:Work
         rdf:about="">
        <dc:format>image/svg+xml</dc:format>
        <dc:type
           rdf:resource="http://purl.org/dc/dcmitype/StillImage" />
        <dc:title />
      </cc:Work>
    </rdf:RDF>
  </metadata>
  <defs
     id="defs27" />
  <path
     style="fill:#000000;fill-opacity:1;fill-rule:nonzero;stroke:none;stroke-width:1.33333337"
     d="M 631.97461 286.07812 L 625.38281 288.60938 C 628.38068 292.98617 631.41659 297.47475 634.53125 302.20898 C 666.67708 351.06837 683.80143 407.03581 671.04102 464.19727 C 670.12435 468.29101 669.17709 472.52148 668.4375 477.03711 C 668.29687 477.91732 667.71351 478.57292 666.98438 478.875 C 666.25518 479.17708 665.38541 479.12565 664.65625 478.59961 C 660.9427 475.92773 657.2819 473.61523 653.74023 471.36523 C 604.29754 439.96941 576.83267 388.28645 565.00977 331 C 563.73363 324.81472 562.5952 318.89742 561.5293 313.12695 L 555.35742 315.49609 C 555.8494 325.14976 553.77854 334.52365 549.45898 343.42773 C 549.33109 343.69137 549.18537 343.93099 549.05078 344.18555 L 557.00977 368.24219 C 557.42984 368.31626 557.84474 368.37588 558.26562 368.45312 C 570.9271 370.78126 573.02149 377.74415 579.86523 394.27539 C 581.29233 397.71811 578.43686 401.41211 574.74414 400.89648 C 572.34772 400.56242 569.87706 400.21754 567.47656 399.88281 L 569.81641 406.94922 C 569.8719 406.95754 569.95059 406.97022 570.00586 406.97852 C 580.89649 408.61393 589.87956 412.61914 595.96289 423.08789 C 599.79621 429.67644 604.75066 435.62045 609.58398 441.44336 C 611.52149 443.78191 609.37435 447.25065 606.41602 446.56836 C 597.92659 444.61385 589.45748 442.56423 580.9707 440.66602 L 582.92578 446.58008 C 594.27412 449.38034 605.6686 453.16752 618.45312 458.38086 C 644.8021 469.12565 664.7233 486.63025 676.10352 513.26562 C 680.7181 524.05729 686.30142 534.42708 691.13477 545.125 C 693.65038 550.69271 695.50456 556.56184 697.18164 561.04102 L 680.9375 577.28516 L 685.89453 582.24219 C 691.02968 575.36756 696.97614 570.50956 703.77539 567.69336 C 707.8918 565.98751 712.32199 565.04004 717.05859 564.82227 L 716.06836 558.32812 L 703.72852 558.32812 C 701.75456 553.97397 698.9121 548.51558 696.75586 542.79688 C 692.60482 531.81249 689.2233 520.53127 684.85352 509.64062 C 674.06706 482.76042 675.78125 456.29753 686.8125 430.06836 C 688.69985 425.58187 690.59214 421.35345 692.51367 417.30664 L 692.33008 404.57227 C 690.54682 407.45116 688.76592 410.33191 686.96875 413.20312 C 685.35938 415.77605 681.39583 414.8392 681.10938 411.81836 C 680.40625 404.28191 679.70898 396.57878 677.75586 389.20898 C 674.68934 377.62322 678.11013 368.51184 684.52539 359.73828 L 681.05078 353.24219 C 679.73713 354.98189 678.38386 356.77271 677.07227 358.50977 C 674.82227 361.48371 670.19272 360.89517 668.76562 357.44727 C 662.17014 341.53279 658.76379 334.99746 665.04883 325.06641 L 645.04688 295.91016 C 640.2108 293.28228 635.83672 290.00418 631.97461 286.07812 z "
     transform="scale(0.75)"
     id="path2" />
</svg>
