<?xml version="1.0" encoding="UTF-8" standalone="no"?>
<svg
   xmlns:dc="http://purl.org/dc/elements/1.1/"
   xmlns:cc="http://creativecommons.org/ns#"
   xmlns:rdf="http://www.w3.org/1999/02/22-rdf-syntax-ns#"
   xmlns:svg="http://www.w3.org/2000/svg"
   xmlns="http://www.w3.org/2000/svg"
   xmlns:sodipodi="http://sodipodi.sourceforge.net/DTD/sodipodi-0.dtd"
   xmlns:inkscape="http://www.inkscape.org/namespaces/inkscape"
   id="svg23"
   version="1.2"
   viewBox="0 0 1200 1200"
   height="1200pt"
   width="1200pt"
   sodipodi:docname="591_tree.svg"
   inkscape:version="0.92.3 (2405546, 2018-03-11)">
  <sodipodi:namedview
     pagecolor="#ffffff"
     bordercolor="#666666"
     borderopacity="1"
     objecttolerance="10"
     gridtolerance="10"
     guidetolerance="10"
     inkscape:pageopacity="0"
     inkscape:pageshadow="2"
     inkscape:window-width="1269"
     inkscape:window-height="728"
     id="namedview4669"
     showgrid="false"
     inkscape:zoom="0.33763672"
     inkscape:cx="800"
     inkscape:cy="800"
     inkscape:window-x="0"
     inkscape:window-y="27"
     inkscape:window-maximized="0"
     inkscape:current-layer="svg23" />
  <metadata
     id="metadata29">
    <rdf:RDF>
      <cc:Work
         rdf:about="">
        <dc:format>image/svg+xml</dc:format>
        <dc:type
           rdf:resource="http://purl.org/dc/dcmitype/StillImage" />
        <dc:title></dc:title>
      </cc:Work>
    </rdf:RDF>
  </metadata>
  <defs
     id="defs27" />
  <path
     id="path2"
     transform="scale(0.75)"
     d="M 545.5957 178.4082 C 544.61328 178.38476 543.64323 178.57227 542.75 178.94727 C 540.96353 179.68164 539.47983 181.16211 538.80273 183.14648 C 536.34076 190.40458 533.96799 197.69409 531.67578 205.00781 L 533.14062 222.33398 C 534.6431 216.69522 535.44353 213.69246 537.14062 207.30664 C 537.58335 205.63997 538.31772 203.19726 539.14062 200.75977 C 539.39585 199.99934 540.09181 199.69272 540.73242 199.77734 C 541.37306 199.86188 541.95898 200.33919 541.99023 201.14648 L 541.99023 201.17188 C 543.11523 237.52081 548.68686 273.33398 554.66602 309.11523 C 556.6556 321.02149 554.72456 332.57357 549.45898 343.42773 C 549.33109 343.69137 549.18537 343.93099 549.05078 344.18555 L 557.00977 368.24219 C 557.42984 368.31626 557.84474 368.37585 558.26562 368.45312 C 570.9271 370.78126 573.02149 377.74415 579.86523 394.27539 C 581.29233 397.71811 578.43686 401.41211 574.74414 400.89648 C 572.34772 400.56242 569.87706 400.21754 567.47656 399.88281 L 569.81641 406.94922 C 569.8719 406.95754 569.95059 406.97022 570.00586 406.97852 C 580.89649 408.61393 589.87956 412.61914 595.96289 423.08789 C 599.79621 429.67644 604.75066 435.62045 609.58398 441.44336 C 611.52149 443.78191 609.37435 447.25065 606.41602 446.56836 C 597.92659 444.61385 589.45748 442.56423 580.9707 440.66602 L 582.92578 446.58008 C 594.27412 449.38034 605.6686 453.16752 618.45312 458.38086 C 644.8021 469.12565 664.7233 486.63022 676.10352 513.26562 C 680.7181 524.05729 686.30142 534.42708 691.13477 545.125 C 693.65038 550.69271 695.50456 556.56184 697.18164 561.04102 L 676.89648 581.32812 C 675.55797 578.294 674.14926 575.16244 672.70117 571.99805 L 665.58203 570.98047 C 666.88878 573.98606 668.15655 577.073 669.375 580.26562 C 660.17835 577.13871 651.47342 574.4089 642.50781 573.10352 L 643.32422 579.16406 C 659.15215 581.2926 669.58044 588.8944 678.50977 594.65625 C 685.04102 580.96353 693.42642 571.97983 703.77539 567.69336 C 714.11914 563.40689 726.4069 563.83399 740.70898 568.89648 C 742.31185 561.45617 743.78787 552.80413 748.05469 543.82812 L 742.75195 541.08594 C 740.77389 544.67816 738.88827 548.40673 736.99023 552.25977 C 734.27659 546.19623 731.93866 540.26824 729.94922 534.46484 L 722.50586 530.61328 C 725.53497 540.23852 729.06718 549.66748 732.42773 558.32812 L 703.72852 558.32812 C 701.75456 553.97397 698.9121 548.51561 696.75586 542.79688 C 692.60482 531.81249 689.2233 520.53127 684.85352 509.64062 C 674.06706 482.76042 675.78125 456.29753 686.8125 430.06836 C 688.69985 425.58187 690.59214 421.35345 692.51367 417.30664 L 692.33008 404.57227 C 690.54682 407.45116 688.76592 410.33191 686.96875 413.20312 C 685.35938 415.77605 681.39583 414.8392 681.10938 411.81836 C 680.40625 404.28191 679.70898 396.57878 677.75586 389.20898 C 674.68934 377.62322 678.11013 368.51184 684.52539 359.73828 L 681.05078 353.24219 C 679.73713 354.98189 678.38386 356.77271 677.07227 358.50977 C 674.82227 361.48371 670.19272 360.89517 668.76562 357.44727 C 662.17014 341.53279 658.76379 334.99746 665.04883 325.06641 L 645.04688 295.91016 C 637.69223 291.91371 631.38189 286.4438 626.36523 279.41602 C 605.29754 249.87956 583.91211 220.61394 559.00586 194.11914 C 559.00053 194.11914 558.99517 194.11912 558.99023 194.10352 C 558.02865 193.06901 558.9769 191.54902 560.19922 191.66992 C 560.37382 191.68726 560.55336 191.73766 560.73438 191.82812 C 563.03646 192.95834 565.28582 194.17122 566.77539 195.02539 C 571.3648 197.68793 573.42119 198.88043 577.57812 201.28906 L 564.78906 187.35938 C 559.3892 184.56928 553.96625 181.82373 548.51562 179.13477 C 547.57292 178.66601 546.57813 178.43164 545.5957 178.4082 z M 550.13867 195.7168 C 550.55054 195.67533 550.98633 195.80465 551.31836 196.17188 C 573.35483 220.66666 600.38541 250.30794 634.53125 302.20898 C 666.67708 351.06837 683.80143 407.03581 671.04102 464.19727 C 670.12435 468.29101 669.17709 472.52148 668.4375 477.03711 C 668.29687 477.91732 667.71351 478.57292 666.98438 478.875 C 666.25519 479.17708 665.38541 479.12565 664.65625 478.59961 C 660.9427 475.92773 657.2819 473.61523 653.74023 471.36523 C 604.29754 439.96941 576.83267 388.28645 565.00977 331 C 552.45767 270.16145 550.61459 230.07814 548.875 197.1875 C 548.8438 196.52083 549.22983 196.02605 549.74023 195.8125 C 549.86783 195.76303 550.00138 195.73066 550.13867 195.7168 z "
     style="fill:#000000;fill-opacity:1;fill-rule:nonzero;stroke:none;stroke-width:1.33333337" />
</svg>
