<?xml version="1.0" encoding="UTF-8" standalone="no"?>
<svg
   xmlns:dc="http://purl.org/dc/elements/1.1/"
   xmlns:cc="http://creativecommons.org/ns#"
   xmlns:rdf="http://www.w3.org/1999/02/22-rdf-syntax-ns#"
   xmlns:svg="http://www.w3.org/2000/svg"
   xmlns="http://www.w3.org/2000/svg"
   width="1200pt"
   height="1200pt"
   viewBox="0 0 1200 1200"
   version="1.2"
   id="svg23">
  <metadata
     id="metadata29">
    <rdf:RDF>
      <cc:Work
         rdf:about="">
        <dc:format>image/svg+xml</dc:format>
        <dc:type
           rdf:resource="http://purl.org/dc/dcmitype/StillImage" />
        <dc:title></dc:title>
      </cc:Work>
    </rdf:RDF>
  </metadata>
  <defs
     id="defs27" />
  <path
     style="fill:#000000;fill-opacity:1;fill-rule:nonzero;stroke:none;stroke-width:1"
     d="m 600,49.999512 c -8.1875,0.08984 -23.25732,7.172851 -28.81201,26.012696 -0.84765,2.886719 -0.77051,6.038572 -1.12207,9.089354 -9.42969,-2.132812 -18.25293,-2.141115 -25.52637,4.179203 -8.23437,7.148438 -10.35205,16.878905 -9.29736,27.410155 -28.07031,5.62891 -23.55909,20.54004 -24.1919,31.91894 -35.14062,-20.82812 -93.15625,-56.089837 -124.2539,-71.167965 -1.08594,-0.531247 -2.27344,-0.53223 -3.29297,-0.10254 -1.01563,0.421875 -1.8584,1.250003 -2.25293,2.390625 -11.32031,32.66016 -27.41895,98.62207 -37.53223,138.19629 -8.5,-7.60156 -15.85156,-21.33643 -39.67968,-5.46533 -6.69532,-8.19141 -15.07422,-13.58252 -25.95704,-12.81299 -9.61328,0.67578 -15.84326,6.91797 -21.00733,15.09375 -2.40234,-1.90625 -4.57811,-4.19043 -7.21875,-5.62793 -17.24609,-9.40234 -32.90966,-3.75 -38.76123,1.98047 -5.73046,5.85156 -11.3789,21.51513 -1.98046,38.76123 1.4375,2.64063 3.72168,4.81641 5.62793,7.21875 -8.17578,5.16406 -14.41797,11.39404 -15.09375,21.00732 -0.76172,10.88282 4.62158,19.26172 12.81299,25.95704 -15.8711,23.82812 -2.13624,31.17968 5.46533,39.67969 -39.57812,10.11327 -105.53174,26.21191 -138.191895,37.53222 -1.140623,0.39453 -1.976078,1.2378 -2.397953,2.25732 -0.421875,1.01563 -0.426757,2.20264 0.09668,3.28858 15.089842,31.09765 50.347658,89.11327 71.179688,124.2539 -11.38281,0.63281 -26.29297,-3.87841 -31.92187,24.1919 -10.52735,-1.05469 -20.256838,1.06299 -27.413091,9.29736 -6.32031,7.27344 -6.30957,16.09668 -4.180665,25.52637 -3.046875,0.35156 -6.202147,0.27343 -9.08496,1.125 C 57.172363,576.7417 50.089356,591.8125 49.999512,600 c 0.0021,0.18821 0.01246,0.38333 0.02197,0.57861 h 9.467285 c -0.0087,-0.19288 -0.02344,-0.38463 -0.02344,-0.57861 0,-1.375 0.217774,-2.75 0.647461,-3.73829 4.933594,-11.28124 15.356444,-21.32861 29.704102,-18.85985 6.88281,1.18359 13.72998,2.60547 20.52685,4.20703 37.09375,8.74999 0.9419,3.4541 81.41455,17.34082 0.58985,0.10546 0.88184,0.57763 0.88184,1.05029 0,0.20402 -0.0648,0.40361 -0.17432,0.57861 H 215.458 c -0.1248,-0.15512 -0.23736,-0.30381 -0.36767,-0.46142 L 215.1958,600 l -0.10547,-0.11719 c 1.56641,-1.89453 2.70215,-3.61328 4.16309,-4.98047 50.84375,-47.39063 65.13378,-63.73828 103.29785,-79.79297 19.67188,-8.27343 39.51904,-9.55908 59.67919,-1.46923 8.16798,3.27734 16.62891,5.81348 24.8672,8.92675 4.28906,1.61719 8.38281,3.74952 11.64843,5.2339 v 21.52001 c -15.59374,-6.05078 -34.4956,-12.87891 -50.83154,-13.3125 -58.18359,-1.53906 -96.72363,38.26514 -123.38379,60.93311 -0.75781,0.64453 -1.1289,1.74218 -1.79297,3.05859 0.10786,0.21381 0.18448,0.37736 0.27979,0.57861 h 5.91211 c -0.16584,-0.14624 -0.33375,-0.29176 -0.49952,-0.43799 0.0547,-0.0469 0.10547,-0.0937 0.16406,-0.14062 -0.0586,-0.0469 -0.10937,-0.0937 -0.16406,-0.14063 44.85548,-39.5664 92.16797,-80.05419 165.76172,-47.1167 -11.08984,5.46485 -20.84472,10.76075 -28.48535,20.58106 -9.8125,-6.16015 -20.01562,-8.11621 -30.92578,-7.72559 -13.98047,0.50001 -24.81982,6.64063 -33.15967,17.46094 -3.75781,4.87891 -5.5708,10.91748 -5.5122,16.94092 -0.002,0.19287 0.004,0.38575 0.006,0.57861 h 4.69042 c -0.005,-0.19297 -0.0205,-0.38558 -0.0205,-0.57861 0,-4.56641 1.30518,-9.13721 3.90674,-13.0708 12.04297,-18.1875 40.05908,-22.77295 57.93017,-9.18311 -3.81249,7.26562 -5.73486,14.7461 -5.73486,22.25391 0,0.19287 0.006,0.38578 0.009,0.57861 h 4.56885 c -0.003,-0.19286 -0.0117,-0.38574 -0.0117,-0.57861 0,-8.40625 2.84424,-16.82471 8.5708,-24.20361 12.48437,-16.08594 26.16846,-18.00684 36.64892,-20.26465 -3.79687,-10.72657 -4.11718,-19.94238 -0.90234,-27.7002 3.21485,-7.76172 9.95264,-14.05078 20.22217,-18.94921 -5.8125,-9.00782 -14.12939,-20.04297 -11.58252,-40.24219 1.16797,-9.26954 5.10986,-17.23389 11.05517,-23.1753 5.94141,-5.94531 13.90577,-9.88721 23.1753,-11.05517 20.19922,-2.54688 31.23437,5.77002 40.24219,11.58252 4.89844,-10.26954 11.18749,-17.00732 18.94922,-20.22217 7.75781,-3.21485 16.97363,-2.89453 27.70019,0.90234 2.25781,-10.48046 4.17871,-24.16455 20.26465,-36.64892 7.37891,-5.72657 15.79736,-8.5708 24.20361,-8.5708 1.33232,0 2.66444,0.0796 3.99317,0.22265 v -4.604 c -1.32961,-0.12088 -2.66079,-0.18458 -3.99317,-0.18458 -7.50781,0 -14.98828,1.92237 -22.25391,5.73487 -13.58984,-17.87109 -9.00439,-45.8872 9.18311,-57.93017 3.9336,-2.60156 8.5044,-3.90674 13.0708,-3.90674 1.33662,0 2.67194,0.12526 3.99317,0.34863 v -4.78125 c -1.32359,-0.1716 -2.65833,-0.25615 -3.99317,-0.24316 -6.02344,-0.0586 -12.06201,1.75439 -16.94092,5.5122 -10.82031,8.33985 -16.96093,19.1792 -17.46093,33.15967 -0.39063,10.91016 1.56543,21.11377 7.72558,30.93018 -9.82031,7.63671 -15.11621,17.39014 -20.58106,28.48389 -32.93749,-73.59766 7.5503,-120.90918 47.11671,-165.76466 0.0469,0.0547 0.0937,0.10547 0.14062,0.16406 0.0469,-0.0586 0.0937,-0.10937 0.14063,-0.16406 1.28557,1.45743 2.56757,2.92672 3.85254,4.39014 v -7.20703 c -0.30419,-0.35507 -0.63619,-0.73158 -0.93458,-1.08252 -0.64453,-0.75781 -1.74218,-1.1289 -3.05859,-1.79297 -1.31641,0.66407 -2.41406,1.03516 -3.05859,1.79297 -22.66797,26.66016 -62.47217,65.2002 -60.93311,123.38379 0.4336,16.33594 7.26173,35.2378 13.3125,50.83154 h -21.52441 c -1.48047,-3.26562 -3.61231,-7.35937 -5.22949,-11.64843 -3.11328,-8.23829 -5.64942,-16.69922 -8.92676,-24.8672 -8.08984,-20.16015 -6.8042,-40.00731 1.46924,-59.67919 16.05468,-38.16407 32.40234,-52.4541 79.79296,-103.29785 1.36719,-1.46094 3.08595,-2.59668 4.98047,-4.16309 l 0.11719,0.10547 0.11719,-0.10547 c 1.41459,1.16959 2.73056,2.0997 3.87598,3.10401 v -43.30811 c -0.91631,5.2313 -1.77504,10.10679 -2.94287,16.875 -0.10547,0.58984 -0.57764,0.87891 -1.0503,0.87891 -0.47266,0 -0.94483,-0.28907 -1.05029,-0.87891 -13.88672,-80.48047 -8.59473,-44.32031 -17.34082,-81.42187 -1.60156,-6.78906 -3.02344,-13.64063 -4.20703,-20.519532 -2.46875,-14.351565 7.57861,-24.768558 18.85986,-29.709965 0.98828,-0.429687 2.36329,-0.641601 3.73828,-0.641601 1.375,0 2.75,0.211914 3.73829,0.641601 0.0856,0.03752 0.16938,0.08197 0.25488,0.120118 V 50.509277 C 602.54948,50.180859 601.19971,50.012677 600,49.999512 Z M 388.95117,86.512208 c 0.52198,0.0015 1.04834,0.109372 1.54834,0.339839 0.008,0 0.0205,0.0075 0.0323,0.0075 60.58595,27.878903 119.99122,69.551273 198.917,122.559083 1.48828,1 2.85937,2.17187 5.26172,4.00781 -8.07031,7.52344 -15.40576,14.3628 -23.14014,21.56982 -49.65625,-36.63671 -103.0625,-72.46533 -160.18359,-100.64501 -1.41406,-0.70313 -2.98438,-0.70313 -4.32422,-0.14063 -1.33985,0.55078 -2.45263,1.66113 -2.96045,3.14941 -20.46093,60.32032 -32.8872,123.42188 -42.09814,184.44141 -10.56251,0.37109 -20.58643,0.72217 -31.60987,1.10889 0.39453,-2.9961 0.53955,-4.79736 0.8833,-6.55518 18.32813,-93.28906 30.8667,-164.76514 53.99561,-227.315916 0.004,-0.0078 0.008,-0.02003 0.0117,-0.02783 0.38672,-1.03125 1.1919,-1.80078 2.14892,-2.203125 0.47853,-0.193358 0.99561,-0.29736 1.51758,-0.295898 z m 173.00537,4.089839 c 5.24619,-0.184335 10.57178,3.55005 12.10987,9.588873 12.23827,47.94921 7.18408,20.86816 19.18798,91.708 0.0664,0.39063 0.12012,0.78077 0.167,1.1792 0.22656,1.88282 -2.28809,2.76221 -3.30762,1.15284 -18.4375,-29.03907 -27.08594,-46.99317 -44.15625,-68.55176 -10.72656,-13.55078 -0.37109,-32.909668 14.95312,-34.98779 0.34791,-0.04763 0.69615,-0.07707 1.0459,-0.08936 z M 534.5083,123.32813 c 2.81451,-0.0161 5.25293,1.41064 7.17481,4.20264 23.49218,34.14843 8.77734,9.68017 46.10156,71.8286 0.004,0.0117 0.008,0.019 0.0117,0.0307 0.66796,1.11719 -0.66358,2.36035 -1.75343,1.64941 -31.30468,-20.39062 -19.27001,-12.83984 -62.0083,-41.73046 -7.32421,-4.94922 -8.07031,-12.79688 -7.21875,-20.02735 0.9336,-7.96094 7.13331,-12.99316 14.7583,-15.4541 1.0166,-0.3291 1.99592,-0.49414 2.93408,-0.49951 z m -114.35889,20.42431 c 0.13095,0.013 0.26563,0.0508 0.40138,0.11865 1.72656,0.84766 3.41357,1.75732 4.53075,2.39795 67.37891,39.08984 70.80078,40.49317 81.30469,51.21973 12.95312,13.23046 0.49316,33.10449 -15.64746,27.50683 -8.55078,-2.96484 -15.70313,-8.0625 -20.96485,-15.43359 -15.80077,-22.15234 -31.83984,-44.10156 -50.51953,-63.97266 -0.004,0 -0.008,0 -0.0117,-0.0117 -0.72119,-0.77588 -0.01,-1.91588 0.90674,-1.8252 z m -7.54541,3.03516 c 0.3089,-0.0311 0.63575,0.0659 0.88477,0.34131 16.52735,18.37109 36.80029,40.60204 62.40967,79.52782 24.10937,36.64454 36.95263,78.62013 27.38232,121.49122 -0.6875,3.07031 -1.39795,6.24316 -1.95264,9.62988 -0.10547,0.66016 -0.54297,1.15186 -1.08983,1.37842 -0.54688,0.22656 -1.19923,0.18799 -1.7461,-0.20654 -2.78516,-2.00391 -5.53077,-3.73829 -8.18702,-5.42579 -37.08202,-23.54687 -57.68066,-62.30908 -66.54784,-105.27392 -9.41407,-45.62891 -10.79639,-75.6914 -12.10108,-100.35938 -0.0234,-0.5 0.26612,-0.87109 0.64892,-1.03125 0.0957,-0.0371 0.19586,-0.0614 0.29883,-0.0718 z m -7.05469,3.0454 c 0.48048,0.0634 0.91992,0.42139 0.94336,1.02686 v 0.019 c 0.84375,27.26171 5.02247,54.12157 9.50684,80.95751 1.49219,8.92969 0.0439,17.59376 -3.90528,25.73438 -7.45702,15.3711 -30.3247,10.12842 -30.52002,-8.3833 -0.16015,-15.01562 1.27344,-18.42236 21.28125,-93.70752 0.33204,-1.25 0.88282,-3.08203 1.5,-4.91015 0.19141,-0.57032 0.71339,-0.8003 1.19385,-0.73683 z m -124.80175,58.06934 c 10.34167,-0.009 20.70263,6.68921 22.07227,18.49219 3.17577,27.31641 9.74609,46.1167 17.25,79.69482 0.41406,1.85547 -1.9795,3.01661 -3.15528,1.52051 -0.24609,-0.30859 -0.48438,-0.625 -0.71484,-0.94922 -41.60157,-58.57812 -26.02344,-35.85595 -51.28125,-78.41455 -3.39063,-5.71484 -1.88721,-12.62549 2.58545,-16.02392 3.84643,-2.92603 8.54289,-4.31571 13.24365,-4.31983 z m 41.92969,4.02247 c 3.66308,-0.0415 7.22118,0.9956 10.36962,3.48192 5.70703,4.50782 10.73438,10.58595 9.05859,19.26563 -9.80077,50.64454 -6.6289,36.7959 -14.34375,73.35059 -0.26952,1.27343 -2.08935,1.33643 -2.40966,0.0747 0,-0.008 -0.005,-0.02 -0.005,-0.0278 -17.55469,-70.33985 -10.66358,-42.63282 -18.19483,-83.39063 -0.82422,-4.44922 0.71777,-7.82373 4.52637,-9.76904 3.5664,-1.82423 7.33495,-2.94386 10.99805,-2.98535 z m 206.68066,0.0527 c 1.25134,0.01 2.5061,0.38696 3.59473,1.14404 2.30077,1.59766 4.59033,3.1875 6.80127,4.72266 2.36328,1.64062 2.87548,4.92187 1.14111,7.21875 -11.17969,14.80469 -22.18067,29.37012 -33.09082,43.81934 -1.6875,2.23046 -5.15967,1.78906 -6.22999,-0.79687 -5.13671,-12.39454 -7.71825,-17.19532 -2.23388,-25.14844 8.97266,-13.01563 19.55371,-23.46095 25.57325,-29.20313 1.23266,-1.17554 2.83547,-1.76904 4.44433,-1.75635 z m -294.7837,0.94043 c 7.77756,0.027 15.40137,2.91846 20.65284,10.34766 4.02735,5.70312 7.8667,11.5542 11.53857,17.4917 20.04297,32.41406 -1.77734,3.10644 45.30469,69.82909 0.34375,0.48829 0.21875,1.03077 -0.11719,1.36671 -0.33594,0.33594 -0.87841,0.46093 -1.3667,0.11718 -66.72265,-47.08203 -37.41503,-25.26171 -69.82909,-45.30468 -5.93751,-3.67187 -11.78858,-7.51123 -17.49171,-11.53858 -11.88672,-8.40234 -12.15624,-22.87549 -7.66406,-34.34033 0.39062,-1.00391 1.21142,-2.12842 2.18408,-3.10107 0.97266,-0.97266 2.09717,-1.79346 3.10107,-2.18408 4.29933,-1.68457 9.02097,-2.69978 13.6875,-2.6836 z m 314.38477,12.41748 c 0.98142,-0.0366 1.97974,0.25098 2.82569,0.8833 4.69531,3.5039 8.90283,6.64404 13.15283,9.81592 2.07812,1.55078 2.41015,4.54736 0.70312,6.49658 -9.65625,11.05469 -19.49218,21.58154 -28.04296,33.06592 -8.13281,10.92187 -15.10938,22.70361 -22.3711,34.30517 -1.20703,1.92969 -4.17969,1.22706 -4.39453,-1.03857 -0.52734,-5.65234 -1.0503,-11.42968 -2.51514,-16.95703 -2.32422,-8.78125 0.31641,-15.66797 5.22657,-22.3125 8.15234,-11.03125 21.75732,-29.39551 32.08154,-42.55957 0.83935,-1.07007 2.07216,-1.65214 3.33398,-1.69922 z m -327.39844,37.73145 c 2.23103,-0.004 4.54248,0.58008 6.68555,1.85156 42.5586,25.25781 19.83643,9.67969 78.41455,51.28125 0.32422,0.23047 0.64063,0.46875 0.94922,0.71484 1.4961,1.17578 0.33496,3.56934 -1.52051,3.15528 -33.57812,-7.50391 -52.37841,-14.07422 -79.69482,-17.25 -17.16797,-1.99219 -23.53564,-23.00733 -14.17236,-35.31592 2.12402,-2.79541 5.62,-4.4311 9.33837,-4.43701 z m 165.77637,10.62597 c 8.41827,0.0234 19.69922,0.50538 31.3623,2.64697 9.4961,1.7461 11.0669,6.96827 16.19971,19.3667 1.07032,2.58204 -1.07128,5.35254 -3.84082,4.96582 -17.93359,-2.5 -36.01171,-5.02392 -54.38671,-7.58642 -2.85157,-0.39844 -4.8042,-3.07862 -4.29639,-5.91065 0.48047,-2.65234 0.97315,-5.39404 1.46923,-8.15185 0.53907,-2.98047 3.09278,-5.17529 6.12012,-5.24561 2.07813,-0.0498 4.56647,-0.0928 7.37256,-0.085 z m -13.06054,24.09961 c 0.14785,0.003 0.29687,0.0142 0.44677,0.0323 16.60938,2.01172 39.21485,5.37402 52.78125,7.40918 8.16797,1.22656 14.90528,4.23047 19.46778,12.08203 2.87499,4.94141 6.59082,9.39942 10.21581,13.7666 1.45313,1.75391 -0.15722,4.35547 -2.37597,3.84375 -13.33594,-3.07031 -26.60107,-6.46484 -40.07373,-8.4375 -14.16797,-2.07422 -28.5669,-2.5664 -43.21143,-3.55078 -2.58594,-0.17578 -4.46826,-2.52832 -4.09716,-5.09472 0.76171,-5.2461 1.51611,-10.44092 2.35986,-16.2378 0.32593,-2.24121 2.26896,-3.85787 4.48682,-3.81298 z m -151.98341,9.14503 c 0.75636,-0.0113 1.55201,0.0608 2.38624,0.21533 40.75781,7.53125 13.05078,0.64014 83.39063,18.19483 0.008,0 0.02,0.005 0.0278,0.005 1.26172,0.32032 1.19873,2.14014 -0.0747,2.40967 -36.55469,7.71484 -22.70605,4.54297 -73.35059,14.34375 -8.67968,1.67578 -14.75781,-3.35157 -19.26563,-9.05859 -4.97265,-6.29688 -4.14501,-14.23487 -0.49657,-21.36768 1.58056,-3.09448 4.10527,-4.69302 7.3828,-4.7417 z m 111.334,20.2251 c 0.2514,-0.005 0.50146,-0.003 0.75146,0.006 69.46093,2.44141 91.12549,0.98437 129.46142,16.61719 19.76172,8.05859 34.70264,21.18701 43.2378,41.16357 3.46094,8.09375 7.64843,15.87109 11.27344,23.89453 1.88671,4.17578 3.27734,8.57764 4.53515,11.93702 l -15.21387,15.21532 c -6.75,-15.30078 -15.28954,-33.49657 -26.53564,-45.35595 -40.05078,-42.23437 -95.44971,-41.33497 -130.32861,-44.15918 -0.99219,-0.0781 -2.03076,0.43701 -3.4292,0.89795 -0.46094,1.39844 -0.97608,2.43701 -0.89795,3.4292 2.82421,34.87891 1.92481,90.27783 44.15918,130.32861 11.85938,11.25 30.05126,19.78955 45.35595,26.53564 -5.09374,5.09375 -9.71826,9.71387 -15.21826,15.21387 -3.35547,-1.25781 -7.7583,-2.64844 -11.93408,-4.53515 -8.02344,-3.62501 -15.80078,-7.8125 -23.89453,-11.27344 -19.97656,-8.53516 -33.10498,-23.47608 -41.16357,-43.2378 -15.63282,-38.33593 -14.17578,-60.00048 -16.61719,-129.46142 -0.0703,-2 0.34375,-4.01953 0.57421,-6.46875 0.0547,-0.004 0.10499,-0.004 0.15967,-0.007 0.004,-0.0547 0.007,-0.10498 0.007,-0.15967 2.14307,-0.20166 3.95741,-0.54478 5.71729,-0.58007 z m -10.7168,3.23144 c -0.38672,11.02344 -0.7378,21.04736 -1.10889,31.60987 -61.01953,9.21094 -124.11817,21.63721 -184.43848,42.09814 -1.49609,0.50782 -2.59765,1.6206 -3.15234,2.96045 -0.5586,1.33985 -0.56152,2.91016 0.1377,4.32421 28.17969,57.12501 64.01123,110.52736 100.64794,160.1836 -7.20703,7.73438 -14.04638,15.06983 -21.56982,23.14014 -1.83594,-2.40234 -3.00782,-3.77344 -4.00781,-5.26172 -53.00391,-78.92578 -94.67628,-138.33105 -122.559085,-198.91699 -0.0037,-0.0117 -0.0078,-0.0205 -0.0117,-0.0323 -0.453127,-1 -0.429203,-2.10888 -0.03075,-3.06592 0.39453,-0.95703 1.160152,-1.7622 2.191402,-2.14892 0.0078,-0.004 0.01905,-0.008 0.03075,-0.0117 62.554693,-23.12891 134.026853,-35.66749 227.315923,-53.99561 1.75781,-0.34375 3.55908,-0.48877 6.55518,-0.8833 z m 28.58936,20.90625 c 59.69921,3.74609 121.78173,8.5669 150.53173,83.89892 -11.70703,-3.98046 -22.34716,-7.1289 -34.69483,-5.58984 -2.58593,-11.29296 -8.41504,-19.89501 -16.40332,-27.33252 -10.24609,-9.53124 -22.2495,-12.85547 -35.79639,-11.09765 -6.10937,0.78906 -11.65966,3.78222 -15.8745,8.08301 -4.30079,4.21484 -7.29395,9.76513 -8.08301,15.8745 -1.75782,13.54688 1.56641,25.55421 11.09765,35.79639 7.43751,7.98828 16.03956,13.81739 27.33252,16.40332 -1.54296,12.34766 1.60938,22.9878 5.58984,34.69483 -75.33202,-28.75 -80.15283,-90.83252 -83.89892,-150.53174 0.0703,0.008 0.14502,0.0122 0.21533,0.0161 -0.004,-0.0703 -0.008,-0.14502 -0.0161,-0.21533 z m -33.17725,16.08545 c 2.37364,-0.0894 4.45093,1.7168 4.61572,4.14111 0.98437,14.64453 1.47656,29.04346 3.55078,43.21144 1.97266,13.47265 5.36719,26.73778 8.4375,40.07372 0.51172,2.21875 -2.08984,3.8291 -3.84375,2.37598 -4.36719,-3.625 -8.8252,-7.34083 -13.7666,-10.21582 -7.85157,-4.5625 -10.85547,-11.29981 -12.08203,-19.46778 -2.03516,-13.5664 -5.39746,-36.17187 -7.40918,-52.78125 -0.28907,-2.39844 1.39014,-4.58593 3.78075,-4.93359 5.79688,-0.83985 10.99171,-1.59815 16.2378,-2.35986 0.1604,-0.0232 0.32077,-0.0379 0.47901,-0.0439 z m -30.09522,4.91162 c 2.4156,0.0733 4.51026,1.88233 4.85889,4.37403 2.5625,18.375 5.08642,36.45312 7.58642,54.38671 0.38672,2.76954 -2.38378,4.91114 -4.96582,3.84082 -12.39843,-5.13281 -17.6206,-6.70361 -19.3667,-16.19971 -2.85547,-15.55077 -2.76123,-30.42236 -2.56201,-38.73486 0.0703,-3.02734 2.26514,-5.58105 5.24561,-6.12012 2.75781,-0.49608 5.49951,-0.98876 8.15185,-1.46923 0.35401,-0.0634 0.70668,-0.0881 1.05176,-0.0776 z m -41.73926,9.26953 c 0.86817,-0.007 1.76124,-0.003 2.69971,0.007 18.51172,0.19923 23.7544,23.063 8.3833,30.52002 -8.14062,3.94923 -16.80469,5.39747 -25.73438,3.90528 -26.83593,-4.48437 -53.6997,-8.66309 -80.95751,-9.50684 h -0.0161 c -1.21094,-0.043 -1.43702,-1.75439 -0.28858,-2.13721 1.82812,-0.61718 3.65967,-1.16796 4.90576,-1.5 70.57984,-18.75732 77.9854,-21.18976 91.00782,-21.28857 z m 174.12012,13.83545 c 19.48361,-0.50474 38.67639,14.99134 41.41992,35.15186 -7.83203,2.4414 -14.48437,6.37207 -19.79297,11.68066 -5.30859,5.3086 -9.23926,11.96094 -11.68066,19.79297 -22.24609,-3.02734 -38.81152,-26.083 -34.46778,-47.458 0.94141,-4.6211 3.25001,-8.77247 6.48047,-12.00294 3.23047,-3.23046 7.37793,-5.53906 12.00294,-6.48047 2.0039,-0.40722 4.02253,-0.63187 6.03808,-0.68408 z m -272.71729,16.25391 c 24.67578,1.30469 54.73048,2.68701 100.35938,12.10108 42.96484,8.86718 81.72705,29.46582 105.27392,66.54784 1.6875,2.65625 3.4209,5.40186 5.42872,8.18702 0.39062,0.54687 0.43017,1.20312 0.20361,1.7461 -0.22656,0.54686 -0.71826,0.98436 -1.37842,1.08983 -3.38672,0.55469 -6.55957,1.26514 -9.62988,1.95264 -42.87109,9.57031 -84.84668,-3.27295 -121.49122,-27.38232 -38.92578,-25.60938 -61.15624,-45.88232 -79.52343,-62.40967 -0.3711,-0.33203 -0.42969,-0.80078 -0.26953,-1.1836 0.15625,-0.3828 0.53076,-0.67236 1.02685,-0.64892 z m -3.02636,7.29052 c 0.24444,7.5e-4 0.49609,0.0899 0.71778,0.2959 l 0.0117,0.0117 c 19.8711,18.67969 41.81983,34.71875 63.96827,50.51953 7.37109,5.26172 12.46875,12.41407 15.43359,20.96485 5.59766,16.14062 -14.27637,28.60058 -27.50683,15.64746 -10.73047,-10.50391 -12.12549,-13.92188 -51.21534,-81.30469 -0.64453,-1.11719 -1.55127,-2.8042 -2.40673,-4.53076 -0.4043,-0.81445 0.26422,-1.60639 0.99755,-1.60401 z m 106.25683,77.33497 c 4.43752,-0.13104 9.21778,2.08203 16.96436,5.29247 2.58593,1.07423 3.02734,4.54249 0.79688,6.22999 -14.44923,10.91016 -29.01465,21.91016 -43.81935,33.09375 -2.29687,1.73047 -5.57812,1.21924 -7.21875,-1.14404 -1.53515,-2.21094 -3.12499,-4.5005 -4.72265,-6.80127 -1.73047,-2.48828 -1.47754,-5.84766 0.61231,-8.03906 5.74218,-6.01563 16.1875,-16.60059 29.20312,-25.57325 2.98243,-2.05664 5.52157,-2.97997 8.18408,-3.05859 z m 34.5293,11.17968 c 1.98431,0.002 4.06104,0.27442 6.25635,0.85547 5.52734,1.46485 11.30469,1.9878 16.95703,2.51515 2.26562,0.21483 2.96826,3.1875 1.03857,4.39452 -11.60156,7.26172 -23.3833,14.23829 -34.30517,22.3711 -11.48438,8.55469 -22.01124,18.38671 -33.06592,28.04296 -1.94922,1.70704 -4.9458,1.375 -6.49658,-0.70312 -3.17188,-4.25 -6.31202,-8.45752 -9.81592,-13.15283 -1.44531,-1.93359 -1.08643,-4.66748 0.81592,-6.15967 13.16406,-10.32422 31.52832,-23.9292 42.55957,-32.08154 4.9834,-3.68262 10.10321,-6.08973 16.05615,-6.08204 z m -142.2583,9.0791 c 5.96125,-0.0617 11.89868,1.54322 15.91992,7.49415 28.88281,42.73828 21.33692,30.70361 41.72754,62.00829 0.71094,1.08985 -0.53125,2.4214 -1.65234,1.75343 -0.004,-0.004 -0.0156,-0.008 -0.0234,-0.0117 -62.14844,-37.32421 -37.68408,-22.60937 -71.82861,-46.10156 -3.73047,-2.5625 -5.02296,-6.04248 -3.71046,-10.10889 2.46485,-7.625 7.49121,-13.8208 15.45996,-14.7583 1.35498,-0.15893 2.73175,-0.26115 4.10742,-0.27539 z m -30.00732,25.01075 c 4.21658,0.04 8.48766,1.3894 12.29882,4.40625 21.5586,17.07031 39.50342,25.71875 68.5503,44.15625 1.60546,1.02343 0.73096,3.53418 -1.15577,3.30762 -0.39453,-0.0469 -0.78857,-0.10059 -1.1792,-0.167 -70.83593,-12 -43.75488,-6.94971 -91.708,-19.18798 -6.4375,-1.64062 -10.26172,-7.58936 -9.503905,-13.15577 1.499265,-11.01428 11.922045,-19.4618 22.697755,-19.35937 z"
     id="path2" />
  <path
     style="fill:#000000;fill-opacity:1;fill-rule:nonzero;stroke:none;stroke-width:1"
     d="m 600,402.69873 c -19.75781,0.0234 -31.99951,22.92578 -31.44873,39.90235 -0.0508,3.52343 0.085,6.92236 0.085,9.90673 -5.63672,-5.38281 -8.67139,-8.12109 -15.13623,-10.38281 -5.22266,-1.82813 -14.0083,-0.76611 -18.44971,1.07373 -4.4414,1.83984 -11.40234,7.30127 -13.80468,12.28564 -2.97266,6.17188 -3.18311,10.25391 -3.3589,18.04688 -2.11327,-2.11328 -4.41747,-4.60937 -6.94482,-7.06641 -11.61718,-12.39453 -36.46533,-19.93359 -50.4536,-5.97655 -13.95704,13.98827 -6.41798,38.83642 5.97655,50.4536 2.45704,2.52735 4.95313,4.83155 7.06641,6.94482 -7.79297,0.17579 -11.875,0.38624 -18.04688,3.3589 -4.98437,2.40234 -10.4458,9.36328 -12.28564,13.80468 -1.83984,4.44141 -2.90186,13.22705 -1.07373,18.44971 2.26172,6.46484 5,9.49951 10.38281,15.13623 -2.98437,0 -6.3833,-0.13574 -9.90673,-0.085 -16.97657,-0.55078 -39.87891,11.69092 -39.90235,31.44873 10e-4,1.0753 0.0832,2.12387 0.21533,3.15381 h 8.72608 C 411.43089,602.0983 411.3208,601.04908 411.3208,600 c 0,-2.95703 0.83155,-5.92236 2.50341,-9.02783 7.47657,-13.89453 23.38331,-18.09278 37.36378,-16.38575 11.75781,1.4375 23.29297,4.61231 34.95703,6.88184 27.32031,5.31641 54.65137,11.33252 82.26856,16.85595 0.92187,0.18361 1.37988,0.9297 1.37988,1.67579 0,0.74609 -0.45801,1.49219 -1.37988,1.67579 -2.43915,0.48782 -4.87322,0.98333 -7.30812,1.47802 h 44.72901 v -55.12647 c -1.40434,6.78109 -2.79635,13.57456 -4.15868,20.38624 -0.18361,0.92187 -0.9297,1.37988 -1.67579,1.37988 -0.74609,0 -1.49219,-0.45801 -1.67579,-1.37988 -5.52343,-27.61719 -11.53954,-54.94825 -16.85595,-82.26856 -2.26953,-11.66016 -5.44434,-23.19922 -6.88184,-34.95704 -1.70703,-13.98046 2.49122,-29.8872 16.38575,-37.36377 3.10547,-1.66796 6.0708,-2.50341 9.02783,-2.50341 1.92905,0 3.86189,0.36184 5.83447,1.07226 v -8.98388 c -1.8636,-0.45317 -3.80686,-0.70804 -5.83447,-0.71045 z m -55.37988,47.87842 c 8.77514,-0.0584 21.71142,4.20044 26.59424,18.31787 6.72656,19.44922 8.72705,29.88184 20.48876,93.79981 0.89454,4.8789 1.21875,9.79345 1.61719,14.71142 0.10157,1.26172 -0.63281,2.21534 -1.59375,2.61767 -0.96484,0.39844 -2.16064,0.24122 -2.98095,-0.72363 -3.19532,-3.75781 -6.44141,-7.45995 -9.25782,-11.5459 -36.8789,-53.51172 -42.84326,-62.30469 -51.83935,-80.8125 -8.35548,-17.19921 4.03857,-32.30566 10.84717,-35.42285 1.53637,-0.57165 3.66746,-0.92554 6.12451,-0.94189 z m -61.50587,10.12793 c 11.87336,-0.0686 22.58008,7.08643 29.63233,16.10009 7.29688,9.32813 13.20654,19.73389 19.84717,29.58545 15.5625,23.07423 30.6333,46.65625 46.2583,70.08984 0.51953,0.78126 0.31641,1.63331 -0.21094,2.16065 -0.52734,0.52735 -1.37939,0.73047 -2.16065,0.21094 -23.43359,-15.625 -47.01561,-30.6958 -70.08984,-46.2583 -9.85156,-6.64063 -20.25732,-12.55029 -29.58545,-19.84717 -11.09374,-8.67969 -19.37206,-22.89502 -14.833,-38.00829 1.01562,-3.37891 2.52051,-6.06202 4.61425,-8.15187 2.08985,-2.09374 4.77296,-3.59863 8.15187,-4.61425 2.83373,-0.85107 5.63596,-1.25125 8.37596,-1.26709 z m -8.52538,64.15576 c 3.88348,-0.0934 8.05322,0.69873 12.35302,2.7876 18.50781,8.99609 27.30078,14.96045 80.8125,51.83935 4.08594,2.81641 7.78809,6.0625 11.5459,9.25782 0.96485,0.82031 1.12207,2.01611 0.72363,2.98095 -0.40233,0.96485 -1.35595,1.69923 -2.61767,1.59375 -4.91797,-0.39843 -9.83252,-0.72265 -14.71142,-1.61718 -63.91797,-11.75781 -74.35059,-13.7583 -93.79981,-20.48877 -18.07031,-6.25 -19.98926,-25.69532 -17.37598,-32.71875 2.3379,-5.10645 11.41937,-13.35462 23.06983,-13.63477 z"
     id="path4" />
  <path
     id="path12"
     d="M 335.27734,599.36719 C 335.76953,585.34766 355.61719,582.90234 355.5,600 c 0.11719,17.09766 -19.73047,14.65234 -20.22266,0.63281 -0.008,-0.16797 -0.0117,-0.40234 -0.0117,-0.63281 0,-0.23047 0.004,-0.46484 0.0117,-0.63281 z m 11.25,17.28906 c 1.97657,-0.0937 4.02344,-0.94141 5.94141,-2.27344 4.94922,-3.42969 7.42187,-8.90625 7.42187,-14.38281 0,-5.47656 -2.47265,-10.95313 -7.42187,-14.38281 -1.91797,-1.33203 -3.96484,-2.17969 -5.94141,-2.27344 -8.23828,-0.39844 -15.53125,6.83594 -15.91797,15.79297 -0.0117,0.26172 -0.0195,0.5625 -0.0195,0.86328 0,0.30078 0.008,0.60156 0.0195,0.86328 0.38672,8.95703 7.67969,16.19141 15.91797,15.79297"
     style="fill:#000000;fill-opacity:1;fill-rule:nonzero;stroke:none" />
  <path
     id="path14"
     d="m 600,355.5 c -17.09766,0.11719 -14.65234,-19.73047 -0.63281,-20.22266 0.16797,-0.008 0.40234,-0.0117 0.63281,-0.0117 0.23047,0 0.46484,0.004 0.63281,0.0117 C 614.65234,335.76953 617.09766,355.61719 600,355.5 Z m 0.86328,-24.89063 c -0.26172,-0.0117 -0.5625,-0.0195 -0.86328,-0.0195 -0.30078,0 -0.60156,0.008 -0.86328,0.0195 -8.95703,0.38672 -16.19141,7.67969 -15.79297,15.91797 0.0937,1.97657 0.94141,4.02344 2.27344,5.94141 3.42968,4.94922 8.90625,7.42187 14.38281,7.42187 5.47656,0 10.95312,-2.47265 14.38281,-7.42187 1.33203,-1.91797 2.17969,-3.96484 2.27344,-5.94141 0.39844,-8.23828 -6.83594,-15.53125 -15.79297,-15.91797"
     style="fill:#000000;fill-opacity:1;fill-rule:nonzero;stroke:none" />
  <path
     id="path16"
     d="m 427.11328,427.11328 c -12.00781,12.17188 -24.3125,-3.59375 -14.75,-13.85547 0.11719,-0.12109 0.28125,-0.28906 0.44141,-0.45312 0.16406,-0.16407 0.33203,-0.32422 0.45312,-0.44141 10.26172,-9.5625 26.02735,2.74219 13.85547,14.75 z m 5.43359,-18.125 c -5.54687,-6.10547 -15.8164,-6.14453 -22.42578,-0.0859 -0.19531,0.17578 -0.41015,0.38282 -0.62109,0.59766 -0.21484,0.21094 -0.42188,0.42578 -0.59766,0.62109 -6.05859,6.60938 -6.01953,16.87891 0.0859,22.42578 1.46484,1.33204 3.51172,2.17579 5.80859,2.59375 5.92579,1.07422 11.54688,-1.05078 15.42188,-4.92187 3.87109,-3.875 5.99609,-9.49609 4.92187,-15.42188 -0.41796,-2.29687 -1.26562,-4.34375 -2.59375,-5.80859"
     style="fill:#000000;fill-opacity:1;fill-rule:nonzero;stroke:none" />
</svg>
