<?xml version="1.0" encoding="UTF-8" standalone="no"?>
<svg
   xmlns:dc="http://purl.org/dc/elements/1.1/"
   xmlns:cc="http://creativecommons.org/ns#"
   xmlns:rdf="http://www.w3.org/1999/02/22-rdf-syntax-ns#"
   xmlns:svg="http://www.w3.org/2000/svg"
   xmlns="http://www.w3.org/2000/svg"
   id="svg23"
   version="1.2"
   viewBox="0 0 1200 1200"
   height="1200pt"
   width="1200pt">
  <metadata
     id="metadata29">
    <rdf:RDF>
      <cc:Work
         rdf:about="">
        <dc:format>image/svg+xml</dc:format>
        <dc:type
           rdf:resource="http://purl.org/dc/dcmitype/StillImage" />
        <dc:title></dc:title>
      </cc:Work>
    </rdf:RDF>
  </metadata>
  <defs
     id="defs27" />
  <path
     id="path2"
     transform="scale(0.75)"
     d="M 112.45312 72.773438 L 106.86523 74.84375 C 108.01291 79.657203 109.1828 84.678814 110.37109 89.996094 C 110.92317 92.470054 107.73177 94.018237 106.16406 92.023438 C 105.83594 91.611984 105.51822 91.190093 105.21094 90.757812 C 101.27535 85.216226 100.09551 83.555156 96.880859 79.035156 L 90.080078 82.300781 C 93.285558 86.860061 95.836318 90.509547 99.705078 95.992188 C 100.16341 96.643254 99.996748 97.366533 99.548828 97.814453 C 99.100908 98.262373 98.377629 98.429036 97.726562 97.970703 C 92.327536 94.160943 88.747021 91.658254 84.244141 88.492188 L 80.878906 95.224609 C 85.365468 98.415463 87.002401 99.577776 92.492188 103.47656 C 92.924481 103.78386 93.346359 104.10157 93.757812 104.42969 C 95.752612 105.99739 94.204429 109.1888 91.730469 108.63672 C 84.139349 106.94028 77.26585 105.30027 70.65625 103.69141 L 70.929688 109.82812 C 77.887101 111.56159 85.04812 113.34709 94.371094 115.67383 C 94.38176 115.67383 94.39585 115.67773 94.40625 115.67773 C 96.088543 116.10483 96.004534 118.53125 94.306641 118.89062 C 83.780187 121.11223 77.345229 122.44488 71.544922 123.63281 L 71.835938 130.13281 C 82.872299 127.98427 93.894136 125.84179 105.41602 123.57812 C 107.75976 123.11979 110.16145 122.92643 114.15625 122.40039 C 113.9858 127.25883 113.83072 131.69076 113.66797 136.33203 L 120.10938 136.20703 C 120.01151 133.26351 119.94229 130.79434 119.83398 127.71289 C 119.74025 125.04622 120.29233 122.35351 120.59961 119.08789 C 120.67254 119.08256 120.73959 119.08408 120.8125 119.08008 C 120.81783 119.00714 120.82227 118.94011 120.82227 118.86719 C 123.67969 118.59831 126.09881 118.1408 128.44531 118.09375 C 128.78051 118.08708 129.11393 118.08956 129.44727 118.10156 C 131.01323 118.15663 132.23373 118.18797 133.76367 118.24023 L 134.01953 112.07617 C 130.69251 112.19284 127.58194 112.30289 124.13477 112.42383 C 124.66081 108.42903 124.85417 106.02735 125.3125 103.68359 C 126.05875 99.885234 126.74019 96.357895 127.47266 92.613281 L 122.75781 82.337891 C 122.00344 85.944211 121.62411 87.840285 120.625 92.574219 C 120.26565 94.272125 117.83919 94.356148 117.41211 92.673828 C 117.41211 92.663161 117.4082 92.647119 117.4082 92.636719 C 115.43646 84.736172 113.99323 78.951304 112.45312 72.773438 z "
     style="fill:#000000;fill-opacity:1;fill-rule:nonzero;stroke:none;stroke-width:1.33333337" />
</svg>
