<?xml version="1.0" encoding="UTF-8" standalone="no"?>
<!-- Created with Inkscape (http://www.inkscape.org/) -->

<svg
   xmlns:dc="http://purl.org/dc/elements/1.1/"
   xmlns:cc="http://creativecommons.org/ns#"
   xmlns:rdf="http://www.w3.org/1999/02/22-rdf-syntax-ns#"
   xmlns:svg="http://www.w3.org/2000/svg"
   xmlns="http://www.w3.org/2000/svg"
   xmlns:sodipodi="http://sodipodi.sourceforge.net/DTD/sodipodi-0.dtd"
   xmlns:inkscape="http://www.inkscape.org/namespaces/inkscape"
   version="1.1"
   id="svg815"
   width="235.60001"
   height="266.64001"
   viewBox="0 0 235.60001 266.64001"
   sodipodi:docname="leaves2.svg"
   inkscape:version="0.92.3 (2405546, 2018-03-11)">
  <metadata
     id="metadata821">
    <rdf:RDF>
      <cc:Work
         rdf:about="">
        <dc:format>image/svg+xml</dc:format>
        <dc:type
           rdf:resource="http://purl.org/dc/dcmitype/StillImage" />
        <dc:title />
      </cc:Work>
    </rdf:RDF>
  </metadata>
  <defs
     id="defs819" />
  <sodipodi:namedview
     pagecolor="#ffffff"
     bordercolor="#666666"
     borderopacity="1"
     objecttolerance="10"
     gridtolerance="10"
     guidetolerance="10"
     inkscape:pageopacity="0"
     inkscape:pageshadow="2"
     inkscape:window-width="1920"
     inkscape:window-height="1025"
     id="namedview817"
     showgrid="false"
     inkscape:zoom="2.2886031"
     inkscape:cx="258.32989"
     inkscape:cy="101.53191"
     inkscape:window-x="0"
     inkscape:window-y="27"
     inkscape:window-maximized="1"
     inkscape:current-layer="svg815" />
  <path
     style="fill:#000000;stroke-width:0.08000001"
     d="M 33.09375 0.46289062 C 16.61433 0.46289062 12.479774 0.482605 12.527344 0.5625 C 12.671314 0.804347 13.878503 2.3777435 14.908203 3.6640625 C 18.416083 8.0461605 23.128163 13.58469 24.658203 15.125 C 26.198713 16.675855 28.908629 18.859165 31.037109 20.263672 C 35.489219 23.201454 40.061445 24.888475 44.609375 25.271484 C 48.628205 25.609933 53.066608 24.519136 56.517578 22.345703 C 58.840518 20.882708 61.195968 18.652162 62.580078 16.605469 C 62.809678 16.265956 63.038001 15.987815 63.087891 15.986328 C 63.269851 15.980902 64.801126 16.658638 66.597656 17.539062 L 68.4375 18.439453 L 68.707031 19.191406 C 70.808051 25.057083 76.03714 29.382178 82.78125 30.830078 C 83.4233 30.967922 83.457624 30.987492 83.771484 31.378906 C 83.950234 31.601836 84.511488 32.406425 85.017578 33.167969 L 85.9375 34.552734 L 85.787109 34.888672 C 85.408169 35.736598 83.909742 37.711265 83.263672 38.214844 C 83.078262 38.359372 83.06972 38.356851 82.15625 37.806641 C 80.98224 37.099504 80.434402 36.820895 79.044922 36.226562 C 76.620682 35.189628 73.438732 34.259774 71.076172 33.898438 C 69.655302 33.681126 66.689198 33.598918 65.304688 33.738281 C 61.696607 34.101465 57.923833 35.558959 53.814453 38.173828 C 52.488423 39.017605 51.171317 39.944482 46.117188 43.591797 C 34.209747 52.184803 28.270726 56.231035 26.009766 57.289062 L 25.488281 57.533203 L 26.203125 57.763672 C 29.579605 58.854558 38.775877 60.641627 48.117188 62.023438 C 53.599187 62.834361 55.416042 62.993026 58.357422 62.914062 C 66.197872 62.703584 72.173583 60.976632 76.814453 57.582031 C 77.847463 56.826433 79.559135 55.135251 80.296875 54.142578 C 82.153045 51.64502 83.239994 48.926017 83.683594 45.664062 C 83.907874 44.014886 83.756155 41.086152 83.359375 39.402344 L 83.205078 38.744141 L 83.419922 38.587891 C 84.133872 38.073914 85.643151 36.428871 86.244141 35.507812 C 86.369961 35.314971 86.373283 35.318616 86.939453 36.351562 C 89.098243 40.290166 90.765505 45.248683 91.546875 50.0625 C 92.034835 53.06871 92.186296 55.080287 92.179688 58.423828 C 92.174317 61.144262 92.088969 62.583272 91.787109 65.017578 L 91.654297 66.09375 L 90.978516 67.498047 C 89.607066 70.349907 88.066706 73.725762 86.816406 76.623047 C 86.020376 78.467655 84.987384 80.201609 84.058594 81.251953 C 82.725884 82.759073 78.149806 87.034393 75.853516 88.917969 C 73.325046 90.991998 72.808067 91.379434 70.466797 92.964844 C 66.769827 95.468274 62.849423 97.351446 59.345703 98.304688 C 54.704243 99.567457 50.194173 99.341753 47.033203 97.689453 L 46.349609 97.332031 L 46.382812 96.585938 C 46.421864 95.692918 46.290019 94.232082 46.074219 93.169922 C 45.630609 90.986562 44.561065 88.779861 43.109375 87.050781 C 40.368415 83.786069 35.728096 81.740255 29.978516 81.261719 C 28.435536 81.133295 24.420122 81.199289 23.007812 81.376953 C 20.998893 81.629665 16.468579 82.614378 10.787109 84.03125 C 6.8347795 85.016906 1.5671844 86.582322 0.36523438 87.128906 L -0.02734375 87.306641 L 0.76953125 87.648438 C 2.7596313 88.498204 7.6629727 91.321186 16.476562 96.691406 C 21.634222 99.834026 22.229967 100.18447 23.716797 100.95117 C 28.092547 103.2076 31.48107 103.91237 35.40625 103.38086 C 38.78145 102.92382 42.994319 101.21433 45.730469 99.191406 L 45.974609 99.009766 L 46.445312 99.246094 C 47.662592 99.856994 49.753877 100.37038 51.716797 100.54102 C 54.405777 100.77477 57.843617 100.24835 61.060547 99.109375 C 61.535187 98.941335 61.913031 98.814152 61.900391 98.826172 C 61.887751 98.838182 61.562144 99.078508 61.177734 99.361328 C 60.226014 100.06154 59.025814 101.1813 58.458984 101.89453 C 57.896154 102.60272 57.568499 103.22667 57.443359 103.83203 L 57.351562 104.2793 L 56.013672 104.33008 C 52.493812 104.46236 49.344994 105.24187 46.277344 106.74023 C 41.279774 109.18124 37.991974 112.93448 36.183594 118.26367 C 35.383514 120.62145 34.980594 123.06348 34.902344 126.02344 C 34.792244 130.18806 35.513111 135.02266 36.800781 138.74414 C 38.172941 142.70979 41.737629 151.56493 43.755859 156.02344 C 44.965309 158.69528 47.044503 162.91322 47.601562 163.82422 C 47.830253 164.19822 48.064457 164.59168 48.123047 164.69922 C 48.201147 164.84256 48.240181 164.86399 48.269531 164.7793 C 48.291551 164.71576 48.38124 164.44627 48.46875 164.17969 C 49.31042 161.6157 52.606028 155.23275 60.117188 141.62305 C 63.685428 135.15765 64.337867 133.92733 65.060547 132.30273 C 67.997967 125.69928 68.259425 120.62359 65.953125 114.93359 C 64.723515 111.89996 62.417424 108.31962 60.083984 105.82031 C 59.241764 104.91821 59.202972 104.83721 59.169922 103.89258 C 59.140622 103.0551 60.397339 101.25479 62.287109 99.421875 C 63.541989 98.204745 63.843171 97.96906 64.556641 97.65625 C 64.886641 97.51158 66.067851 96.869146 67.181641 96.228516 C 71.614081 93.679046 75.714726 90.417517 80.660156 85.507812 L 83.283203 82.904297 L 82.230469 84.744141 C 79.219139 90.009709 76.698728 95.017186 74.798828 99.503906 C 74.003068 101.38313 74.097083 101.12715 73.064453 104.18359 C 70.981053 110.35021 69.520459 117.81702 69.074219 124.58398 C 68.326819 135.91762 69.359697 147.6133 72.242188 160.44531 C 76.179888 177.97478 83.785942 197.6266 93.857422 216.29297 L 94.736328 217.92188 L 94.681641 218.65234 C 94.192181 225.2356 92.226421 231.99726 89.332031 237.05273 L 88.970703 237.68359 L 88.751953 237.33398 C 88.250893 236.53624 86.891831 235.06557 86.087891 234.45117 L 85.818359 234.24414 L 85.988281 233.52344 C 86.444231 231.58131 86.522022 228.4526 86.164062 226.42383 C 85.305323 221.55681 82.678156 217.53003 78.597656 214.82812 C 73.973986 211.76658 68.255601 210.24028 60.837891 210.08789 C 57.813991 210.02576 56.685541 210.1165 51.957031 210.79102 C 42.865291 212.08796 33.490908 213.85513 29.517578 215.02344 C 29.055578 215.15929 28.538661 215.31103 28.369141 215.35938 L 28.060547 215.44727 L 28.609375 215.70117 C 28.911715 215.84121 29.713825 216.28993 30.390625 216.69727 C 33.691985 218.6842 38.315609 221.88633 49.037109 229.61328 C 51.479109 231.37322 54.015438 233.18796 54.673828 233.64453 C 61.852328 238.62251 67.485446 240.15179 74.304688 238.97852 C 78.064237 238.33167 82.583426 236.6437 85.253906 234.88672 C 85.756316 234.55616 85.745002 234.55106 86.576172 235.47852 C 87.298462 236.28447 87.854104 237.06851 88.240234 237.83203 L 88.546875 238.44141 L 87.824219 239.55273 C 87.426249 240.16388 86.873823 240.96975 86.595703 241.34375 L 86.089844 242.02344 L 85.222656 242.20898 C 82.944376 242.69917 80.099686 243.89263 78.197266 245.15625 C 74.974056 247.29716 72.787527 250.01706 71.404297 253.60547 L 71.058594 254.50391 L 69.546875 255.2793 C 68.164445 255.98987 65.887175 257.02344 65.703125 257.02344 C 65.661125 257.02344 65.477462 256.79844 65.294922 256.52344 C 64.339582 255.08421 62.370196 253.00234 60.916016 251.89453 C 54.628166 247.10439 47.065014 246.37321 39.083984 249.7832 C 34.659224 251.67372 29.632808 255.24596 26.367188 258.82227 C 25.123187 260.18463 20.845226 265.21962 19.447266 266.9668 C 19.343606 267.09636 20.523076 267.10352 40.572266 267.10352 L 61.806641 267.10352 L 62.375 266.24414 C 63.45458 264.60823 64.546046 262.52122 65.191406 260.86523 C 65.534556 259.9847 65.963716 258.59055 66.041016 258.10156 C 66.068926 257.925 66.132544 257.72546 66.183594 257.65625 C 66.234634 257.58703 66.600094 257.40879 66.996094 257.26172 C 67.392094 257.11464 68.380146 256.6953 69.191406 256.33008 C 70.002666 255.96485 70.675707 255.67548 70.685547 255.68555 C 70.695387 255.69562 70.618965 256.08097 70.515625 256.54297 C 69.879605 259.38632 69.762466 262.87156 70.197266 266.0625 C 70.260216 266.5245 70.313053 266.94891 70.314453 267.00391 C 70.317713 267.13274 115.19727 267.15226 115.19727 267.02344 C 115.19727 266.83245 114.03059 261.49295 113.70898 260.21094 C 112.30263 254.60501 110.14551 250.69759 106.93164 247.93555 C 104.54195 245.88182 102.16623 244.54729 98.556641 243.23047 C 96.385621 242.43844 94.305188 241.89927 92.517578 241.66602 C 92.121578 241.61436 91.685188 241.55687 91.548828 241.53711 L 91.300781 241.5 L 91.416016 241.08203 C 91.569406 240.51923 91.585193 238.82697 91.445312 238.02148 L 91.333984 237.37891 L 91.695312 236.74023 C 93.912313 232.82895 95.659633 228.07016 96.632812 223.29102 L 96.929688 221.83789 L 97.398438 222.65039 C 99.419326 226.14729 101.88991 230.13517 102.30469 230.57031 C 102.68327 230.96748 103.27241 231.26569 103.78711 231.32031 L 104.19727 231.36328 L 105.27344 233.21289 C 114.13182 248.43401 118.57188 256.79512 122.48633 265.625 C 122.98625 266.75268 123.17523 267.10352 123.28516 267.10352 C 123.45617 267.10352 123.45292 267.0927 122.26172 264.10352 C 119.05481 256.05619 114.45264 246.30227 107.80469 233.46484 L 106.23242 230.42773 L 106.43359 229.97461 C 106.66545 229.45793 106.70185 228.82767 106.52734 228.33398 C 106.46706 228.16345 105.96963 227.33991 105.42188 226.50391 C 103.40416 223.42455 101.1834 219.77568 99.021484 215.98828 L 97.677734 213.63281 L 97.673828 211.98828 C 97.672278 211.08369 97.638476 209.85954 97.597656 209.26758 C 97.556836 208.67562 97.531899 208.18099 97.542969 208.16992 C 97.554039 208.15885 98.008857 208.78737 98.554688 209.56641 C 100.03176 211.67458 103.5962 216.60407 107.64648 222.14258 C 113.72909 230.46018 115.62455 233.13525 118.36719 237.26367 C 124.97816 247.21498 128.12505 254.18779 128.99023 260.80664 C 129.23981 262.71602 129.23827 264.22083 128.98633 266.60352 L 128.93359 267.10352 L 129.21094 267.10352 L 129.48828 267.10352 L 129.58398 266.4043 C 129.79883 264.82432 129.85922 263.28724 129.76367 261.9082 C 129.42828 257.06788 127.95945 252.33969 124.91602 246.31055 C 121.85316 240.24289 118.5117 235.04311 108.99805 221.54297 C 101.81991 211.35701 98.674082 206.7622 95.419922 201.70312 C 89.414302 192.36647 84.223471 182.98588 81.082031 175.79297 C 76.417861 165.11346 74.387694 154.43762 74.583984 141.62305 C 74.647604 137.46985 74.807281 134.8942 75.244141 130.94336 C 76.541491 119.21051 79.685917 106.53017 84.591797 93.244141 C 85.258717 91.438011 85.58142 90.762069 89.40625 83.183594 C 91.7719 78.496317 92.482732 77.023695 94.138672 73.382812 C 95.273562 70.887529 97.175341 66.430759 98.082031 64.142578 L 98.826172 62.263672 L 100.06836 60.462891 C 101.30519 58.668358 104.35052 54.317841 105.75195 52.34375 C 106.15802 51.77175 106.51525 51.310279 106.54688 51.318359 C 106.57847 51.326438 106.80126 51.465306 107.04102 51.626953 C 108.31132 52.483396 110.07297 53.096703 112.08594 53.382812 C 113.59177 53.596844 121.70361 53.50851 122.13477 53.273438 C 122.19637 53.239849 122.04924 53.07519 121.73438 52.822266 C 121.46152 52.603108 120.39197 51.588824 119.35742 50.568359 L 117.47656 48.712891 L 117.75781 48.615234 C 118.3447 48.41078 120.39137 47.326555 121.17188 46.806641 C 122.20967 46.115341 123.18197 45.301312 125.47656 43.205078 C 127.30176 41.537654 130.43854 38.416236 130.94531 37.763672 L 131.21094 37.423828 L 130.02344 37.474609 C 129.37086 37.501994 127.68534 37.482176 126.27734 37.431641 C 123.44893 37.330125 118.69365 37.105756 118.66016 37.072266 C 118.64841 37.060513 118.746 36.730458 118.87891 36.337891 C 119.22637 35.311623 119.42095 34.279178 119.53125 32.863281 L 119.62695 31.623047 L 120.4375 30.183594 C 126.05038 20.212065 128.03025 12.710206 126.87109 5.8085938 C 126.61018 4.2551578 126.19681 2.826699 125.53711 1.203125 C 125.24747 0.49031303 125.22692 0.46293662 124.98438 0.46289062 L 124.73438 0.46289062 L 125.08984 1.3632812 C 128.06233 8.8521573 126.55219 17.376752 120.29492 28.410156 L 119.48633 29.835938 L 119.18945 28.169922 C 118.72945 25.572783 118.34325 23.695612 117.875 21.783203 C 117.4386 20.000856 116.98168 18.460697 116.88867 18.464844 C 116.86068 18.466092 116.71553 18.669718 116.56641 18.916016 C 116.00855 19.837374 114.08427 22.309307 111.125 25.904297 C 110.31006 26.894297 109.30289 28.115494 108.88867 28.619141 C 108.47445 29.122788 108.15774 29.464553 108.18359 29.378906 C 108.26178 29.119989 108.78211 25.648415 108.99219 23.984375 C 109.23652 22.049157 109.40114 20.511961 109.55469 18.71875 C 109.67109 17.359254 109.68281 17.305123 110.18555 15.837891 C 110.95837 13.582514 111.13162 12.866934 112.72656 5.34375 C 113.25359 2.85775 113.70372 0.74165612 113.72852 0.64257812 L 113.77539 0.46289062 L 91.347656 0.48242188 L 68.921875 0.50390625 L 68.742188 1.1425781 C 68.179917 3.1381151 67.702157 5.6211726 67.466797 7.7597656 C 67.168417 10.470909 67.336716 14.000459 67.878906 16.402344 C 67.988896 16.88956 68.067901 17.296418 68.056641 17.304688 C 68.045371 17.312957 67.425734 17.039607 66.677734 16.697266 C 65.929734 16.354925 64.957578 15.941784 64.517578 15.779297 C 63.642378 15.456097 63.491449 15.344404 63.449219 14.984375 C 63.401059 14.57369 62.887218 12.893532 62.548828 12.039062 C 61.846578 10.265815 60.318319 7.4659619 59.199219 5.9042969 C 57.921289 4.1209799 56.170221 2.3037961 54.582031 1.1113281 L 53.720703 0.46289062 L 33.09375 0.46289062 z M 94.003906 30.425781 C 94.111846 30.383036 94.15934 30.544527 94.3125 31.480469 C 94.69797 33.83586 95.049381 35.658156 95.275391 36.474609 C 96.106221 39.475962 97.69913 41.364188 100.5625 42.738281 C 101.49593 43.186217 103.25653 43.820144 103.57227 43.822266 C 103.66867 43.822914 103.76891 43.858312 103.79492 43.900391 C 103.82092 43.942471 103.57783 44.401002 103.25391 44.919922 C 101.17993 48.242538 98.179285 53.480843 95.921875 57.722656 C 95.471125 58.569656 95.088293 59.263672 95.070312 59.263672 C 95.052333 59.263672 95.037109 58.907243 95.037109 58.470703 C 95.037109 56.989986 94.688216 53.424828 94.353516 51.486328 C 93.405026 45.993006 91.700766 41.018656 89.228516 36.523438 L 88.697266 35.554688 L 88.794922 35.148438 C 88.947272 34.516876 88.989973 33.063539 88.876953 32.382812 C 88.721163 31.44455 88.717639 31.467347 89.037109 31.443359 C 90.090599 31.364256 93.291786 30.707787 94.003906 30.425781 z M 87.029297 31.328125 L 88.207031 31.351562 L 88.341797 31.580078 C 88.515977 31.87494 88.523502 33.003054 88.357422 33.871094 C 88.291952 34.213225 88.209628 34.522797 88.173828 34.558594 C 88.138038 34.594392 87.894363 34.28987 87.632812 33.882812 C 87.371274 33.475755 86.880696 32.754047 86.541016 32.279297 C 86.201336 31.804545 85.906119 31.390623 85.886719 31.359375 C 85.867319 31.328125 86.381647 31.315007 87.029297 31.328125 z M 194.32227 81.1875 C 193.95265 81.213373 193.56552 81.314981 193.22461 81.488281 C 192.31087 81.952761 191.3692 82.989014 190.62891 84.34375 C 190.43656 84.69575 189.84346 86.062814 189.3125 87.382812 L 188.34766 89.783203 L 187.55273 89.779297 C 186.18876 89.773121 185.49439 89.434434 184.99414 88.53125 C 184.7828 88.14969 184.75781 88.028834 184.75781 87.419922 C 184.75781 86.788634 184.78114 86.688429 185.0625 86.119141 C 185.57831 85.075469 186.39814 84.419177 187.43164 84.224609 C 187.87593 84.140969 188.23633 83.95981 188.23633 83.822266 C 188.23633 83.65101 187.79476 83.649662 187.16797 83.816406 C 185.56641 84.24247 184.19023 85.265592 183.875 86.263672 C 183.4138 87.723936 184.09926 89.145201 185.61133 89.863281 C 186.23969 90.161689 187.09727 90.380533 187.65625 90.382812 C 187.84325 90.38358 187.99805 90.402896 187.99805 90.425781 C 187.99805 90.538881 186.54563 93.255633 186.36719 93.476562 C 186.3616 93.483484 185.99664 93.461554 185.55664 93.427734 C 183.9543 93.304594 182.22901 93.551181 181.16992 94.056641 C 180.03495 94.598311 179.4895 95.246114 179.49023 96.052734 C 179.49073 96.593514 179.64155 96.912024 180.06836 97.277344 C 180.5242 97.667534 181.1153 97.860366 181.83789 97.853516 C 183.22549 97.840336 184.86817 96.804286 186.20898 95.097656 C 186.45275 94.787386 186.62612 94.63335 186.70898 94.65625 C 186.77892 94.6756 187.36005 94.804859 187.99805 94.943359 C 190.77755 95.546779 192.86491 96.746488 193.35547 98.023438 C 193.60446 98.671526 193.6614 99.652586 193.47852 100.14258 C 193.27123 100.69796 193.24443 100.87353 193.35742 100.94336 C 193.51422 101.04027 193.89303 100.87503 194.11328 100.61328 C 194.4822 100.17485 194.55341 99.635139 194.35352 98.787109 C 194.07093 97.588159 193.37596 96.666719 192.12109 95.824219 C 190.98442 95.061059 189.15747 94.238485 187.75781 93.859375 C 187.47181 93.781915 187.22478 93.707724 187.20898 93.695312 C 187.19318 93.682903 187.25042 93.570796 187.33789 93.447266 C 187.42537 93.323736 187.82266 92.575203 188.21875 91.783203 L 188.9375 90.34375 L 189.48828 90.201172 C 193.04008 89.281836 196.09583 85.894462 196.11328 82.857422 C 196.11739 82.143662 196.10143 82.073065 195.89844 81.806641 C 195.77863 81.649401 195.51488 81.439765 195.3125 81.341797 C 195.0428 81.211237 194.69188 81.161627 194.32227 81.1875 z M 148.83789 81.388672 C 147.45995 81.393848 147.14883 81.419199 146.59766 81.568359 C 145.55287 81.851119 144.56372 82.384099 143.93359 83.005859 C 143.20686 83.722939 142.99564 84.160895 142.99805 84.943359 C 143.00029 85.669423 143.17999 86.060534 143.76953 86.634766 C 144.24464 87.097542 144.79572 87.411893 146.27734 88.064453 C 148.71411 89.137685 149.33296 89.563791 149.74023 90.451172 C 149.91221 90.825892 149.93112 90.963358 149.90039 91.548828 C 149.86961 92.135278 149.82467 92.300438 149.53125 92.892578 C 148.63989 94.691418 146.56994 95.925657 143.79688 96.310547 C 142.80005 96.448897 141.28192 96.304383 140.23633 95.970703 C 138.30366 95.353933 137.37415 93.945596 137.59766 91.978516 C 137.75599 90.585116 138.3053 89.457172 139.31055 88.464844 C 139.64373 88.135948 139.91797 87.821729 139.91797 87.765625 C 139.91797 87.614937 139.55424 87.642223 139.20898 87.818359 C 138.42233 88.219679 137.65791 89.030091 137.08398 90.074219 C 135.84663 92.3253 136.34751 94.531486 138.39844 95.867188 C 139.16557 96.366797 140.14364 96.724875 141.19727 96.890625 C 141.30727 96.907925 141.95733 96.925651 142.64258 96.931641 C 144.42022 96.947181 145.79722 96.682344 147.17773 96.058594 C 148.4813 95.469604 150.05162 94.163069 150.80078 93.042969 C 151.82921 91.505349 151.71536 90.163497 150.45508 88.974609 C 149.94329 88.491809 149.71135 88.355214 147.72461 87.382812 C 145.07342 86.085205 144.60039 85.72178 144.4375 84.853516 C 144.34457 84.358108 144.52396 83.925258 145.0293 83.419922 C 145.73547 82.713746 146.74184 82.27301 148.23633 82.017578 C 149.55581 81.792066 150.63541 82.009836 151.27734 82.632812 C 151.8115 83.151196 151.95154 83.635826 151.72266 84.183594 C 151.58954 84.502194 151.23532 84.74302 150.80078 84.8125 C 150.4571 84.86746 150.28964 85.020947 150.36328 85.212891 C 150.43094 85.389187 150.6955 85.377339 151.23242 85.171875 C 152.47724 84.695507 152.95723 83.601957 152.36523 82.591797 C 152.08855 82.119669 151.73741 81.857287 151.02148 81.595703 C 150.45929 81.390287 150.3793 81.382888 148.83789 81.388672 z M 194.62695 82.246094 C 194.73179 82.231596 194.83031 82.234835 194.92188 82.257812 C 195.15409 82.316093 195.22217 82.531472 195.20508 83.152344 C 195.14124 85.473072 192.93362 88.210702 190.22266 89.330078 C 189.34263 89.693446 189.32124 89.683131 189.60352 89.060547 C 190.02472 88.131635 191.31954 85.721814 191.77148 85.023438 C 192.85431 83.350193 193.89312 82.347578 194.62695 82.246094 z M 165.10938 87.398438 C 164.90659 87.409592 164.69587 87.509208 164.50977 87.695312 C 164.16482 88.040266 164.13493 88.449383 164.43359 88.748047 C 165.09328 89.407735 166.27958 88.325629 165.65625 87.632812 C 165.50548 87.465238 165.31216 87.387283 165.10938 87.398438 z M 160.32422 87.539062 C 160.12112 87.557548 159.93108 87.7147 159.8418 88.042969 C 159.79688 88.208145 159.64962 88.774541 159.51367 89.300781 C 159.07988 90.979906 158.34588 92.653864 157.4707 93.958984 C 157.09554 94.518434 157.05162 94.744141 157.31836 94.744141 C 157.67791 94.744141 158.76579 92.912544 159.44531 91.164062 L 159.7168 90.464844 L 160.03711 90.464844 C 160.21311 90.464754 160.48272 90.526186 160.63672 90.603516 C 161.00433 90.788126 160.98475 90.926181 160.45508 91.894531 C 159.43297 93.763141 159.33794 94.589141 160.07227 95.207031 C 160.58021 95.634431 161.15509 95.465255 161.89648 94.671875 C 162.37761 94.157015 162.39648 94.146771 162.39648 94.369141 C 162.39648 94.682051 162.70011 95.112903 163.03906 95.283203 C 163.39875 95.463923 163.80945 95.461161 164.17383 95.275391 L 164.46484 95.126953 L 164.38867 95.326172 C 164.34702 95.435702 164.32175 95.534502 164.33398 95.544922 C 164.34621 95.555342 164.62633 95.517707 164.95508 95.460938 C 165.64313 95.342118 165.58918 95.394593 166.30469 94.158203 C 166.9523 93.039143 167.68484 92.112592 168.37305 91.544922 C 169.27937 90.797342 169.55589 90.837611 169.09375 91.650391 C 168.38204 92.902101 168.13178 93.516956 168.0957 94.103516 C 168.06558 94.593276 168.08444 94.698479 168.25 94.943359 C 168.83459 95.808009 169.94208 95.612398 170.80078 94.492188 L 171.17773 94 L 171.27539 94.332031 C 171.4187 94.811161 171.62812 95.065808 172.04492 95.267578 C 172.37678 95.428228 172.45193 95.437106 172.82422 95.353516 C 173.07066 95.298186 173.37764 95.149082 173.58789 94.982422 C 174.00579 94.651162 174.68198 93.825516 175.12695 93.103516 L 175.44727 92.583984 L 175.39648 93.263672 C 175.33923 94.016852 175.08023 95.413406 174.98047 95.509766 C 174.94531 95.543716 174.32366 95.773634 173.59766 96.021484 C 172.87166 96.269344 171.80833 96.701502 171.23633 96.982422 C 169.60049 97.785812 168.95703 98.473466 168.95703 99.416016 C 168.95703 100.19921 169.34238 100.64578 170.13672 100.78125 C 171.47845 101.01008 173.04692 100.223 174.44531 98.617188 C 174.95368 98.033407 175.75086 96.734106 176.00977 96.066406 C 176.15645 95.688116 176.24683 95.579859 176.57812 95.380859 C 177.30113 94.946589 177.81644 94.263969 178.58789 92.724609 C 178.90543 92.090959 178.93066 91.967704 178.76953 91.833984 C 178.62178 91.711354 178.50237 91.861821 178.04688 92.744141 C 177.58759 93.633791 177.2377 94.113731 176.79688 94.462891 C 176.52686 94.676741 176.46654 94.701085 176.50195 94.578125 C 176.73101 93.782645 176.81862 92.089513 176.68164 91.126953 C 176.62258 90.711963 176.62113 90.710499 176.36914 90.755859 C 175.76076 90.865359 175.57554 91.026728 175.31055 91.673828 C 174.48456 93.690858 172.8446 95.257393 172.34961 94.501953 C 171.93974 93.876423 172.80941 92.037346 174.15039 90.697266 C 174.7982 90.049901 175.31842 89.742165 175.76172 89.744141 C 176.10752 89.745685 176.1645 89.78564 176.42969 90.208984 C 176.68481 90.616233 176.93729 90.643219 177.05859 90.277344 C 177.1522 89.995024 176.94638 89.746731 176.35742 89.435547 C 176.0112 89.252619 175.85952 89.225249 175.23633 89.224609 C 174.58116 89.223937 174.46793 89.248164 173.96875 89.492188 C 173.08667 89.923411 172.07017 91.094 171.54688 92.28125 C 171.10763 93.2778 170.23051 94.540101 169.83594 94.744141 C 169.70896 94.809811 169.53159 94.863281 169.44141 94.863281 C 169.30001 94.863281 169.27734 94.813567 169.27734 94.498047 C 169.27734 93.929937 169.61785 93.040253 170.48242 91.351562 C 170.91949 90.497873 171.27734 89.746745 171.27734 89.681641 C 171.27734 89.370865 169.9561 89.867202 168.88086 90.582031 C 168.58727 90.777211 168.07038 91.211105 167.73242 91.546875 L 167.11719 92.158203 L 167.44922 91.570312 C 167.95995 90.667573 168.14403 90.393655 168.49609 90.011719 C 168.67481 89.817839 168.80056 89.64041 168.77734 89.617188 C 168.75411 89.593963 168.47992 89.553656 168.16602 89.527344 L 167.59375 89.480469 L 167.29492 89.798828 C 167.13061 89.973724 166.56726 90.911093 166.04297 91.882812 C 165.02906 93.761973 164.59996 94.415476 164.19727 94.691406 C 163.92015 94.881296 163.60011 94.914558 163.45312 94.767578 C 163.21923 94.533678 163.3535 94.036808 164.16602 92.142578 C 164.60955 91.108578 165.01198 90.142197 165.06055 89.994141 C 165.1917 89.594349 165.02041 89.503906 164.13281 89.503906 L 163.41797 89.503906 L 163.54883 89.701172 C 163.74974 90.007804 163.71007 90.223254 163.23438 91.412109 C 162.39644 93.506259 161.40309 94.940519 160.92188 94.755859 C 160.74529 94.688089 160.76185 94.242645 160.96289 93.640625 C 161.05425 93.367005 161.43485 92.509022 161.80859 91.732422 C 162.32729 90.654652 162.48248 90.255349 162.46289 90.050781 L 162.4375 89.783203 L 161.35742 89.810547 L 160.27734 89.839844 L 160.52734 89.572266 C 160.87495 89.20117 161.03711 88.848547 161.03711 88.462891 C 161.03711 87.863446 160.66271 87.508254 160.32422 87.539062 z M 214.28125 88.923828 C 213.48174 88.935916 213.14218 89.34222 212.00195 91.644531 C 211.40372 92.852441 211.11259 93.355816 210.98047 93.416016 C 210.7487 93.521616 210.47696 93.958634 210.47656 94.226562 C 210.47604 94.584834 209.69903 95.22868 209.08984 95.375 C 208.79828 95.44502 208.3841 95.310033 208.25391 95.101562 C 208.09291 94.843762 208.05092 94.290909 208.1543 93.792969 C 208.25885 93.289349 208.24019 93.30426 209.07617 93.0625 C 209.79456 92.85474 210.29763 92.573826 210.79688 92.097656 C 211.29963 91.618106 211.57418 91.138748 211.64648 90.611328 C 211.68846 90.305017 211.66475 90.222563 211.48242 90.005859 C 210.20883 88.492283 206.95703 91.503826 206.95703 94.197266 C 206.95703 95.067216 207.50299 95.746259 208.31641 95.886719 C 209.01048 96.006559 209.68095 95.830444 210.29297 95.365234 L 210.55078 95.169922 L 210.79688 95.451172 C 211.06809 95.760062 211.38557 95.894503 211.87695 95.908203 C 212.51674 95.926033 213.96323 95.765374 214.23633 95.646484 C 214.83706 95.384974 215.71323 94.23574 216.27539 92.96875 C 216.50249 92.45692 216.49281 92.302734 216.23828 92.302734 C 216.12981 92.302734 215.94109 92.578133 215.54297 93.314453 C 214.79591 94.696133 214.31819 95.215573 213.64648 95.376953 C 213.42157 95.430993 213.42554 95.422993 213.78906 95.007812 C 214.59238 94.090304 214.64848 93.361431 214.0293 91.894531 C 213.61851 90.921301 213.54629 90.307355 213.78906 89.837891 C 213.95879 89.509659 214.1468 89.419239 214.60938 89.443359 C 214.91383 89.459231 214.99733 89.435573 215.01953 89.328125 C 215.06132 89.125909 214.67993 88.917804 214.28125 88.923828 z M 156.86914 89.226562 C 156.78665 89.231729 156.70277 89.246485 156.61719 89.269531 C 156.22852 89.374187 155.30242 90.235346 154.81836 90.943359 C 154.62283 91.229359 154.48299 91.390734 154.50781 91.302734 C 154.61309 90.929564 154.71887 89.929641 154.67383 89.724609 C 154.59652 89.372601 154.3974 89.31474 153.62891 89.423828 C 153.25933 89.476284 152.95703 89.533325 152.95703 89.550781 C 152.95703 89.568237 153.03305 89.660002 153.12695 89.753906 C 153.27919 89.906146 153.29447 89.9875 153.25586 90.498047 C 153.21604 91.024497 153.12977 91.295908 152.68164 92.330078 C 152.55276 92.627508 152.55394 92.638117 152.71289 92.679688 C 152.80297 92.703237 152.87682 92.745577 152.87695 92.773438 C 152.87923 93.254807 150.03626 99.012405 149.45508 99.703125 L 149.25195 99.943359 L 149.60547 99.992188 C 150.38773 100.09871 150.61321 100.07381 150.875 99.853516 C 151.19654 99.582956 151.3365 99.292353 152.23438 97.039062 C 152.81329 95.586253 153.00413 95.184813 153.09766 95.220703 C 154.1814 95.636573 155.40426 95.345334 156.30469 94.458984 C 157.49896 93.283404 158.32193 91.325825 158.07812 90.236328 C 157.93154 89.581324 157.4466 89.190403 156.86914 89.226562 z M 207.36133 89.449219 C 207.29826 89.437627 207.21583 89.455481 207.07227 89.494141 C 206.20871 89.726669 205.64318 91.038226 205.95117 92.097656 L 206.08594 92.558594 L 205.72656 93.294922 C 205.28778 94.196892 204.73976 94.943881 204.36719 95.144531 C 204.13078 95.271851 204.05421 95.278743 203.87109 95.195312 C 203.66398 95.100943 203.65795 95.078205 203.70117 94.640625 C 203.72598 94.389395 203.95021 93.572219 204.20117 92.824219 C 204.57379 91.713589 204.6662 91.336075 204.69922 90.765625 C 204.72792 90.269656 204.71024 90.03156 204.63867 89.945312 C 204.51925 89.801425 204.15715 89.791205 203.46289 89.912109 L 202.95703 90 L 203.16602 90.164062 C 203.36739 90.322463 203.37475 90.355184 203.3418 90.976562 C 203.31068 91.563654 203.26697 91.70415 202.875 92.5 C 201.93401 94.41057 200.86982 95.673333 200.66016 95.126953 C 200.63138 95.051953 200.66716 94.701056 200.74023 94.347656 C 200.88407 93.652016 201.5773 92.150391 202.0293 91.556641 C 202.45871 90.992561 202.47523 91.023438 201.73047 91.023438 C 201.08483 91.023438 201.04596 91.034815 200.82031 91.265625 C 200.69051 91.398375 200.39284 91.856906 200.16016 92.285156 C 199.13618 94.169756 198.24178 95.214859 197.69141 95.167969 C 197.45235 95.147599 197.39789 95.106527 197.34375 94.904297 C 197.08636 93.943037 198.94542 91.041469 200.24414 90.378906 C 200.54798 90.223906 200.98558 90.177957 201.23438 90.273438 C 201.3056 90.300764 201.41691 90.426064 201.48242 90.552734 C 201.60694 90.793564 201.81713 90.85083 201.98047 90.6875 C 202.15101 90.51695 202.0842 90.322353 201.75781 90.042969 C 201.1954 89.561569 200.54714 89.468227 199.66016 89.742188 C 198.3502 90.146795 197.21993 91.354775 196.56836 93.046875 C 196.11267 94.230285 195.27403 95.151427 194.48047 95.341797 C 193.76611 95.513167 193.44077 95.20146 193.43945 94.34375 C 193.43836 93.62699 193.55682 93.27455 193.82031 93.21875 C 195.64334 92.83268 196.95703 91.692444 196.95703 90.496094 C 196.95703 90.189113 196.91753 90.089856 196.7168 89.902344 C 196.22866 89.446352 195.40528 89.536748 194.49219 90.146484 C 193.07178 91.095007 191.97515 93.440416 192.34961 94.728516 C 192.50544 95.264536 193.03877 95.789357 193.50586 95.867188 C 193.66587 95.893838 193.83295 95.926943 193.87695 95.939453 C 194.01125 95.977643 194.49638 95.895002 194.91406 95.763672 C 195.19969 95.673862 195.45029 95.501794 195.81445 95.146484 L 196.31836 94.654297 L 196.40625 94.976562 C 196.53349 95.449113 197.01753 95.904297 197.39258 95.904297 C 197.93408 95.904297 198.52604 95.494893 199.15625 94.689453 L 199.58203 94.146484 L 199.54102 94.447266 C 199.44576 95.157496 199.8599 95.797766 200.46484 95.878906 C 200.72281 95.913506 200.86378 95.880851 201.15039 95.712891 C 201.52817 95.491491 202.09833 94.846797 202.44922 94.248047 C 202.56275 94.054327 202.66746 93.907695 202.68164 93.921875 C 202.69582 93.936055 202.67211 94.107886 202.62695 94.304688 C 202.58179 94.501497 202.55963 94.854031 202.57812 95.087891 C 202.62445 95.673841 202.86784 95.915654 203.46094 95.964844 C 204.79343 96.075344 205.94335 94.673482 207.0625 91.576172 C 207.65571 89.934443 207.69207 89.779149 207.5293 89.578125 C 207.46742 89.501705 207.4244 89.460811 207.36133 89.449219 z M 156.73828 89.904297 C 157.13643 89.903761 157.22964 90.468511 156.95703 91.244141 C 156.5753 92.330241 155.25696 94.019907 154.32617 94.617188 C 154.08691 94.770728 153.84001 94.862088 153.66992 94.861328 C 153.14225 94.858958 153.14673 94.807246 153.76562 93.697266 C 155.34183 90.870476 156.09767 89.905161 156.73828 89.904297 z M 210.82422 90.166016 C 210.98973 90.147241 211.04825 90.298832 210.99219 90.623047 C 210.8604 91.385227 210.10961 92.196199 209.21875 92.537109 C 208.5543 92.791379 208.50506 92.768899 208.76172 92.324219 C 209.12425 91.696119 209.47338 91.249305 210.00977 90.734375 C 210.38524 90.373927 210.6587 90.18479 210.82422 90.166016 z M 196.23828 90.183594 C 196.3803 90.27137 196.32203 90.781092 196.125 91.169922 C 195.88158 91.650272 195.30725 92.182741 194.77148 92.425781 C 194.25413 92.660481 193.91797 92.745938 193.91797 92.642578 C 193.91797 92.487538 194.69704 91.373588 195.14258 90.892578 C 195.59189 90.407493 196.08458 90.08861 196.23828 90.183594 z M 212.98438 90.744141 L 213.08984 91.703125 C 213.29828 93.609875 213.23404 94.372458 212.82227 94.923828 C 212.60699 95.212108 212.56187 95.229264 212.38867 95.083984 C 212.14231 94.877324 212.06478 94.700218 211.99023 94.173828 C 211.94807 93.876128 211.85885 93.5728 211.79297 93.5 C 211.68511 93.38081 211.73797 93.235867 212.32812 92.054688 L 212.98438 90.744141 z M 80.367188 93.126953 C 80.380318 93.140083 80.016234 94.283979 79.558594 95.667969 C 75.837684 106.92092 73.363515 117.87226 72.203125 128.22266 C 72.092135 129.21266 71.988696 130.14873 71.972656 130.30273 C 71.904926 130.95281 71.92263 128.08767 72 125.98438 C 72.12096 122.69577 72.539121 118.57424 73.082031 115.30273 C 74.112371 109.09391 75.757908 103.47583 78.236328 97.703125 C 78.770638 96.458605 80.336227 93.095993 80.367188 93.126953 z M 184.20312 94.373047 C 184.71113 94.370614 185.20978 94.394938 185.42969 94.445312 L 185.70117 94.505859 L 185.29883 94.988281 C 184.40307 96.064651 183.22896 96.873266 182.23633 97.097656 C 181.26743 97.316666 180.36216 97.075791 180.06445 96.519531 C 179.86329 96.143651 180.35328 95.407579 181.03125 95.068359 C 181.47751 94.845069 182.27484 94.587381 182.91797 94.457031 C 183.17787 94.404356 183.69513 94.375479 184.20312 94.373047 z M 211.51562 94.546875 C 211.55658 94.53754 211.59766 94.581312 211.59766 94.685547 C 211.59766 94.763327 211.68919 94.96078 211.80078 95.125 L 212.00195 95.423828 L 211.81055 95.423828 C 211.51181 95.423828 211.40212 95.223256 211.42773 94.722656 C 211.43313 94.617191 211.47468 94.55621 211.51562 94.546875 z M 174.64258 96.318359 C 174.75128 96.354639 173.99327 97.593682 173.4707 98.232422 C 172.79262 99.061242 172.21975 99.54476 171.49023 99.90625 C 170.75358 100.27128 170.09671 100.38424 169.75781 100.20508 C 169.45857 100.04689 169.44315 99.538003 169.7207 98.970703 C 169.99249 98.415193 170.49739 98.009766 171.55273 97.503906 C 172.43381 97.081566 174.525 96.279089 174.64258 96.318359 z M 172.16992 101.66406 C 171.45937 101.66406 171.10276 101.87192 170.81445 102.45898 L 170.59766 102.9043 L 170.59766 104.82422 C 170.59766 106.84317 170.63431 107.11621 170.97461 107.54883 C 171.06765 107.66711 171.29125 107.8306 171.4707 107.91211 C 172.09301 108.19475 172.87472 108.06825 173.26562 107.62305 C 173.56094 107.28672 173.6752 106.9027 173.67578 106.24414 L 173.67773 105.74414 L 173.36914 105.74414 L 173.06055 105.74414 L 173.01367 106.29883 C 172.94177 107.15644 172.74925 107.41756 172.18164 107.42188 C 171.66253 107.4258 171.45191 107.19433 171.3457 106.50586 C 171.22997 105.75564 171.29525 102.9786 171.43555 102.6875 C 171.64946 102.24369 172.42864 102.09885 172.74219 102.44531 C 172.88963 102.60821 173.03236 103.17441 173.03516 103.60352 C 173.03709 103.89986 173.04132 103.9043 173.35742 103.9043 L 173.67773 103.9043 L 173.67773 103.35352 C 173.67773 102.90772 173.63507 102.72072 173.45703 102.38086 C 173.1727 101.8381 172.85871 101.66406 172.16992 101.66406 z M 189.45117 101.66406 C 188.73892 101.66406 188.30653 101.87621 188.01562 102.37109 L 187.79688 102.74414 L 187.77148 104.70117 C 187.75365 106.08069 187.77617 106.76336 187.8457 107.01172 C 187.9619 107.42676 188.37089 107.8685 188.73828 107.97461 C 189.30512 108.13831 189.96433 108.02295 190.32422 107.69727 C 190.44491 107.58804 190.46349 107.5949 190.50977 107.7793 C 190.54737 107.9291 190.61186 107.98437 190.75781 107.98438 L 190.95703 107.98438 L 190.95703 106.42383 L 190.95703 104.86328 L 190.23633 104.86328 L 189.51758 104.86328 L 189.51758 105.18359 L 189.51758 105.50391 L 189.87695 105.50391 L 190.23633 105.50391 L 190.23633 106.10547 C 190.23633 106.76767 190.10066 107.20353 189.84961 107.33789 C 189.64483 107.44749 189.07467 107.4497 188.87305 107.3418 C 188.51762 107.15157 188.47656 106.90308 188.47656 104.9043 C 188.47656 102.73429 188.5182 102.53855 189.00781 102.33398 C 189.62633 102.07554 190.15625 102.41328 190.15625 103.06445 C 190.15625 103.25101 190.17953 103.5168 190.20703 103.6543 C 190.25255 103.88189 190.28459 103.9043 190.5625 103.9043 C 190.7304 103.9043 190.88796 103.8711 190.91211 103.83203 C 190.99427 103.6991 190.79771 102.52038 190.65234 102.27148 C 190.40268 101.84399 190.0465 101.66406 189.45117 101.66406 z M 207.14258 101.66406 C 206.35797 101.66197 205.99089 101.86961 205.65039 102.50391 C 205.49184 102.79923 205.47603 102.96362 205.45117 104.64062 C 205.41555 107.04242 205.55589 107.55074 206.35156 107.91211 C 207.00431 108.20858 207.8344 108.06234 208.27539 107.57422 C 208.68985 107.11546 208.73126 106.84267 208.70312 104.67578 C 208.67858 102.78497 208.67245 102.73658 208.47656 102.38672 C 208.20009 101.89299 207.78303 101.66575 207.14258 101.66406 z M 223.59766 101.73438 L 223.59766 104.80469 C 223.59766 106.49401 223.62105 107.90036 223.65039 107.92969 C 223.67972 107.95903 223.82281 107.98437 223.96875 107.98438 L 224.23438 107.98438 L 224.25586 105.88281 L 224.27734 103.7832 L 225.125 105.86328 L 225.97461 107.94336 L 226.26562 107.96875 L 226.55664 107.99219 L 226.55664 104.86914 L 226.55664 101.74414 L 226.23633 101.74414 L 225.91797 101.74414 L 225.91406 103.92383 L 225.91016 106.10352 L 225.04297 103.94336 L 224.17383 101.7832 L 223.88672 101.75781 L 223.59766 101.73438 z M 153.67773 101.74414 L 153.67773 104.81055 C 153.67773 106.49722 153.70114 107.90036 153.73047 107.92969 C 153.82003 108.01926 155.39576 107.98943 155.68555 107.89258 C 155.83511 107.84259 156.05766 107.70894 156.17969 107.5957 C 156.77234 107.04578 156.78247 105.33493 156.19727 104.78516 L 156.00781 104.60547 L 156.22266 104.2793 C 156.41487 103.98885 156.4375 103.8816 156.4375 103.25586 C 156.4375 102.47778 156.3425 102.26726 155.83789 101.92383 C 155.60036 101.76216 155.47659 101.74414 154.625 101.74414 L 153.67773 101.74414 z M 163.55078 101.74414 C 163.21743 101.74414 163.1184 101.77234 163.08594 101.88281 C 163.00689 102.15177 161.91797 107.7227 161.91797 107.85742 C 161.91797 107.96785 161.98158 107.98873 162.25781 107.96875 L 162.59766 107.94336 L 162.75391 107.16406 L 162.91016 106.38281 L 163.5332 106.38281 C 164.23307 106.38281 164.14843 106.2921 164.32031 107.22266 C 164.46538 108.00809 164.44646 107.98437 164.85156 107.98438 C 165.15876 107.98436 165.21055 107.96192 165.17969 107.84375 C 165.15959 107.76675 164.88028 106.36166 164.55859 104.72266 L 163.97266 101.74414 L 163.55078 101.74414 z M 179.35742 101.74414 L 179.35742 104.73633 C 179.35742 106.38273 179.37867 107.78947 179.40625 107.86133 C 179.44373 107.95901 179.54048 107.98482 179.78711 107.9668 L 180.11719 107.94336 L 180.15625 106.7832 C 180.19128 105.76732 180.2195 105.57953 180.38281 105.27344 C 180.48538 105.0812 180.59698 104.9559 180.63086 104.99414 C 180.66474 105.03238 180.95421 105.72044 181.27344 106.52344 L 181.85352 107.98438 L 182.20508 107.98438 C 182.41129 107.98436 182.55664 107.94712 182.55664 107.89453 C 182.55664 107.84522 182.21554 107.01462 181.79883 106.04883 L 181.04102 104.29297 L 181.67969 103.01758 L 182.31836 101.74414 L 181.93555 101.74414 L 181.55469 101.74414 L 180.86133 103.12305 L 180.16602 104.50391 L 180.16211 103.12305 L 180.15625 101.74414 L 179.75781 101.74414 L 179.35742 101.74414 z M 196.7168 101.74414 L 196.7168 104.81055 C 196.7168 106.49722 196.74019 107.90036 196.76953 107.92969 C 196.79885 107.95903 196.96218 107.98437 197.13086 107.98438 L 197.4375 107.98438 L 197.4375 106.5 L 197.4375 105.01562 L 197.88867 105.03906 L 198.33789 105.0625 L 198.6875 106.22266 C 198.87967 106.86066 199.07544 107.51859 199.12109 107.68359 C 199.20116 107.97303 199.21621 107.98438 199.56055 107.98438 C 199.81081 107.98436 199.91797 107.95052 199.91797 107.87305 C 199.91797 107.81229 199.71976 107.12759 199.47852 106.35156 L 199.03906 104.94141 L 199.34766 104.66211 C 199.73556 104.31167 199.87209 103.86025 199.81836 103.10938 C 199.77162 102.45613 199.56332 102.06055 199.16406 101.87109 C 198.9566 101.77264 198.63804 101.74414 197.80469 101.74414 L 196.7168 101.74414 z M 214.38477 101.74414 L 214.41211 104.36328 L 214.4375 106.98438 L 214.6543 107.35352 C 214.84966 107.68582 215.05352 107.83995 215.51758 108.00781 C 215.58358 108.03169 215.83417 108.05218 216.07617 108.05469 C 216.81368 108.06233 217.38723 107.70459 217.58594 107.11133 C 217.64645 106.93067 217.67773 105.98384 217.67773 104.29102 L 217.67773 101.74414 L 217.31641 101.74414 L 216.95703 101.74414 L 216.95703 104.30664 C 216.95703 107.20596 216.94204 107.29489 216.43164 107.39062 C 216.05306 107.46166 215.52382 107.38516 215.37695 107.23828 C 215.16923 107.03056 215.12465 106.47732 215.12109 104.08398 L 215.11719 101.74414 L 214.75195 101.74414 L 214.38477 101.74414 z M 232.47656 101.74414 L 232.47656 104.81055 C 232.47656 106.49722 232.50411 107.90407 232.53711 107.9375 C 232.57011 107.97093 233.01158 107.9845 233.51758 107.96875 C 234.66437 107.93306 235.00434 107.77858 235.31641 107.15234 C 235.5121 106.75963 235.51758 106.71524 235.51758 104.90039 C 235.51758 102.99741 235.48037 102.71574 235.17773 102.28125 C 234.88295 101.85805 234.51121 101.74414 233.43945 101.74414 L 232.47656 101.74414 z M 207.10156 102.24805 C 207.40648 102.25985 207.70987 102.41361 207.85938 102.70508 C 207.98689 102.95366 208.00068 103.19436 207.98047 104.9707 L 207.95703 106.95703 L 207.69531 107.18945 C 207.36925 107.48063 206.85272 107.51305 206.5332 107.26172 C 206.20913 107.00681 206.13914 106.49142 206.16992 104.58398 C 206.19277 103.16733 206.21945 102.86313 206.33789 102.64648 C 206.49085 102.36672 206.79664 102.23625 207.10156 102.24805 z M 154.39648 102.30273 L 154.75195 102.30273 C 154.94709 102.30273 155.20142 102.33909 155.31641 102.38281 C 155.81416 102.57206 155.9191 103.73129 155.47852 104.17188 C 155.38508 104.26532 155.20577 104.30273 154.87109 104.30273 L 154.39648 104.30273 L 154.39648 103.30273 L 154.39648 102.30273 z M 197.4375 102.30273 L 198.0332 102.30273 C 198.5474 102.30273 198.65972 102.32938 198.85352 102.49609 C 199.0647 102.67774 199.07617 102.72749 199.07617 103.33008 C 199.07617 103.89782 199.05473 103.99473 198.88281 104.17773 C 198.70636 104.36555 198.63206 104.38281 198.0625 104.38281 L 197.4375 104.38281 L 197.4375 103.34375 L 197.4375 102.30273 z M 233.19727 102.30273 L 233.61719 102.31055 C 234.2229 102.32205 234.41156 102.39701 234.61523 102.69922 C 234.79003 102.95863 234.79688 103.02842 234.79688 104.80273 C 234.79688 106.80361 234.74851 107.0702 234.34961 107.25195 C 234.23965 107.30204 233.93577 107.34375 233.67383 107.34375 L 233.19727 107.34375 L 233.19727 104.82422 L 233.19727 102.30273 z M 163.54102 103.05273 C 163.55966 103.0341 163.60105 103.18992 163.63086 103.40039 C 163.66069 103.61087 163.76776 104.24173 163.86914 104.80273 L 164.05273 105.82422 L 163.54492 105.82422 C 163.26559 105.82422 163.03708 105.79667 163.03711 105.76367 C 163.03723 105.62691 163.50989 103.08387 163.54102 103.05273 z M 154.39648 104.94336 L 154.94141 104.94336 C 155.60913 104.94336 155.8007 105.08328 155.88281 105.63086 C 155.96223 106.16044 155.8719 106.85988 155.69336 107.09961 C 155.55834 107.2809 155.4751 107.30535 154.96875 107.32617 L 154.39648 107.34961 L 154.39648 106.14648 L 154.39648 104.94336 z M 175.4375 190.00586 C 175.4375 189.9913 175.30172 190.04761 175.13672 190.13086 C 174.97172 190.21411 174.74672 190.30894 174.63672 190.3418 C 174.25894 190.45468 171.5551 191.76535 169.7168 192.72656 C 164.63893 195.38165 159.92701 198.10344 152.83398 202.47852 C 147.50824 205.76352 144.7629 207.57836 143.13672 208.88867 C 135.49147 215.04887 130.56146 222.04367 128.99219 228.95508 C 128.5844 230.75108 128.51582 231.41514 128.52344 233.54297 C 128.52983 235.32639 128.55479 235.66876 128.74023 236.70312 C 129.47572 240.80578 131.34788 244.51512 134.375 247.86328 C 135.66473 249.28979 137.4878 250.8758 139.05664 251.9375 C 139.52524 252.25462 139.73036 252.43934 139.68164 252.49805 C 139.64169 252.54619 139.44967 252.99846 139.25391 253.50391 C 137.08154 259.11288 133.7542 264.50079 131.09375 266.7168 C 130.71995 267.02816 130.66276 267.10352 130.80469 267.10352 C 131.07131 267.10352 132.30685 266.05656 133.50977 264.81055 C 134.0978 264.20144 134.5798 263.68606 134.58203 263.66406 C 134.58427 263.64206 134.91455 263.19206 135.31641 262.66406 C 136.68418 260.86699 137.64797 259.38532 138.89648 257.15625 C 139.82298 255.50206 140.95608 253.19563 140.95703 252.96289 C 140.95758 252.82574 141.004 252.7832 141.15234 252.7832 C 141.47115 252.7832 143.48621 252.39468 144.51758 252.13477 C 147.84357 251.29664 152.32378 249.45318 155.13086 247.76758 C 158.17081 245.94215 160.75941 243.64504 162.62109 241.12109 C 164.5306 238.53231 166.12319 234.95591 167.1875 230.86328 C 167.75151 228.69442 167.8954 227.93745 169.4375 219.02344 C 172.52125 201.19802 174.11195 193.37894 175.23242 190.54883 C 175.3446 190.26549 175.4375 190.02041 175.4375 190.00586 z M 86.814453 191.70312 C 86.830173 191.67346 87.108811 192.12323 88.199219 193.9043 C 89.558209 196.12407 91.065979 198.50353 92.380859 200.50391 L 93.380859 202.02344 L 93.728516 203.9043 C 93.919376 204.9383 94.129536 206.1219 94.197266 206.53516 C 94.264996 206.94841 94.311208 207.29621 94.298828 207.30859 C 94.259518 207.3479 91.812134 202.50864 90.714844 200.22266 C 89.295464 197.26566 86.976646 192.21553 86.822266 191.74414 C 86.815309 191.7229 86.812207 191.70736 86.814453 191.70312 z M 90.789062 238.29492 L 90.869141 238.59961 C 91.134251 239.59363 91.183901 241.1131 90.962891 241.46289 C 90.870211 241.60958 90.761896 241.62462 89.660156 241.64453 L 88.458984 241.66602 L 88.748047 241.28516 C 88.907087 241.07522 89.430569 240.317 89.912109 239.59961 L 90.789062 238.29492 z M 168.12695 249.67188 C 168.10854 249.66689 168.07415 249.67931 168.02734 249.69727 C 167.75766 249.80076 165.74013 250.14108 164.23633 250.33789 C 162.11425 250.61564 159.82085 250.87116 155.55664 251.30273 C 150.60572 251.80379 149.93834 251.88257 148.83789 252.10352 C 146.32745 252.60756 144.66726 253.31374 143.10742 254.54297 C 141.30764 255.9613 139.47271 258.81814 138.8418 261.18359 L 138.66211 261.86328 L 137.46875 262.26758 C 136.25647 262.67833 135.15833 263.1851 134.79688 263.5 C 134.56016 263.70623 134.58057 263.69932 135.35742 263.32812 C 136.08339 262.98123 136.89263 262.70917 137.94531 262.45703 L 138.73242 262.26758 L 138.9043 262.50586 C 140.53929 264.75952 142.58744 266.20826 145.11719 266.9043 C 145.73723 267.0749 145.96349 267.09297 147.67773 267.09766 C 149.38131 267.10231 149.63671 267.08492 150.39844 266.91211 C 153.14365 266.28932 156.19631 264.52181 158.70703 262.10547 C 160.64009 260.2451 166.18269 253.07856 167.78906 250.36133 C 168.09536 249.84323 168.18218 249.68684 168.12695 249.67188 z "
     id="path869" />
</svg>
