<?xml version="1.0" encoding="UTF-8" standalone="no"?>
<!-- Created with Inkscape (http://www.inkscape.org/) -->

<svg
   xmlns:dc="http://purl.org/dc/elements/1.1/"
   xmlns:cc="http://creativecommons.org/ns#"
   xmlns:rdf="http://www.w3.org/1999/02/22-rdf-syntax-ns#"
   xmlns:svg="http://www.w3.org/2000/svg"
   xmlns="http://www.w3.org/2000/svg"
   xmlns:sodipodi="http://sodipodi.sourceforge.net/DTD/sodipodi-0.dtd"
   xmlns:inkscape="http://www.inkscape.org/namespaces/inkscape"
   inkscape:version="0.92.3 (2405546, 2018-03-11)"
   sodipodi:docname="woman_hair3.svg"
   viewBox="0 0 1066.6667 1066.6667"
   height="1066.6667"
   width="1066.6667"
   xml:space="preserve"
   id="svg2"
   version="1.1"><metadata
     id="metadata8"><rdf:RDF><cc:Work
         rdf:about=""><dc:title /><dc:format>image/svg+xml</dc:format><dc:type
           rdf:resource="http://purl.org/dc/dcmitype/StillImage" /></cc:Work></rdf:RDF></metadata><defs
     id="defs6" /><sodipodi:namedview
     inkscape:current-layer="g10"
     inkscape:window-maximized="1"
     inkscape:window-y="27"
     inkscape:window-x="0"
     inkscape:cy="566.65648"
     inkscape:cx="489.97047"
     inkscape:zoom="0.71587273"
     showgrid="false"
     id="namedview4"
     inkscape:window-height="1025"
     inkscape:window-width="1920"
     inkscape:pageshadow="2"
     inkscape:pageopacity="0"
     guidetolerance="10"
     gridtolerance="10"
     objecttolerance="10"
     borderopacity="1"
     bordercolor="#666666"
     pagecolor="#ffffff" /><g
     id="g10"
     inkscape:groupmode="layer"
     inkscape:label="12179-NNZAC5"
     transform="matrix(1.3333333,0,0,-1.3333333,0,1066.6667)"><path
       style="fill:#454c53;fill-opacity:1;fill-rule:nonzero;stroke:none;stroke-width:1.33333325"
       d="M 269.50977 11.414062 C 246.15777 11.414062 225.27483 16.418922 207.4375 26.294922 C 173.7295 44.953588 148.69577 73.534808 133.03711 111.24414 C 118.30378 146.72547 115.00403 182.83943 114.83203 206.88477 C 114.78136 213.8541 114.52245 220.46906 114.0918 226.78906 C 114.5958 230.7904 115.17546 235.8641 115.57812 241.77344 C 115.82079 245.49877 116.04601 249.54846 116.02734 253.8418 C 116.05269 258.1338 115.95711 262.67538 115.53711 267.35938 C 115.15844 272.04203 114.58909 276.88671 113.62109 281.74805 C 112.71044 286.62005 111.43881 291.51436 109.88281 296.31836 C 108.33081 301.12903 106.31177 305.78395 104.12109 310.25195 C 103.54644 311.35729 102.97558 312.46002 102.40625 313.55469 C 101.81825 314.63869 101.14539 315.67066 100.52539 316.72266 C 99.314724 318.84266 97.885167 320.79186 96.5625 322.75586 C 95.165167 324.66919 93.749589 326.52409 92.294922 328.27344 C 90.753589 329.95609 89.363354 331.6984 87.804688 333.20508 C 84.800688 336.3264 81.724724 339.03252 78.775391 341.36719 C 77.568724 342.27652 76.437927 343.17324 75.308594 344.00391 C 67.901927 356.78391 60.902739 368.88535 55.941406 382.41602 C 56.470406 381.74802 57.013769 381.0891 57.572266 380.44141 C 59.247754 378.49832 61.053703 376.65092 62.970703 374.91992 C 67.566703 370.73859 72.663896 367.28332 78.226562 364.25 L 82.226562 362.17188 C 83.506562 361.49588 84.818125 360.86115 86.078125 360.14648 C 88.630125 358.76648 91.170052 357.36305 93.636719 355.8457 C 98.575385 352.8257 103.32853 349.51148 107.64453 345.77148 C 116.29521 338.31948 123.16094 329.18134 126.96094 318.77734 C 128.87294 313.58669 130.13223 308.1582 130.87891 302.6582 C 131.66291 297.16354 132.0272 291.60389 132.14453 286.08789 C 132.3512 275.04389 131.71164 264.1898 131.43164 253.8418 C 131.34331 251.25346 131.2631 248.69739 131.19727 246.17578 C 130.99975 238.61095 130.93202 231.36306 131.16602 224.53906 C 131.30067 219.9924 131.52317 215.63671 131.8125 211.49805 C 132.10717 207.35938 132.56144 203.44925 132.99609 199.78125 C 133.90544 192.44525 135.07165 186.10941 136.20898 180.94141 C 137.29565 175.76407 138.44517 171.76235 139.20117 169.04102 C 140.00117 166.33167 140.42773 164.88867 140.42773 164.88867 C 140.42773 164.88867 140.18391 166.37411 139.72656 169.16211 C 139.30391 171.95278 138.72658 176.04181 138.14258 181.25781 C 137.57858 186.47381 137.04914 192.81589 136.73047 200.08789 C 136.47979 207.36656 136.42262 215.57029 136.75195 224.51562 C 137.12129 233.46362 137.76928 243.1424 138.61328 253.42773 C 139.47461 263.71573 140.3982 274.62596 140.51953 286.14062 C 140.54753 291.89662 140.39796 297.81222 139.64062 303.82422 C 138.88329 309.82555 137.54792 315.92381 135.41992 321.86914 C 133.27727 327.80514 130.30036 333.54662 126.56836 338.75195 C 122.84837 343.97595 118.34502 348.56941 113.54102 352.66406 C 108.72102 356.75606 103.53456 360.2908 98.226562 363.4668 C 95.571896 365.05345 92.875724 366.54096 90.150391 367.93164 C 87.455724 369.24764 84.771703 370.5599 82.095703 371.86523 C 72.167703 376.8959 63.470026 384.12411 57.943359 393.05078 C 52.412693 401.65078 49.803557 411.61787 48.712891 421.2832 C 48.638224 425.29654 48.744734 429.48195 49.052734 433.86328 C 49.414068 432.92328 49.790492 431.97439 50.201172 431.01172 C 51.482492 428.07705 52.913359 424.99399 54.693359 421.97266 C 56.460026 418.94466 58.370182 415.84554 60.603516 412.9082 C 62.767516 409.91487 65.237063 407.08508 67.789062 404.34375 C 69.057062 402.96242 70.450878 401.70149 71.769531 400.38281 C 73.128211 399.10549 74.553594 397.91468 75.933594 396.69336 C 77.369594 395.54136 78.802188 394.40822 80.242188 393.32422 C 81.716854 392.29222 83.174089 391.27158 84.607422 390.26758 C 86.088755 389.34091 87.521464 388.39444 88.966797 387.53711 C 90.41613 386.69178 91.879391 385.93865 93.275391 385.16797 C 96.083391 383.65597 98.830005 382.40527 101.38867 381.33594 C 103.95401 380.27727 106.30822 379.33835 108.46289 378.67969 C 110.59089 377.96235 112.45082 377.36428 114.02148 376.98828 C 117.13882 376.17628 118.92773 375.78711 118.92773 375.78711 C 118.92773 375.78711 117.3108 376.68562 114.4668 378.12695 C 113.0268 378.80829 111.3563 379.80465 109.4043 380.83398 C 107.44163 381.84333 105.32394 383.15966 102.97461 384.48633 C 101.79061 385.13566 100.62385 385.92785 99.394531 386.70117 C 98.174531 387.48917 96.866615 388.21728 95.613281 389.11328 C 94.346615 389.9866 93.020797 390.84241 91.716797 391.78906 C 90.436797 392.76906 89.082375 393.69764 87.734375 394.68164 C 86.429042 395.71631 85.103766 396.76927 83.759766 397.83594 C 82.465099 398.95994 81.157026 400.09557 79.818359 401.21289 C 78.541026 402.39957 77.25551 403.5942 75.964844 404.79688 C 74.732844 406.05553 73.430807 407.25831 72.244141 408.57031 C 71.041474 409.86365 69.804214 411.1296 68.685547 412.48828 L 66.960938 414.48242 L 65.324219 416.5293 C 64.212219 417.87196 63.225208 419.28809 62.171875 420.63477 C 61.185208 422.02677 60.194302 423.39697 59.292969 424.79297 C 57.483635 427.58097 55.798547 430.33048 54.310547 433.00781 C 52.88388 435.71181 51.514776 438.27917 50.412109 440.72852 C 50.212109 441.16185 50.025271 441.58319 49.835938 442.00586 C 50.153271 444.64586 50.549146 447.36248 51.007812 450.14648 C 61.999812 434.00382 78.116938 419.59346 99.960938 406.05078 L 105.29492 402.74805 C 154.43624 372.34538 184.0977 353.99194 179.3457 306.47461 C 178.3577 296.59461 176.0437 286.50237 173.5957 275.81836 C 167.99705 251.38769 161.65243 223.69844 167.50977 185.62109 C 171.7871 157.81844 183.49337 129.9185 200.4707 107.0625 C 218.77205 82.427834 242.3851 64.313734 268.75977 54.677734 C 284.34243 48.984401 299.06869 46.095703 312.52734 46.095703 C 330.84869 46.095703 345.84875 51.652047 355.46875 61.248047 C 354.51008 57.85738 353.39536 54.382266 352.08203 50.822266 L 351.54688 51.736328 C 351.54688 51.736328 351.36186 51.623583 351.00586 51.40625 C 350.59786 51.172917 349.99441 50.827 349.20508 50.375 C 347.58108 49.472333 345.11748 48.171104 341.88281 46.648438 C 335.42415 43.604438 325.83556 39.700828 313.85156 36.548828 C 307.86223 34.974161 301.27304 33.640891 294.23438 32.712891 C 288.95438 32.025891 283.41688 31.559296 277.70703 31.439453 C 276.75604 31.419493 275.79811 31.408295 274.83789 31.408203 C 273.87766 31.408139 272.91204 31.418467 271.94336 31.439453 C 264.19268 31.60212 256.18273 32.39874 248.16406 33.941406 C 240.06006 35.496073 232.23264 37.718315 224.55664 40.986328 C 216.92331 44.220995 209.62353 48.298386 202.88086 53.011719 C 196.15286 57.746385 190.01987 63.139693 184.5332 68.818359 C 173.53587 80.194359 165.38152 92.815875 159.57617 104.17188 C 153.77217 115.56386 150.29058 125.73793 148.28125 132.94727 C 147.26658 136.55393 146.6004 139.42858 146.17773 141.39258 C 145.76573 143.36058 145.54492 144.41406 145.54492 144.41406 C 145.54492 144.41406 145.704 143.35198 146 141.36133 C 146.30668 139.37066 146.80342 136.45601 147.60742 132.77734 C 149.19676 125.42668 152.08506 114.99056 157.28906 103.08789 C 162.49841 91.226558 170.03971 77.839619 180.73438 65.376953 C 186.07171 59.156953 192.13708 53.144234 198.92773 47.740234 C 205.73041 42.357581 213.22617 37.561094 221.1875 33.621094 C 229.09283 29.677094 237.71161 26.649599 246.09961 24.572266 C 254.57961 22.480266 263.12468 21.180792 271.44336 20.578125 C 279.76468 19.967458 287.85442 20.111745 295.48242 20.705078 C 303.1131 21.313078 310.28873 22.38538 316.83008 23.748047 C 327.29008 25.928047 336.11089 28.707766 342.96289 31.259766 C 342.31489 30.125099 341.62846 28.976839 340.92578 27.826172 C 324.65246 19.278172 298.38443 11.414062 269.50977 11.414062 z M 350.60938 28.767578 C 353.15603 33.292911 355.29724 37.706386 357.14258 42.011719 C 358.51724 42.003719 360.97975 42.045214 364.34375 42.310547 C 369.7131 42.717214 377.3861 43.729333 386.38477 46 C 390.89542 47.096 395.68818 48.633537 400.71484 50.408203 C 405.69352 52.29887 410.91152 54.440229 416.10352 57.101562 C 417.42485 57.717562 418.70451 58.441677 420.00586 59.152344 C 421.29918 59.873677 422.6312 60.560839 423.92188 61.326172 C 426.46853 62.918172 429.13733 64.405547 431.63867 66.185547 C 432.91201 67.052214 434.18813 67.918396 435.4668 68.789062 C 436.70145 69.721062 437.94029 70.65837 439.18164 71.595703 C 441.71364 73.417036 444.03517 75.510573 446.45117 77.503906 C 448.83517 79.531906 451.0527 81.744182 453.35938 83.853516 C 455.52204 86.098849 457.71013 88.311984 459.80078 90.583984 C 460.95013 91.934651 462.11372 93.26113 463.26172 94.591797 C 438.11105 52.029131 400.29336 29.906245 350.60938 28.767578 z M 357.17188 42.080078 C 360.91719 50.826745 363.3848 59.091672 365.2168 66.763672 C 365.32748 66.783672 365.41381 66.800932 365.53516 66.822266 C 366.96581 67.107599 369.02466 67.548927 371.61133 68.183594 C 376.78733 69.443594 384.086 71.466479 392.61133 74.507812 C 396.88067 76.007812 401.44303 77.793026 406.20703 79.818359 C 410.96438 81.855693 415.91369 84.158901 420.92969 86.740234 C 423.44169 88.010901 425.94161 89.422021 428.48828 90.804688 C 430.97893 92.298021 433.56165 93.689307 436.04297 95.306641 C 438.55232 96.870641 441.06496 98.4675 443.51562 100.1875 C 446.00896 101.83417 448.41427 103.63521 450.82227 105.42188 C 453.25959 107.16987 455.53027 109.1418 457.87695 110.98047 C 460.16362 112.9018 462.3877 114.87817 464.5957 116.82617 C 466.71436 118.87817 468.87721 120.8442 470.89453 122.9082 C 472.59988 124.7322 474.33489 126.47911 475.96289 128.28711 C 475.54556 127.40178 475.13243 126.49887 474.69727 125.5957 C 474.2621 124.69254 473.80411 123.78781 473.30078 122.89648 C 472.0661 120.62582 470.79795 118.29416 469.50195 115.91016 C 468.08195 113.59816 466.62896 111.23274 465.1543 108.83008 C 463.6223 106.46341 461.94132 104.14228 460.30664 101.73828 C 458.61599 99.375615 456.75694 97.098995 454.96094 94.736328 C 453.07559 92.449662 451.09156 90.21288 449.12891 87.935547 C 447.02756 85.79688 445.00697 83.542797 442.82031 81.466797 C 440.59897 79.42413 438.46582 77.270812 436.11914 75.382812 C 434.96849 74.412146 433.82246 73.440656 432.67578 72.472656 C 431.48513 71.563323 430.29276 70.65524 429.10742 69.753906 C 426.77676 67.888573 424.27029 66.313 421.87695 64.625 C 420.66229 63.811667 419.40759 63.075354 418.18359 62.304688 C 416.95559 61.542021 415.74758 60.765036 414.49023 60.095703 C 409.5689 57.22237 404.58292 54.851276 399.79492 52.724609 C 394.96159 50.715276 390.32037 48.940568 385.92969 47.615234 C 377.17237 44.888568 369.61164 43.466151 364.29297 42.771484 C 360.98629 42.326151 358.54654 42.150745 357.17188 42.080078 z M 256.11523 46.132812 L 246.56836 51.105469 C 245.14703 51.857469 243.60847 52.67063 241.98047 53.529297 C 240.36714 54.411964 238.66493 55.341401 236.90625 56.302734 C 235.14493 57.257401 233.36111 58.304464 231.53711 59.341797 C 229.69711 60.35513 227.88988 61.488698 226.06055 62.582031 C 224.24988 63.700698 222.41445 64.787698 220.67578 65.957031 C 218.91578 67.095698 217.20269 68.237234 215.55469 69.365234 C 213.93869 70.529234 212.34804 71.62399 210.88672 72.722656 C 209.45072 73.85199 208.02913 74.855958 206.81445 75.890625 C 205.57313 76.899958 204.4268 77.819219 203.4668 78.699219 C 202.49745 79.567219 201.60522 80.288318 200.94922 80.958984 C 199.59055 82.256318 198.7832 82.986328 198.7832 82.986328 C 198.7832 82.986328 199.38614 82.096115 200.49414 80.550781 C 201.03147 79.761448 201.77219 78.88238 202.63086 77.873047 C 203.46419 76.839727 204.47495 75.743271 205.62695 74.585938 C 206.73762 73.384604 208.05155 72.202646 209.43555 70.945312 C 210.83155 69.699979 212.34513 68.436214 213.95312 67.185547 C 215.58646 65.969547 217.23854 64.650948 219.0332 63.488281 C 220.7892 62.264281 222.6348 61.125651 224.4668 59.958984 C 226.3468 58.876318 228.20645 57.753906 230.0918 56.753906 C 231.95312 55.71124 233.8453 54.800917 235.66797 53.90625 C 237.47997 52.991583 239.2929 52.232656 240.99023 51.472656 C 242.70357 50.74999 244.3217 50.064526 245.8457 49.505859 C 248.86837 48.336526 251.45319 47.499885 253.25586 46.949219 C 255.06786 46.414552 256.11523 46.132812 256.11523 46.132812 z M 314.52734 52.240234 C 301.78866 52.240234 287.77447 55.001932 272.86914 60.447266 C 223.50782 78.483265 184.40942 129.16136 175.58008 186.55469 C 169.90142 223.47069 176.10798 250.55198 181.58398 274.44531 C 184.07733 285.32398 186.43168 295.59928 187.45703 305.86328 C 192.59168 357.19795 159.94466 377.39872 110.52734 407.9707 L 105.19727 411.26953 C 49.7706 445.6362 41.677013 481.58703 40.818359 509.06836 C 40.655026 514.30294 40.969138 518.9919 41.607422 523.17383 C 41.607422 523.17383 41.607422 523.17578 41.607422 523.17578 C 43.011769 532.37503 45.98372 539.11775 48.884766 543.79883 C 49.342112 543.35483 49.811109 542.91452 50.287109 542.47852 C 50.124598 503.29378 81.328409 466.71356 152.9043 422.51758 C 155.29019 421.04437 157.72132 419.56278 160.19727 418.07227 C 162.67321 416.58175 165.19505 415.0828 167.76172 413.57422 C 167.79105 413.20355 167.80469 413.00781 167.80469 413.00781 L 168.57422 413.10156 C 173.74754 410.07088 179.08233 407.00324 184.625 403.89258 C 185.50633 403.3979 186.37056 402.89718 187.22656 402.39453 C 187.25323 401.92786 187.26758 401.66797 187.26758 401.66797 L 188.22656 401.80078 C 217.88256 384.11945 233.48206 361.27441 235.85938 332.06641 C 238.03537 305.32107 228.97574 276.79495 220.98242 251.62695 C 214.75974 232.03095 208.88297 213.52241 209.18164 198.56641 C 209.67897 173.65174 218.23202 152.66009 233.91602 137.85742 C 247.5627 124.97476 266.15548 117.26515 286.27148 116.14648 C 290.18482 115.92915 293.95413 115.73168 297.57812 115.54102 C 329.86878 113.84768 351.20109 112.72875 359.12109 103.46875 C 360.33176 102.05275 361.25044 100.41268 361.89844 98.527344 C 361.40109 98.31401 360.81577 98.066865 360.12109 97.769531 C 359.33844 97.438865 358.39943 97.016833 357.46875 96.6875 C 353.7341 95.208833 347.77807 93.09774 340.13672 91.316406 C 338.23007 90.815073 336.17951 90.514406 334.04883 90.066406 C 331.90217 89.750406 329.65946 89.332135 327.30078 89.105469 C 322.59278 88.512135 317.45594 88.287807 311.97461 88.369141 C 301.02126 88.553141 288.5952 90.388167 275.7832 94.9375 C 262.99786 99.4695 249.81013 106.63257 237.80078 116.75391 C 231.83146 121.78723 225.99982 127.59171 220.86914 133.87305 L 218.85156 136.4082 C 218.16088 137.26286 217.63758 138.04709 217.01758 138.87109 C 215.80158 140.45909 214.66633 142.25196 213.48633 143.97461 C 211.24633 147.51862 209.11433 151.19063 207.20898 155.0293 C 199.55433 170.37463 195.16163 188.03973 193.98828 206.28906 C 192.79628 224.55306 194.66928 243.37816 198.97461 261.63281 C 199.49328 263.92349 200.10269 266.18289 200.69336 268.46289 L 202.53711 275.4375 C 203.72644 280.11351 204.81339 284.82135 205.74805 289.55469 C 207.62005 299.01869 208.92608 308.59293 209.33008 318.18359 C 209.72208 327.76226 209.21559 337.39779 207.12891 346.70312 C 205.05159 355.97646 201.21714 364.96042 195.23047 372.23242 C 193.73714 374.04309 192.12082 375.73988 190.41016 377.31055 C 189.55416 378.11321 188.68315 378.82389 187.75781 379.58789 L 185.14844 381.61914 C 181.58178 384.33247 177.98214 386.85595 174.35547 389.25195 C 167.10479 394.05195 159.76514 398.29561 152.5918 402.32227 C 138.2238 410.33427 124.47012 417.47196 112.35547 425.0293 C 110.84094 425.971 109.34822 426.9184 107.88477 427.86914 C 103.49359 430.72198 99.340251 433.62025 95.472656 436.58594 C 90.291323 440.52594 85.722234 444.62791 81.490234 448.64258 C 77.212901 452.58924 73.311789 456.3614 70.037109 460.16406 C 66.746456 463.94806 64.071101 467.71654 61.925781 471.2832 C 57.669781 478.45254 55.433164 484.68379 54.146484 488.95312 C 53.425164 491.07312 53.095391 492.76371 52.775391 493.87305 C 52.483391 494.99438 52.333984 495.57031 52.333984 495.57031 C 52.333984 495.57031 52.472854 494.99057 52.742188 493.86523 C 53.039507 492.7479 53.334992 491.05202 54.013672 488.91602 C 55.217672 484.61335 57.32875 478.32291 61.46875 471.01758 C 63.55675 467.38424 66.178495 463.52524 69.423828 459.64258 C 72.646495 455.74124 76.510425 451.85355 80.705078 447.82422 C 82.795758 445.80689 84.931276 443.6847 87.224609 441.58203 C 89.508609 439.47403 91.942234 437.40322 94.490234 435.33789 C 99.592914 431.21256 105.20951 427.19943 111.21484 423.24609 C 123.22018 415.32476 136.85206 407.79764 150.94141 399.45898 C 157.97341 395.26964 165.13281 390.87914 172.13281 385.98047 C 175.63281 383.53514 179.10537 380.96296 182.4707 378.26562 L 185.02734 376.17188 C 185.78469 375.50521 186.61342 374.79788 187.35742 374.06055 C 188.87608 372.58988 190.30387 371.01522 191.61719 369.33789 C 196.87587 362.60322 200.19397 354.31242 201.91797 345.59375 C 203.64597 336.85108 203.91021 327.68443 203.29688 318.50977 C 202.67421 309.3231 201.17833 300.09712 199.125 290.95312 C 198.09965 286.37846 196.92515 281.8232 195.64648 277.2832 L 193.6543 270.46484 C 192.98762 268.13952 192.29336 265.80512 191.69336 263.45312 C 186.74536 244.66914 184.25519 225.12903 185.00586 205.81836 C 185.73919 186.53969 189.89156 167.46248 197.79688 150.50781 C 199.76355 146.27181 201.98375 142.19479 204.34375 138.24414 C 205.59443 136.30279 206.75291 134.36644 208.12891 132.45312 C 208.79156 131.51845 209.47044 130.49058 210.12109 129.64258 L 212.07031 127.05469 C 217.66098 119.84137 223.68928 113.55718 230.11328 107.83984 C 240.53819 98.593594 251.94027 91.392323 263.39062 86.128906 C 264.27142 85.724028 265.15224 85.331232 266.0332 84.949219 C 267.79512 84.185193 269.55695 83.468089 271.31445 82.794922 C 285.3998 77.386922 299.24539 74.963266 311.52539 74.447266 C 317.66939 74.193932 323.45125 74.309271 328.75391 74.835938 C 331.41391 75.026604 333.94123 75.425229 336.36523 75.726562 C 338.76655 76.158562 341.08299 76.455078 343.23633 76.955078 C 351.39233 78.647078 357.61641 80.612573 362.17773 82.253906 C 362.14441 82.073906 362.11084 81.894844 362.07617 81.714844 C 357.92684 63.416178 340.15801 52.240234 314.52734 52.240234 z M 367.60156 77.908203 C 367.95224 79.712203 368.28282 81.478693 368.60547 83.193359 C 369.28147 86.798693 369.92481 90.216938 370.63281 93.460938 L 370.70508 93.064453 C 370.70508 93.064453 372.02899 93.415344 374.34766 94.027344 C 376.64766 94.647344 379.89973 95.580141 383.78906 96.744141 C 385.72506 97.346807 387.8204 98.001359 390.03906 98.693359 C 392.24572 99.429359 394.5827 100.14809 396.9707 100.99609 C 399.36405 101.82143 401.83747 102.66876 404.32812 103.60742 C 406.82812 104.50342 409.34552 105.48171 411.85352 106.48438 C 414.3722 107.44437 416.8463 108.54293 419.29297 109.57227 C 421.74097 110.5896 424.09063 111.76602 426.39062 112.80469 C 428.67597 113.88335 430.83444 115.05251 432.89844 116.08984 C 434.94378 117.17918 436.82542 118.31926 438.58008 119.30859 C 440.32808 120.31393 441.83752 121.40658 443.21484 122.28125 C 444.60552 123.14258 445.731 124.02981 446.65234 124.75781 C 448.50434 126.18981 449.56055 127.00977 449.56055 127.00977 C 449.56055 127.00977 448.41114 126.33128 446.39648 125.14062 C 445.39914 124.54063 444.19228 123.81077 442.71094 123.13477 C 441.24162 122.44411 439.64531 121.56621 437.80664 120.79688 C 435.95864 120.04488 433.99199 119.16809 431.86133 118.35742 C 429.70933 117.59609 427.47658 116.72636 425.11523 115.95703 C 422.7339 115.22503 420.32008 114.37293 417.80273 113.68359 C 415.28673 112.97959 412.75834 112.21908 410.17969 111.59375 C 407.61569 110.92575 405.05057 110.28408 402.50391 109.71875 C 399.97191 109.11208 397.4573 108.59003 395.0293 108.08203 C 392.60798 107.5527 390.24035 107.14065 388.01367 106.69531 C 385.77502 106.29798 383.66036 105.92027 381.70703 105.57227 C 378.50168 105.03893 375.7437 104.60568 373.5957 104.29102 C 374.62237 107.19902 375.84267 109.91784 377.36133 112.45117 L 380.22656 115.79492 C 386.49456 123.10826 400.29476 127.49371 416.27344 132.56836 C 429.41344 136.74171 444.30388 141.47241 458.17188 148.87109 C 467.18121 153.67509 478.84602 162.10436 490.16602 173.56836 C 489.98835 172.36136 489.78789 171.07581 489.56445 169.7207 C 488.89414 165.65539 488.00775 160.95316 486.84375 155.78516 C 486.11575 153.32116 485.12265 150.60261 484 147.47461 C 483.36265 145.77328 482.79868 143.93374 482 142.03906 C 481.42268 140.64974 480.81666 139.19379 480.19531 137.70312 C 480.08331 137.57379 479.96942 137.44768 479.85742 137.31836 C 478.12009 135.32503 476.1562 133.4548 474.26953 131.4668 C 472.36285 129.49348 470.25084 127.66089 468.21484 125.71289 C 466.13216 123.81022 463.90637 122.01086 461.73438 120.13086 C 459.47172 118.35354 457.19971 116.55712 454.87305 114.81445 C 452.48371 113.15579 450.17698 111.36807 447.70898 109.80273 C 445.27165 108.20273 442.84794 106.58891 440.33594 105.12891 C 437.86928 103.59824 435.34412 102.19045 432.82812 100.81445 C 430.34547 99.387786 427.76 98.182906 425.27734 96.878906 C 422.73866 95.68024 420.24937 94.455187 417.74805 93.367188 C 412.76537 91.149854 407.86913 89.201333 403.17578 87.5 C 398.47713 85.810667 393.99445 84.342052 389.81445 83.136719 C 381.46913 80.682052 374.39444 79.150901 369.45312 78.240234 C 368.79713 78.117568 368.18291 78.008203 367.60156 77.908203 z M 186.49805 96.296875 C 186.49805 96.296875 185.85572 97.226703 184.65039 98.970703 C 183.44239 100.71337 181.74004 103.30367 179.60938 106.625 C 177.50271 109.95967 175.0128 114.05329 172.43945 118.89062 C 169.87145 123.73196 167.20759 129.30592 164.68359 135.53125 C 162.17159 141.76058 159.90122 148.67905 158.0332 156.12305 C 156.20255 163.57771 154.82961 171.56706 153.98828 179.90039 C 153.12028 188.23239 152.89552 196.91056 152.96484 205.72656 C 153.06484 214.53991 153.62676 223.52118 154.35742 232.47852 C 155.75876 250.41318 158.29968 268.25347 160.31836 285.10547 C 161.34903 293.52814 162.15461 301.72588 162.47461 309.56055 C 162.76978 316.40771 162.58192 323.00552 161.66016 329.10547 C 161.66016 329.10547 161.66016 329.10742 161.66016 329.10742 C 161.52855 329.97819 161.38096 330.83975 161.21875 331.68945 C 160.56942 335.0828 159.66933 338.2996 158.5 341.23828 C 157.31333 344.1716 155.89646 346.83188 154.3418 349.17188 C 151.22846 353.86919 147.59527 357.21858 144.44727 359.64258 C 141.28727 362.08391 138.53721 363.58912 136.67188 364.5918 C 134.79721 365.58645 133.77344 366.06055 133.77344 366.06055 C 133.77344 366.06055 134.76145 365.51019 136.55078 364.38086 C 138.34278 363.26219 140.90734 361.50298 143.88867 358.95898 C 146.84601 356.40565 150.19067 352.94401 152.91602 348.27734 C 155.67335 343.63469 157.67571 337.814 158.65039 331.25 C 159.63172 324.68067 159.60336 317.41009 159.08203 309.74609 C 158.56203 302.07277 157.45941 293.99444 156.33008 285.62109 C 155.18208 277.24776 153.84559 268.58938 152.71094 259.74805 C 151.57227 250.91071 150.5473 241.89752 149.7793 232.85352 C 149.03395 223.80552 148.56391 214.73567 148.50391 205.76367 C 148.43856 196.79967 148.89911 187.95447 149.92578 179.45312 C 151.88311 162.42381 156.52604 146.89915 162.2207 134.48047 C 167.82337 121.98447 174.26942 112.55319 178.85742 106.11719 C 181.16142 102.89452 183.12327 100.46707 184.44727 98.816406 C 185.7846 97.173753 186.49805 96.296875 186.49805 96.296875 z M 382.08398 125.39648 C 384.89866 135.84448 394.67543 155.74162 428.52344 174.48828 C 459.6981 191.75228 476.70045 217.3435 479.06445 250.54883 C 480.88845 276.15816 474.17311 306.79565 458.53711 344.20898 C 443.53579 380.10098 436.12363 407.52729 435.87695 428.05664 C 435.6703 445.27931 442.62052 464.58338 452.7832 474.99805 C 457.2892 479.61655 462.26953 483.37957 467.70117 486.28125 C 468.60645 486.76486 469.52286 487.22453 470.45312 487.66016 C 478.82587 491.58132 488.20638 493.55664 498.51953 493.55664 C 516.1422 493.55664 532.84784 487.74029 543.33984 483.12695 C 541.41452 483.22562 539.25867 483.29926 536.86133 483.30859 C 531.38799 483.31926 524.69399 483.19114 517.05664 481.98047 C 509.45932 480.7618 500.73653 478.68773 492.14453 473.78906 C 487.86721 471.3544 483.65818 468.20132 479.96484 464.22266 C 476.2475 460.26799 473.18492 455.43144 470.90625 450.16211 C 466.31825 439.56344 464.91447 427.45235 465.36914 415.42969 C 465.82379 403.36034 467.71952 391.145 470.46484 379.04102 C 473.21419 366.93035 476.62354 354.86492 480.1582 342.90625 C 483.76886 330.97292 487.60048 319.1662 491.03516 307.51953 C 494.41116 295.86753 497.72305 284.43484 499.76172 273.29883 C 501.84837 262.22418 502.30377 251.48619 500.81445 241.38086 C 500.08377 236.33686 498.91849 231.48334 497.42383 226.88867 C 495.98115 222.27801 494.20895 217.92018 492.23828 213.85352 C 490.26495 209.78685 488.08538 206.01587 485.83203 202.5332 C 483.60538 199.0332 481.28774 195.82758 478.98242 192.90625 C 474.32242 187.09958 469.78022 182.3848 465.82422 178.7168 C 461.86022 175.06213 458.54131 172.37424 456.22266 170.62891 C 453.90666 168.86491 452.63086 167.96094 452.63086 167.96094 C 452.63086 167.96094 452.97324 168.14214 453.64258 168.49414 C 454.30658 168.85414 455.30907 169.3477 456.56641 170.0957 C 459.10641 171.55304 462.81598 173.74334 467.22266 177.02734 C 471.64266 180.28201 476.82895 184.55139 482.1543 190.13672 C 484.81295 192.93005 487.51959 196.03132 490.18359 199.47266 C 492.82227 202.93132 495.39473 206.73915 497.80273 210.89648 C 500.20539 215.05515 502.43556 219.5704 504.35156 224.42773 C 506.21956 229.2984 507.76615 234.50704 508.85547 239.98438 C 509.94482 245.45771 510.57458 251.19918 510.64258 257.08984 C 510.68524 258.56184 510.63991 260.042 510.55859 261.52734 L 510.44922 263.79102 L 510.27734 265.95703 C 510.00934 268.9757 509.64671 271.90095 509.19336 274.87695 C 507.35071 286.71829 504.43934 298.58464 501.02734 310.41797 C 497.64066 322.2593 493.97973 334.14729 490.42773 346.00195 C 486.80108 357.83262 483.33734 369.65962 480.55469 381.37695 C 477.79734 393.08629 475.46953 404.66948 474.76953 415.88281 C 474.09886 427.04815 474.76934 437.9093 478.27734 447.16797 C 478.70484 448.32747 479.1779 449.45559 479.69141 450.55273 C 483.28592 458.23272 488.90218 464.35986 495.33984 468.58203 C 502.70384 473.42736 510.67815 476.18552 517.85547 477.99219 C 525.07547 479.74952 531.5843 480.64589 536.95898 481.19922 C 540.48298 481.53789 543.51953 481.76926 546.01953 481.91992 C 546.03153 481.91326 546.04791 481.90706 546.05859 481.90039 C 525.27725 478.04706 510.32502 468.91435 501.54102 454.67969 C 480.10902 419.95302 498.17331 360.86491 516.30664 313.26758 C 530.06664 277.14891 527.57127 240.87819 509.08594 208.38086 C 493.77927 181.47286 470.53458 162.42506 455.28125 154.28906 C 441.9079 147.15573 427.30072 142.51521 414.41406 138.42188 C 401.59806 134.35121 390.11333 130.70316 382.08398 125.39648 z M 442.11719 190.9707 C 461.01319 218.60937 476.44151 258.32749 456.49219 306.32617 C 440.78551 344.12217 431.91624 374.74593 429.37891 399.94727 C 428.27891 410.89259 428.40859 420.73852 429.75391 429.47852 C 429.74991 428.98118 429.72638 428.47842 429.73438 427.98242 C 429.99303 406.35442 437.34649 378.98375 452.86914 341.84375 C 482.91182 269.95442 479.60385 221.41204 442.11719 190.9707 z M 235.86719 223.44531 C 234.38719 223.52531 232.90931 223.66215 231.44531 223.77148 C 229.97863 223.83815 228.5341 224.09938 227.10742 224.35938 C 224.5261 224.70071 222.07131 225.43595 219.69531 226.11328 C 220.16866 227.87195 220.66875 229.65241 221.19141 231.45508 C 223.36875 231.14974 225.57831 230.82048 227.84766 230.75781 C 229.14366 230.66848 230.4451 230.57588 231.75977 230.67188 C 233.0651 230.71987 234.37685 230.76645 235.6875 230.81445 C 238.29818 231.22379 240.89943 231.41422 243.38477 232.21289 C 244.63409 232.53956 245.8607 232.88878 247.08203 233.16211 C 248.27803 233.59011 249.47518 233.93173 250.64453 234.28906 C 251.81786 234.6424 253.00677 234.8368 254.13477 235.2168 C 255.26545 235.57946 256.38758 235.89479 257.49023 236.18945 C 258.58357 236.51212 259.68602 236.72635 260.7207 237.04102 C 261.7567 237.36768 262.75047 237.70438 263.73047 237.98438 C 265.66515 238.60037 267.54178 238.984 269.14844 239.5 C 270.75644 240.01067 272.19034 240.42966 273.40234 240.73633 C 275.821 241.36166 277.31445 241.60023 277.31445 241.60156 L 277.80078 240.81836 C 277.80078 240.81969 276.87459 239.67695 275.05859 237.87695 C 274.15325 236.97162 273.01383 235.91952 271.67383 234.74219 C 270.34315 233.55019 268.65264 232.49158 266.83398 231.26758 C 265.9233 230.65691 264.94541 230.06693 263.94141 229.43359 C 262.90141 228.87226 261.78988 228.34903 260.64453 227.81836 C 259.50053 227.28369 258.31394 226.74504 257.08594 226.23438 C 255.86994 225.69571 254.51559 225.41525 253.18359 225.03125 C 251.83027 224.70992 250.46259 224.35775 249.05859 224.09375 C 247.62659 223.92175 246.16828 223.81293 244.71094 223.68359 C 243.25628 223.54493 241.79473 223.41994 240.30273 223.47461 C 238.82007 223.49328 237.34319 223.44798 235.86719 223.44531 z M 377.11133 223.44531 C 375.63667 223.44798 374.15783 223.49132 372.67383 223.47266 C 372.30149 223.45899 371.92986 223.45654 371.56055 223.46289 C 371.19123 223.46924 370.82395 223.48478 370.45703 223.50586 C 369.7232 223.54803 368.99362 223.61426 368.26562 223.68359 C 367.53763 223.74893 366.80932 223.80821 366.08398 223.87305 C 365.35865 223.93788 364.63653 224.00837 363.92188 224.0957 C 362.51654 224.35704 361.14887 224.70992 359.79688 225.03125 C 358.46354 225.41525 357.10858 225.69571 355.89258 226.23438 C 354.66458 226.74504 353.4787 227.28236 352.33203 227.81836 C 351.75936 228.08303 351.1952 228.34773 350.64453 228.61523 C 350.09386 228.88273 349.55644 229.15359 349.03711 229.43359 C 348.03044 230.06693 347.0552 230.65691 346.14453 231.26758 C 344.32586 232.49158 342.63607 233.55019 341.30273 234.74219 C 339.9614 235.91952 338.82454 236.97162 337.92188 237.87695 C 336.10454 239.67695 335.17773 240.81969 335.17773 240.81836 L 335.66211 241.60156 C 335.66211 241.60023 337.15822 241.36166 339.57422 240.73633 C 340.78757 240.43099 342.22208 240.01067 343.83008 239.5 C 345.43674 238.98533 347.31277 238.60099 349.24609 237.98633 C 350.22477 237.70633 351.22059 237.36768 352.25391 237.04102 C 353.28991 236.72502 354.39433 236.51212 355.48633 236.18945 C 356.58901 235.89479 357.71443 235.5808 358.84375 235.2168 C 359.40775 235.0268 359.98548 234.88219 360.57031 234.74219 C 361.15515 234.60219 361.74603 234.46573 362.33203 234.28906 C 363.50268 233.93173 364.69988 233.59144 365.89453 233.16211 C 367.11588 232.88878 368.34307 232.54089 369.59375 232.21289 C 372.07775 231.41422 374.68036 231.22245 377.29102 230.81445 C 378.6017 230.76512 379.91012 230.71792 381.2168 230.66992 C 382.5328 230.57392 383.83157 230.66715 385.12891 230.75781 C 387.73557 230.82848 390.26921 231.25651 392.75586 231.58984 C 395.19986 232.12584 397.58994 232.62474 399.80859 233.33008 C 400.93526 233.63274 402.02083 233.96995 403.04883 234.36328 C 404.08217 234.74328 405.10339 235.0636 406.05273 235.46094 C 407.95405 236.2436 409.71047 236.96846 411.23047 237.70312 C 412.76515 238.39779 414.09257 239.06674 415.19922 239.58008 C 417.40589 240.64141 418.66602 241.24609 418.66602 241.24609 L 419.14062 240.45703 C 419.14062 240.45703 418.0092 239.62769 416.0332 238.17969 C 414.0572 236.72102 411.16995 234.71296 407.50195 232.51562 C 406.59127 231.95429 405.59136 231.45205 404.58203 230.88672 C 403.57403 230.30805 402.49785 229.77558 401.36719 229.26758 C 399.15119 228.13958 396.66566 227.29575 394.09766 226.34375 C 391.47098 225.61175 388.74844 224.74071 385.87109 224.35938 C 384.44309 224.09938 382.9979 223.83815 381.53125 223.77148 C 380.0659 223.66215 378.59133 223.52531 377.11133 223.44531 z M 114.95312 239.43164 C 109.85979 284.58364 95.243911 312.79723 81.142578 337.36523 C 83.167911 335.38123 85.223484 333.21553 87.271484 330.88086 C 88.695484 329.35019 89.941365 327.59034 91.332031 325.90234 C 92.618698 324.12901 93.957323 322.33517 95.222656 320.45117 C 97.722656 316.65251 100.04481 312.57182 102.13281 308.28516 C 104.18348 303.98516 106.06372 299.507 107.51172 294.875 C 109.05572 290.27767 110.33301 285.57891 111.26367 280.87891 C 112.21701 276.18423 113.02372 271.52021 113.51172 266.96289 C 114.03039 262.40821 114.40423 257.97967 114.60156 253.76367 C 114.81356 249.55034 114.90131 245.55085 114.94531 241.85352 C 114.95065 241.02818 114.95179 240.22497 114.95312 239.43164 z M 434.71875 322.55273 C 434.71875 322.55273 434.56525 323.8667 434.28125 326.33203 C 434.06525 328.79603 433.5282 332.39074 432.9082 336.94141 C 432.13352 341.47341 431.22155 346.96953 429.68555 353.13086 C 429.34288 354.68019 428.8975 356.25181 428.4375 357.86914 C 428.00018 359.49314 427.51527 361.15079 426.94727 362.82812 C 426.42993 364.52146 425.88833 366.24714 425.23633 367.98047 C 424.92433 368.85247 424.61102 369.73238 424.29102 370.62305 C 423.93502 371.49771 423.57556 372.38268 423.21289 373.27734 C 420.29289 380.40801 416.46781 387.80922 411.50781 394.94922 C 409.01715 398.51322 406.18326 401.95888 403.08594 405.26953 C 400.00726 408.59888 396.61722 411.76151 392.94922 414.71484 C 389.27857 417.67884 385.35811 420.44111 381.16211 423.03711 C 379.00743 424.35844 376.83625 425.68877 374.65625 427.02344 C 372.4149 428.41677 370.3703 429.68413 368.1543 430.9668 C 359.42496 436.0668 350.17973 440.64409 340.70508 444.35742 C 331.25441 448.00676 321.3723 450.81746 311.9043 451.4668 C 307.04298 451.81746 302.30128 451.54931 297.61328 450.80664 C 292.93193 450.08931 288.36207 448.8478 283.96875 447.23047 C 275.12607 444.08114 267.06525 439.40246 259.50391 434.5918 C 255.65992 432.17713 251.92007 429.82678 248.30273 427.55078 C 244.70407 425.30011 241.28862 423.09119 238.08594 420.86719 C 231.65128 416.48052 226.08155 412.01286 221.68555 407.51953 C 220.01223 405.83418 218.50664 404.14704 217.16797 402.48438 C 217.27864 404.22837 217.4382 406.1037 217.6582 408.0957 C 218.1102 408.6877 218.57387 409.27973 219.06055 409.87305 C 223.24321 414.96373 228.6241 420.10883 234.85742 425.1875 C 237.99477 427.69817 241.34441 430.19946 244.81641 432.7168 C 246.53506 433.96613 248.28002 435.23606 250.05469 436.52539 C 251.81602 437.85472 253.60465 439.2016 255.41797 440.57227 C 262.78597 445.9936 271.06176 451.51734 280.64844 455.63867 C 285.44176 457.66801 290.56171 459.29795 295.90039 460.36328 C 301.22439 461.41795 306.82794 461.88397 312.33594 461.66797 C 323.63994 461.15464 334.33888 458.22518 344.54688 454.33984 C 354.75619 450.45584 364.4202 445.52058 373.54688 440.03125 C 375.79754 438.67258 378.12266 437.17197 380.22266 435.80664 C 382.30532 434.46797 384.54942 433.09229 386.71875 431.62695 C 391.08275 428.72562 395.30605 425.55773 399.2207 422.17773 C 403.10737 418.75107 406.6882 415.10417 409.9082 411.29883 C 413.1002 407.46951 415.93639 403.4987 418.40039 399.4707 C 420.84974 395.43336 422.97626 391.3722 424.79492 387.35352 C 424.84826 387.23086 424.89722 387.10898 424.94922 386.98633 C 426.62922 383.06099 428.07548 379.20035 429.2168 375.42969 C 429.5168 374.46035 429.80956 373.50145 430.10156 372.55078 C 430.35356 371.59211 430.60488 370.64241 430.85156 369.70508 C 431.37423 367.83841 431.78274 365.99469 432.16406 364.19336 C 432.56806 362.39869 432.87199 360.63273 433.13867 358.91406 C 433.42799 357.1994 433.70681 355.53611 433.88281 353.91211 C 434.17215 351.89611 434.37836 349.96537 434.54102 348.10938 C 434.9037 344.01738 435.02305 340.32553 435.12305 337.13086 C 435.17638 332.47619 435.07913 328.8329 434.92578 326.35156 C 434.79113 323.8729 434.71875 322.55273 434.71875 322.55273 z M 279.40625 338.83008 C 279.40625 338.83008 279.53846 339.00172 279.86914 339.26172 C 280.20246 339.51905 280.73132 339.8663 281.47266 340.1543 C 282.94066 340.76763 285.18011 341.13621 287.68945 341.54688 C 288.93745 341.74287 290.2757 342.01598 291.45703 342.44531 C 292.04238 342.65865 292.5723 342.93648 292.95898 343.25781 C 293.04165 343.34581 293.14951 343.41839 293.21484 343.51172 L 293.27148 343.57617 L 293.29883 343.60742 L 293.41602 343.7207 L 293.62109 343.9375 C 293.70509 344.05083 294.05849 344.32267 294.28516 344.5 C 294.52516 344.67733 294.72513 344.79021 294.95312 344.93555 C 296.69446 345.93288 298.44114 346.40568 300.23047 346.79102 C 302.01579 347.15102 303.82906 347.32886 305.65039 347.38086 C 307.47306 347.41953 309.29799 347.31863 311.11133 347.0293 C 312.92599 346.69863 314.72158 346.28989 316.51758 345.19922 C 316.96023 344.91389 317.40749 344.57533 317.82617 344.11133 L 318.21875 343.67188 L 318.49023 343.39258 C 318.90489 343.00324 319.39615 342.69312 319.9375 342.45312 C 321.01215 341.93313 322.31078 341.71103 323.55078 341.56836 C 324.79745 341.40969 326.00468 341.28919 327.08203 341.11719 C 328.15668 340.94252 329.09673 340.66914 329.83008 340.36914 C 330.56341 340.05847 331.08288 339.70912 331.4082 339.45312 C 331.73088 339.18913 331.88281 339.03516 331.88281 339.03516 C 331.88281 339.03516 331.67883 339.12395 331.29883 339.25195 C 330.92415 339.39062 330.34756 339.5197 329.62891 339.5957 C 328.90624 339.67837 328.02904 339.64979 327.01172 339.56445 C 325.99439 339.49245 324.83325 339.30793 323.50391 339.19727 C 322.17725 339.11327 320.64216 339.04171 318.91016 339.48438 C 318.05681 339.72437 317.17651 340.10973 316.36719 340.67773 C 316.16319 340.82973 315.90733 341.02025 315.75 341.15625 C 315.59665 341.28292 315.45965 341.41506 315.29297 341.53906 C 315.14897 341.6324 314.92674 341.74704 314.66406 341.8457 C 313.60541 342.2777 312.07416 342.53606 310.54883 342.66406 C 309.00348 342.8014 307.38358 342.8272 305.76758 342.7832 C 304.15158 342.73787 302.53708 342.61292 300.98242 342.40625 C 299.45176 342.19025 297.91486 341.89502 296.76953 341.42969 L 296.39648 341.26367 C 296.30583 341.20367 296.30484 341.28509 296.10352 341.12109 L 295.86523 340.94531 C 295.84814 340.93107 295.8912 340.97371 295.91016 340.99219 L 295.86914 340.95898 L 295.78906 340.89258 L 295.62695 340.75977 C 295.41362 340.57443 295.18228 340.44497 294.96094 340.29297 C 294.05028 339.75964 293.14655 339.48264 292.31055 339.30664 C 290.63187 338.97064 289.1618 339.05146 287.8418 339.07812 C 286.52045 339.11812 285.34645 339.25873 284.31445 339.30273 C 283.28645 339.3454 282.38941 339.39932 281.66406 339.33398 C 280.20141 339.26198 279.40625 338.83008 279.40625 338.83008 z M 298.63281 370.62695 C 297.65243 370.57768 296.70864 370.67966 295.86914 371.00391 C 284.13846 375.53057 275.01603 385.40831 260.60938 385.68164 C 269.80137 395.28564 286.40263 409.82812 307.80664 409.82812 C 308.47543 409.82812 309.13949 409.81492 309.79883 409.78711 C 330.23828 408.92503 346.0972 394.98552 355.00195 385.68164 C 345.99862 385.51081 339.05887 381.58776 332.25586 377.56445 C 328.17406 375.15047 324.14169 372.70141 319.74219 371.00391 C 318.62285 370.57157 317.31703 370.53372 315.98828 370.72266 C 313.33078 371.10053 310.57918 372.37924 309.04102 373.18945 C 308.27193 373.59456 307.80664 373.88281 307.80664 373.88281 C 307.80664 373.88281 302.88114 370.84046 298.63281 370.62695 z M 210.8125 394.85547 L 197.91406 403.14648 C 197.91272 403.15848 197.86162 403.41648 197.76562 403.89648 C 197.72431 404.11783 197.67266 404.39156 197.61133 404.71289 C 197.55798 405.07156 197.49646 405.48459 197.42578 405.94727 C 197.28313 406.87393 197.1757 408.03919 197.04102 409.36719 C 196.9677 410.70719 196.8156 412.22324 196.82227 413.89258 C 196.75692 415.56058 196.82039 417.36835 196.90039 419.29102 C 196.97106 421.21368 197.21369 423.22813 197.42969 425.32812 C 197.80434 427.38946 198.00336 429.59047 198.58203 431.73047 C 198.83536 432.81714 199.0897 433.90915 199.3457 435.00781 C 199.65236 436.09048 200.01947 437.16076 200.35547 438.24609 C 200.96614 440.44476 201.88352 442.52218 202.74219 444.60352 L 203.38477 446.16211 C 203.61411 446.67011 203.89323 447.15058 204.14258 447.64258 C 204.65591 448.62258 205.16211 449.59416 205.66211 450.54883 C 205.91276 451.02616 206.16152 451.50066 206.4082 451.97266 C 206.69487 452.41799 206.97772 452.85635 207.26172 453.29102 C 207.83237 454.16435 208.38896 455.02028 208.93164 455.84961 C 209.96096 457.56828 211.1793 459.00471 212.2793 460.35938 C 213.40195 461.69137 214.32304 463.03544 215.3457 464.02344 C 216.35104 465.0381 217.22851 465.92106 217.95117 466.65039 C 219.40451 468.11306 220.23242 468.95117 220.23242 468.95117 C 220.23242 468.95117 219.29378 468.24133 217.64844 467 C 216.82044 466.37467 215.81802 465.61543 214.66602 464.74609 C 213.4887 463.89276 212.38287 462.69262 211.04688 461.50195 C 209.73353 460.28729 208.27461 458.99124 206.97461 457.39258 C 206.29326 456.61791 205.59356 455.82053 204.87891 455.00586 C 204.52024 454.59786 204.16026 454.18039 203.79492 453.76172 C 203.47092 453.31372 203.14318 452.86163 202.8125 452.4043 C 202.14985 451.48696 201.47758 450.55142 200.79492 449.60742 C 200.45892 449.12742 200.09469 448.66078 199.77734 448.16211 L 198.86914 446.63086 C 197.65182 444.57886 196.36165 442.49958 195.375 440.26758 C 194.851 439.16491 194.29483 438.06974 193.79883 436.95508 C 193.35483 435.82041 192.91523 434.68712 192.47656 433.56445 C 191.52323 431.33112 190.95971 429.01836 190.23438 426.81836 C 189.66903 424.58236 189.08835 422.41098 188.70703 420.32031 C 188.3137 418.22965 187.96162 416.24148 187.76562 414.38281 C 187.53363 412.78281 187.44126 411.30992 187.33594 409.94727 L 178.28906 415.76367 C 178.19306 416.74101 178.08845 418.2006 178.06445 420.08594 C 178.02977 423.93927 178.34606 429.57544 179.91406 436.16211 C 181.46074 442.73678 184.30978 450.25795 188.92578 457.50195 C 190.06578 459.32462 191.31327 461.09692 192.69727 462.90625 C 194.03461 464.66092 195.49209 466.44192 196.99609 468.16992 C 200.01741 471.64459 203.31453 475.00786 206.75586 478.25586 C 213.63718 484.75853 221.09343 490.76998 227.91211 496.69531 C 234.72543 502.60331 240.9142 508.54829 245.01953 514.62695 C 247.07953 517.64962 248.59193 520.67452 249.55859 523.47852 C 250.53593 526.27852 250.97539 528.84204 251.13672 530.94336 C 251.29404 533.05271 251.21835 534.70946 251.125 535.82812 C 251.009 536.94812 250.94727 537.54492 250.94727 537.54492 C 250.94727 537.54492 250.96967 536.94749 251.01367 535.82617 C 251.03367 534.70617 250.99708 533.05546 250.70508 530.99414 C 250.41042 528.93414 249.81674 526.4605 248.69141 523.8125 C 247.57541 521.15783 245.92475 518.33807 243.74609 515.55273 C 239.39943 509.94607 233.01709 504.56592 225.89844 499.16992 C 218.77844 493.75792 210.90987 488.22787 203.42188 482.0332 C 199.67788 478.93987 196.03044 475.68271 192.62109 472.24805 C 190.91177 470.52405 189.28271 468.78298 187.69336 466.95898 C 186.15604 465.18698 184.61414 463.33455 183.2168 461.44922 C 177.5488 453.93322 173.69367 445.81769 171.375 438.56836 C 169.34967 432.29903 168.42257 426.69367 168.00391 422.375 L 159.60547 427.77539 C 154.72814 465.43939 187.4392 492.86894 213.7832 514.96094 C 227.82986 526.73826 238.92291 536.0425 241.60156 544.83984 C 245.97891 559.22784 241.58049 573.03954 236.95117 582.29688 C 237.88917 581.61754 238.80465 580.92293 239.69727 580.2168 C 253.08646 569.6248 261.3482 556.04618 263.8457 540.29492 C 265.2702 531.32043 264.74015 521.81631 262.46289 512.35352 C 262.27312 511.56495 262.07134 510.77595 261.85742 509.98828 C 257.79306 495.02256 249.39305 480.28007 237.48242 468.01953 C 213.29308 443.11953 210.7245 408.91814 210.8125 394.85547 z M 153.24023 429.52539 C 141.1989 437.03072 130.36782 444.29891 120.70117 451.37891 C 120.74251 451.46957 120.79128 451.5751 120.86328 451.73242 C 121.00861 452.07242 121.22391 452.5789 121.50391 453.24023 C 122.03324 454.5429 122.75285 456.43739 123.51953 458.88672 C 125.0062 463.77605 126.88955 470.93964 126.82422 479.93164 C 126.80555 484.40631 126.12393 489.34279 124.47461 494.32812 C 122.74261 499.27747 119.93722 504.25321 115.94922 508.31055 C 115.46753 508.83287 114.96278 509.33543 114.44336 509.82031 C 112.8843 511.27542 111.17515 512.58023 109.43555 513.83594 C 108.22755 514.59327 107.02987 515.37908 105.7832 516.09375 C 104.60054 516.73908 103.47466 517.39826 102.22266 518.04492 C 97.325323 520.65426 92.356708 523.00566 87.359375 525.32031 C 77.402042 529.94298 67.424541 534.33174 58.921875 539.78906 C 58.072542 540.33306 57.250927 540.89621 56.433594 541.46289 C 56.38026 545.75222 56.736807 550.06853 57.494141 554.42188 L 58.767578 561.74414 L 52.697266 557.45898 C 52.394599 557.24298 49.437333 555.08533 46 550.5 C 43.532 553.288 41.507719 556.23965 40.011719 559.20898 C 38.214372 562.80498 37.055755 566.37043 36.482422 569.62109 C 36.138422 571.23709 35.998453 572.78571 35.814453 574.20703 C 35.74512 575.63771 35.613281 576.95707 35.613281 578.15039 C 35.625281 579.34639 35.635198 580.41246 35.644531 581.3418 C 35.687198 582.2698 35.765307 583.05727 35.806641 583.69727 C 35.830641 584.02127 35.852427 584.30607 35.871094 584.55273 C 39.90976 575.4234 52.012615 562.60394 87.863281 559.05859 C 138.8366 554.01727 166.12648 525.88595 167.64648 477.36328 C 157.91315 463.43395 151.6269 447.58272 153.24023 429.52539 z M 111.98242 457.96094 C 105.68642 462.86494 99.955297 467.68736 94.779297 472.44336 C 96.991297 476.30336 98.447823 480.68329 98.285156 485.50195 C 97.84249 498.66462 85.573119 510.91292 61.814453 521.90625 C 60.93712 522.31025 60.09862 522.72667 59.251953 523.13867 C 57.85462 527.84133 56.977807 532.54471 56.619141 537.27539 C 56.748474 537.17939 56.869333 537.07771 57 536.98438 C 65.461333 530.79238 75.345125 525.71829 84.953125 520.51562 C 89.750458 517.92496 94.541146 515.27916 99.007812 512.53516 C 100.11715 511.87649 101.26929 511.10901 102.39062 510.40234 C 103.42396 509.72234 104.4051 508.9793 105.39844 508.2793 C 107.26244 506.73396 109.05857 505.16771 110.50391 503.37305 C 113.53191 499.89171 115.4478 495.86905 116.5918 491.87305 C 117.6438 487.83305 117.97524 483.81412 117.75391 480.07812 C 117.35924 472.58613 115.34897 466.38957 113.79297 462.24023 C 113.09697 460.4149 112.46909 458.9956 111.98242 457.96094 z M 145.0918 468.35742 C 146.03096 468.38478 147.0313 468.77752 147.2793 470.24219 C 147.5353 471.70619 150.37063 474.36097 150.5293 476.43164 C 150.6613 478.49964 150.91449 481.34874 150.78516 483.91406 C 150.69316 486.48074 149.13409 488.53446 148.60742 491.45312 C 148.14742 494.38247 149.1653 498.68568 148.16797 501.79102 C 147.66397 503.34035 147.36404 506.76264 146.69336 508.30664 C 146.09469 509.88531 143.32959 513.12911 142.57227 514.67578 C 140.95227 517.71311 142.07116 520.09947 139.89648 522.85547 C 137.77648 525.65414 134.0952 527.44409 131.56055 529.77344 C 130.30053 530.94809 127.44977 531.85068 126.14844 532.91602 C 124.7951 533.91468 123.78941 534.59634 122.44141 535.51367 C 121.04941 536.35634 118.56189 537.16578 117.19922 537.92578 C 115.82322 538.66178 114.17761 539.27511 112.84961 539.92578 C 111.53094 540.59511 110.04716 540.33175 108.75781 540.84375 C 107.46049 541.33042 108.06873 543.42234 106.83008 543.76367 C 105.60608 544.13167 102.58084 544.1126 101.46484 544.44727 C 100.34884 544.7726 98.757286 545.93649 97.751953 546.17383 C 97.247286 546.28816 96.781136 546.40285 96.333984 546.5 C 95.886832 546.59715 95.458492 546.67768 95.027344 546.7207 C 94.165049 546.80675 93.293434 546.74667 92.246094 546.39453 C 89.310094 546.7852 87.513672 546.19141 87.513672 546.19141 C 87.513672 546.19141 85.99199 541.93658 88.722656 540.89258 L 92.179688 540.64453 C 93.557021 540.1672 94.305302 542.37118 96.167969 541.58984 C 98.043969 540.84718 98.9635 540.43215 101.1875 539.38281 C 102.31417 538.88681 104.53613 538.11993 105.68945 537.47461 C 106.83613 536.81728 107.961 535.15624 109.125 534.37891 C 110.30367 533.63091 111.42429 533.41508 112.62695 532.59375 C 113.81629 531.75908 115.27704 528.68173 116.51172 527.81641 C 117.68639 526.88173 119.6227 527.04408 120.83203 526.08008 C 121.95736 525.02808 123.54025 523.92155 124.65625 522.82422 C 126.8669 520.60822 129.32427 520.41465 131.21094 517.86133 C 133.20692 515.39198 132.0441 512.31709 133.63477 509.62109 C 135.14142 506.87843 132.68548 502.49717 133.79883 499.70117 C 134.89348 496.90517 139.72274 493.16466 140.44141 490.47266 C 141.18407 487.79132 137.32843 486.81106 137.78711 484.40039 C 138.23643 481.98572 140.15343 479.74476 140.41211 477.74609 C 140.60678 475.74609 141.17668 474.35639 141.25 472.90039 C 141.44068 469.98972 143.27539 468.66797 143.27539 468.66797 C 143.27539 468.66797 144.15265 468.33008 145.0918 468.35742 z M 90.166016 476.80469 C 83.462016 483.34069 77.808781 489.76277 73.160156 496.11914 C 71.610615 498.23793 70.17175 500.35103 68.84375 502.45703 C 68.078417 505.96636 67.10824 509.50697 65.878906 513.04297 C 82.765572 504.16297 91.822484 494.64717 92.146484 485.3125 C 92.251818 482.2925 91.464682 479.43535 90.166016 476.80469 z M 173.31836 484.82812 C 173.31036 484.91479 173.30354 485.0038 173.29688 485.0918 L 173.5293 485.08789 C 173.4573 485.00122 173.38904 484.91346 173.31836 484.82812 z M 179.82617 492.24805 C 180.01285 496.11871 180.23384 501.3206 180.22852 507.44727 C 180.21784 514.35527 179.93693 522.44881 178.82227 531.07812 C 177.69293 539.68612 175.76204 548.91493 171.94336 557.57227 C 170.03136 561.8856 167.61935 566.03529 164.58203 569.64062 C 163.82603 570.54129 163.02984 571.4068 162.20117 572.23047 C 161.3725 573.05414 160.51114 573.83569 159.61914 574.56836 C 158.79514 575.25503 157.92391 575.94243 157.00391 576.62109 C 156.10923 577.31309 155.20389 577.90458 154.31055 578.53125 C 147.06921 583.35525 139.6537 586.52129 133.20703 588.75195 C 126.74838 590.98529 121.21592 592.27769 117.33594 593.06836 C 113.44927 593.84836 111.20312 594.10938 111.20312 594.10938 C 111.20312 594.10938 113.42461 593.6748 117.22461 592.60547 C 121.0166 591.52147 126.40213 589.8161 132.57812 587.13477 C 138.73947 584.46143 145.73277 580.79479 152.24609 575.68945 C 153.03677 575.03479 153.87486 574.39308 154.63086 573.70508 L 155.78711 572.68164 L 156.96875 571.55859 C 158.45143 570.13859 159.81497 568.57047 161.04297 566.86914 C 163.50432 563.47447 165.40728 559.58672 166.86328 555.52539 C 169.77263 547.37472 170.97207 538.6054 171.44141 530.38672 C 171.89873 522.14672 171.60748 514.39301 171.13281 507.76367 C 170.97281 505.54234 170.79088 503.45786 170.60156 501.50586 C 166.09223 519.79253 156.94211 534.4589 143.43945 545.15625 C 143.20345 565.60158 127.03107 572.4956 108.31641 580.46094 C 89.85106 588.31694 66.872802 598.09762 50.855469 624.12695 C 20.088803 674.12429 62.5056 710.43746 90.572266 734.4668 L 92.212891 735.87109 C 101.96624 744.23243 107.10314 753.45644 107.48047 763.28711 C 107.50847 764.00978 107.50767 764.72249 107.48633 765.42383 C 107.76767 764.44916 108.02477 763.44625 108.24609 762.40625 C 109.05409 758.46358 109.29616 754.10128 108.66016 749.61328 C 108.02549 745.12261 106.43947 740.55634 104.13281 736.15234 C 101.82348 731.73634 98.640242 727.58819 95.101562 723.63086 C 93.332243 721.64953 91.418508 719.75264 89.423828 717.91797 C 88.431828 716.9873 87.414344 716.12095 86.402344 715.23828 L 86.400391 715.23828 L 83.1875 712.57227 C 78.767487 708.9416 74.5987 704.96745 70.748047 700.80078 C 66.884047 696.64345 63.52474 692.10665 60.691406 687.44531 C 57.85406 682.78665 55.683086 677.89232 54.316406 673.04297 C 52.935086 668.19765 52.354609 663.4125 52.474609 659.03516 C 52.579943 654.6565 53.309609 650.69637 54.349609 647.3457 C 55.360289 643.97904 56.648313 641.20896 57.820312 639.01562 C 58.984312 636.81429 60.108615 635.21815 60.863281 634.13281 C 61.625935 633.05148 62.060547 632.5 62.060547 632.5 C 62.060547 632.5 61.720437 633.11873 61.148438 634.30273 C 60.571118 635.4814 59.790214 637.24753 58.935547 639.51953 C 58.092867 641.7982 57.258672 644.62501 56.638672 647.90234 C 56.029325 651.18101 55.781133 654.93284 56.007812 658.96484 C 56.274479 663.00218 57.190706 667.29777 58.693359 671.64844 C 60.230706 675.99644 62.524711 680.32836 65.275391 684.56836 C 68.038044 688.81369 71.445037 692.83772 75.095703 696.76172 C 78.78369 700.66039 82.813844 704.38518 87.089844 707.83984 L 90.316406 710.58398 C 91.404406 711.55332 92.504476 712.51705 93.535156 713.51172 C 95.628476 715.48505 97.64601 717.53593 99.527344 719.69727 C 103.31534 723.98927 106.52931 728.7398 108.94531 733.73047 C 111.38398 738.70914 112.79603 744.02571 113.19336 749.12305 C 113.63468 754.22705 112.90594 759.07868 111.64062 763.27734 C 110.37529 767.49334 108.53376 771.06958 106.64844 774.01758 C 106.19376 774.73758 105.73539 775.41193 105.27539 776.05859 C 105.03006 776.69726 104.77448 777.32259 104.50781 777.91992 C 105.12631 777.51717 105.73101 777.10849 106.32031 776.69336 C 115.15989 770.46645 120.71086 762.84891 122.88086 753.94141 C 124.36886 747.83207 127.27112 725.45807 102.14844 694.05273 C 98.497613 689.4894 92.381561 681.8438 89.679688 673.27734 C 89.544594 672.84902 89.418067 672.41899 89.300781 671.98633 C 88.010638 667.2271 87.843516 662.22141 89.775391 657.33008 C 94.972724 644.17008 113.39137 635.4709 146.08203 630.74023 C 154.06954 629.58416 161.53625 627.71144 168.47461 625.12891 C 169.46587 624.75993 170.44829 624.37452 171.41797 623.97656 C 194.69016 614.42556 211.73673 596.53501 222.26172 570.54102 C 226.9004 559.08502 229.44259 547.85603 230.83594 538.83203 C 228.33194 535.93335 225.0754 532.8091 221.33008 529.48242 C 221.1594 531.94777 220.91739 534.92529 220.52539 538.30664 C 219.96539 543.24664 219.05047 549.02556 217.50781 555.10156 C 216.72247 558.13356 215.76472 561.23603 214.63672 564.33203 C 213.48339 567.4187 212.12175 570.48494 210.59375 573.46094 C 209.02843 576.4196 207.26009 579.26159 205.35742 581.93359 C 203.38274 584.55893 201.35602 587.06671 199.13867 589.24805 C 198.08667 590.38805 196.90208 591.36263 195.83008 592.39062 C 194.68342 593.34129 193.57383 594.28072 192.45117 595.13672 C 190.19117 596.83539 187.97065 598.29773 185.86133 599.53906 C 184.79465 600.1324 183.77411 600.70147 182.80078 601.24414 C 181.80211 601.73081 180.8555 602.19229 179.96484 602.62695 C 178.1795 603.47229 176.56482 604.0792 175.27148 604.64453 C 172.61148 605.59386 171.0918 606.13672 171.0918 606.13672 C 171.0918 606.13672 172.54338 605.43999 175.08203 604.22266 C 176.30738 603.52666 177.83273 602.76467 179.49805 601.75 C 180.32473 601.234 181.20615 600.68537 182.13281 600.10938 C 183.02347 599.48138 183.96213 598.82143 184.93945 598.13477 C 186.85945 596.71743 188.85248 595.07909 190.8418 593.23242 C 191.8298 592.30176 192.7912 591.29458 193.7832 590.28125 C 194.70054 589.19325 195.72094 588.16571 196.59961 586.98438 C 198.46894 584.71771 200.11603 582.16821 201.69336 579.54688 C 203.20003 576.87754 204.55821 574.08303 205.71289 571.20703 C 206.83421 568.31636 207.79069 565.36802 208.55469 562.41602 C 209.29203 559.45468 209.87659 556.50881 210.30859 553.63281 C 211.14459 547.87015 211.43461 542.41991 211.47461 537.72656 C 211.52661 533.03456 211.36157 529.09498 211.24023 526.32031 C 211.15623 524.64563 211.09459 522.30536 211.05859 520.69336 C 210.65059 520.35068 210.24659 520.0133 209.83594 519.66797 C 206.45194 516.83064 202.90715 513.8549 199.3125 510.74023 C 199.34583 512.16957 199.36728 513.76381 199.36328 515.50781 C 199.36063 522.67447 198.91549 532.24831 197.32617 541.68164 C 196.92884 544.04031 196.45344 546.38121 195.91211 548.67188 C 195.34944 550.95721 194.74787 553.19169 194.0332 555.31836 C 193.6852 556.38369 193.32978 557.42507 192.92578 558.42773 C 192.55513 559.43973 192.14746 560.41104 191.7168 561.3457 C 191.3208 562.29237 190.86792 563.18306 190.41992 564.03906 C 189.99992 564.9084 189.52064 565.71185 189.05664 566.47852 C 188.61796 567.25852 188.1414 567.96953 187.66406 568.63086 C 187.2054 569.30553 186.76579 569.94161 186.28711 570.48828 C 185.81911 571.04428 185.41442 571.59026 184.98242 572.04492 C 184.5451 572.49292 184.14198 572.90668 183.7793 573.27734 C 183.0713 574.03734 182.3858 574.50033 181.98047 574.875 C 181.55647 575.235 181.33008 575.42383 181.33008 575.42383 C 181.33008 575.42383 181.54595 575.22189 181.94727 574.83789 C 182.32861 574.43389 182.97937 573.93734 183.63672 573.13867 C 183.97405 572.74934 184.34723 572.31894 184.75391 571.84961 C 185.15257 571.37494 185.51927 570.80771 185.94727 570.23438 C 186.38595 569.66638 186.77941 569.01355 187.19141 568.32422 C 187.61806 567.64555 188.04764 566.91895 188.43164 566.12695 C 188.83964 565.34695 189.25779 564.5343 189.61914 563.6543 C 190.00714 562.78896 190.39652 561.89341 190.72852 560.94141 C 191.09384 560.00141 191.43563 559.02639 191.73828 558.01172 C 192.07428 557.01039 192.35937 555.96696 192.63672 554.9043 C 193.20872 552.78563 193.66345 550.55902 194.07812 548.29102 C 194.47144 546.01902 194.79632 543.69458 195.04297 541.36523 C 196.03765 532.03723 195.90056 522.62652 195.47656 515.61719 C 195.26988 512.11052 194.9993 509.19464 194.7793 507.16797 C 194.76195 507.00397 194.74585 506.85832 194.72852 506.70898 C 189.66452 502.17965 184.60085 497.36271 179.82617 492.24805 z M 38.599609 536.47656 C 31.432943 542.9219 27.179828 549.92293 25.923828 557.43359 C 23.869162 569.72026 30.391755 580.8097 34.982422 586.8457 C 35.209089 586.1537 35.489026 585.42121 35.818359 584.67188 C 35.781026 584.40121 35.7395 584.09032 35.6875 583.70898 C 35.606167 583.07298 35.48024 582.28799 35.378906 581.36133 C 35.313573 580.42666 35.237677 579.35625 35.152344 578.15625 C 35.07901 576.95492 35.130615 575.6214 35.113281 574.16406 C 35.209281 572.71606 35.253953 571.13356 35.501953 569.46289 C 35.885953 566.10689 36.847568 562.36338 38.490234 558.49805 C 39.928901 555.14338 41.994557 551.74239 44.587891 548.51172 C 42.506557 545.41172 40.364943 541.42856 38.599609 536.47656 z M 235.72461 546.63672 C 234.14861 554.51672 231.73525 563.46825 228.03125 572.65625 C 221.09525 589.86825 208.56926 609.98738 186.14258 623.35938 C 183.83992 626.32471 180.18881 631.03061 180.13281 631.11328 C 180.07681 631.18928 179.99521 631.29168 179.83789 631.54102 C 179.54189 631.98102 179.09692 632.70639 178.54492 633.65039 C 177.45824 635.55839 175.93661 638.40862 174.44727 642.00195 C 172.96727 645.59262 171.45771 649.91683 170.48438 654.6875 C 169.95238 657.07282 169.63658 659.55863 169.39258 662.11328 C 169.24458 664.65196 169.12584 667.27457 169.36719 669.86523 C 169.40584 671.18123 169.64764 672.45637 169.79297 673.76172 C 170.00629 675.04572 170.27007 676.32502 170.55273 677.5957 C 171.20739 680.10237 171.9869 682.57252 173.01758 684.86719 C 173.53358 686.01385 174.01539 687.16808 174.63672 688.21875 C 175.22872 689.28808 175.77127 690.37141 176.44727 691.33008 C 177.67792 693.34474 179.07865 695.09205 180.36133 696.74805 C 181.05999 697.52538 181.72861 698.27176 182.36328 698.98242 C 182.99528 699.70509 183.61986 700.37065 184.25586 700.94531 C 185.51051 702.10798 186.54725 703.22066 187.53125 703.97266 C 189.44992 705.56066 190.54688 706.4707 190.54688 706.4707 C 190.54688 706.4707 189.28417 705.79976 187.07617 704.62109 C 185.93883 704.06909 184.69877 703.18491 183.18945 702.26758 C 182.42677 701.81691 181.66044 701.27773 180.87109 700.67773 C 180.06977 700.08307 179.22828 699.45997 178.34961 698.80664 C 176.68693 697.38397 174.84104 695.85042 173.0957 693.98242 C 172.1637 693.10109 171.34875 692.07292 170.46875 691.04492 C 169.55942 690.03426 168.77661 688.89676 167.94727 687.74609 C 166.28995 685.44209 164.83918 682.86568 163.50586 680.15234 C 162.88453 678.78034 162.28115 677.37277 161.73047 675.93945 C 161.24915 674.48745 160.67001 673.03054 160.30469 671.5332 C 159.40869 668.55586 158.9028 665.49365 158.4668 662.45898 C 158.1268 659.42698 157.90336 656.40287 157.94336 653.49219 C 157.93403 647.64953 158.64753 642.24106 159.51953 637.65039 C 159.75821 636.40239 160.01664 635.23719 160.2793 634.11719 C 156.07396 635.22652 151.64094 636.14103 146.96094 636.81836 C 140.21027 637.79703 134.13587 638.95229 128.67188 640.26562 C 126.7532 656.53228 129.40879 670.74953 136.66211 682.76953 C 146.04411 698.32353 162.02297 708.18902 177.07422 714.36914 C 178.32849 714.88415 179.57548 715.3729 180.8125 715.83789 C 184.52415 717.23313 188.1376 718.40788 191.53711 719.39453 C 203.30243 722.8092 214.05754 724.46929 220.9082 725.25195 C 220.0772 724.28062 219.2743 723.31272 218.49805 722.34961 C 206.85422 707.90298 201.35945 694.3632 201.75195 681.18945 C 202.37461 660.25211 218.14749 642.78556 233.49414 628.46289 C 248.38349 614.56422 255.71681 591.18263 258.63281 569.16797 C 252.53013 577.8773 244.20965 585.4586 233.82031 591.69727 C 234.00697 592.4386 234.23631 593.61323 234.32031 595.22656 C 234.49497 598.10656 234.13748 602.35266 232.4668 607.11133 C 231.6468 609.48733 230.55801 612.00533 229.11133 614.5 C 227.68467 617.00267 226.00652 619.5498 224.0332 621.98047 C 222.07852 624.4298 219.87653 626.79273 217.50586 629.05273 C 216.28186 630.18207 215.05318 631.32236 213.83984 632.31836 L 212.00781 633.86133 C 211.41581 634.34666 210.85857 634.87357 210.28125 635.37891 C 208.00392 637.42824 205.87816 639.63992 203.91016 641.91992 C 201.97684 644.23059 200.17405 646.58967 198.63672 649.01367 C 197.10472 651.43501 195.72453 653.85577 194.64453 656.25977 C 193.57786 658.66911 192.69878 661.01491 192.05078 663.24023 C 191.43078 665.47091 191.00157 667.56638 190.74023 669.45703 C 190.50423 671.34638 190.40025 673.02206 190.37891 674.41406 C 190.38159 675.80473 190.4028 676.89943 190.4668 677.66211 C 190.5188 678.42211 190.54687 678.82812 190.54688 678.82812 C 190.54688 678.82812 190.39647 678.45152 190.11914 677.74219 C 189.86314 677.03284 189.48016 675.95408 189.16016 674.55273 C 188.49081 671.76341 187.93681 667.55951 188.57812 662.54883 C 189.15547 657.54617 190.92764 651.80547 193.93164 646.24414 C 196.93299 640.67747 201.17997 635.33222 206.16797 630.82422 C 206.8053 630.27755 207.42541 629.70697 208.08008 629.18164 L 209.94336 627.64648 C 211.21536 626.62648 212.36995 625.64735 213.50195 624.66602 C 215.78595 622.64202 217.95091 620.55731 219.93359 618.44531 C 221.89891 616.31998 223.72863 614.19683 225.2793 612.04883 C 226.81395 609.89283 228.17248 607.7798 229.25781 605.73047 C 231.43248 601.63314 232.61523 597.86977 233.11523 595.14844 C 233.38458 593.74044 233.48868 592.62895 233.52734 591.87695 C 232.00334 592.78495 230.44598 593.67144 228.83398 594.52344 L 215.42578 601.58984 L 225.02148 589.86133 C 225.19615 589.64933 242.30861 568.29005 235.72461 546.63672 z M 136.81055 549.85156 C 124.79188 557.49956 109.94775 562.51103 92.427734 564.70703 C 89.755748 570.9497 87.77275 577.34814 86.46875 583.74414 C 88.14575 582.86547 89.816172 582.0313 91.474609 581.23242 C 96.44992 578.8358 101.31416 576.76264 105.91016 574.80664 C 122.12214 567.90664 134.30921 562.6929 136.81055 549.85156 z M 85.5 565.50781 C 58.977334 568.64781 47.892349 577.07019 43.291016 583.88086 C 43.679016 591.56753 45.158979 598.96519 47.820312 605.75586 C 48.782979 608.21453 49.905151 610.56784 51.146484 612.83984 C 59.221151 602.18251 68.398599 594.59629 77.697266 588.76562 C 78.401266 587.68829 79.135302 586.5947 79.917969 585.4707 C 81.069969 578.78137 82.941333 572.07448 85.5 565.50781 z M 132.29688 612.52148 C 133.14104 612.52265 133.94141 612.54455 134.69141 612.56055 C 136.19141 612.60321 137.49707 612.73622 138.56641 612.82422 C 140.70907 613.08289 141.91602 613.30469 141.91602 613.30469 C 141.91602 613.30469 140.71404 613.62092 138.63672 614.04492 C 137.60604 614.28226 136.35397 614.57106 134.91797 614.90039 C 133.50464 615.25639 131.91127 615.6558 130.16992 616.0918 C 129.30459 616.3038 128.41414 616.55727 127.49414 616.83594 C 126.57282 617.0986 125.61962 617.35064 124.6543 617.66797 C 122.71163 618.24264 120.68201 618.89486 118.61133 619.63086 C 116.53133 620.33886 114.42836 621.17563 112.29102 622.01562 C 110.17636 622.90896 108.02479 623.80394 105.93945 624.83594 C 101.72877 626.81727 97.676446 629.09793 94.009766 631.44727 C 92.193766 632.64593 90.453961 633.8363 88.863281 635.04297 C 87.289961 636.26297 85.797065 637.43133 84.511719 638.61133 C 83.253065 639.80733 82.077503 640.91414 81.160156 641.99414 C 80.232156 643.06747 79.462062 644.05316 78.914062 644.92383 C 78.364729 645.80383 77.976586 646.4964 77.753906 647.03906 C 77.535253 647.5724 77.417969 647.85742 77.417969 647.85742 C 77.417969 647.85742 77.415503 647.54999 77.410156 646.97266 C 77.435503 646.41666 77.507528 645.5046 77.796875 644.44727 C 78.071528 643.37527 78.501792 642.08427 79.203125 640.71094 C 79.863125 639.30827 80.772766 637.81849 81.884766 636.28516 C 84.075446 633.18649 87.157472 629.98892 90.828125 627.04492 C 92.673458 625.59026 94.650714 624.17162 96.748047 622.87695 C 98.844047 621.57962 101.03832 620.36959 103.29297 619.29492 C 105.5503 618.21892 107.85917 617.26665 110.17383 616.44531 C 112.49117 615.63198 114.80613 614.93763 117.07812 614.4043 C 119.33946 613.8403 121.55792 613.44115 123.66992 613.14648 C 125.77791 612.84115 127.78863 612.68014 129.64062 612.60547 C 130.56462 612.5408 131.45271 612.52032 132.29688 612.52148 z M 242.21289 628.1875 C 240.77422 629.8555 239.28155 631.46379 237.68555 632.95312 C 233.82155 636.55979 229.93751 640.37429 226.29883 644.37695 L 227.23633 643.98242 C 227.23633 643.98242 227.48017 644.61979 227.9375 645.81445 C 228.38817 646.87445 229.08777 649.09067 229.81445 651.63867 C 230.10777 652.88934 230.46188 654.26934 230.7832 655.77734 C 231.03655 657.29334 231.3747 658.92058 231.60938 660.66992 C 232.05204 664.17126 232.45682 668.12781 232.41016 672.45312 C 232.48616 676.7718 232.03892 681.45175 231.29492 686.34375 C 230.77492 688.77175 230.39498 691.28658 229.59766 693.78125 C 229.21498 695.02925 228.93436 696.3145 228.45703 697.5625 C 227.98768 698.80917 227.51186 700.06598 227.0332 701.33398 C 226.60254 702.61532 225.89087 703.81112 225.32422 705.06445 C 224.71355 706.29912 224.16342 707.57152 223.38477 708.74219 C 222.65677 709.93285 221.92155 711.12998 221.18555 712.33398 C 220.77355 712.92065 220.34298 713.49565 219.9043 714.07031 C 222.9163 718.23298 226.48371 722.49305 230.65039 726.87305 L 232.96289 729.30664 C 261.72289 699.55331 264.88622 665.05683 242.21289 628.1875 z M 122.31055 641.94531 C 121.59188 642.15731 120.91013 642.38032 120.2168 642.59766 C 120.73946 644.09099 121.33433 645.53645 121.98633 646.92578 C 122.04899 645.28578 122.15321 643.62665 122.31055 641.94531 z M 114.37891 644.64453 C 110.52957 646.15786 107.25101 647.81418 104.51367 649.60352 C 109.67367 654.39552 115.77357 658.43907 122.74023 661.67773 C 122.64823 661.0644 122.57147 660.4436 122.49414 659.82227 C 119.42614 655.62627 116.41091 650.50186 114.37891 644.64453 z M 219.31445 652.81641 C 215.25862 658.28391 211.93045 664.06063 209.92969 670.13086 C 209.52954 671.34491 209.18364 672.57116 208.89453 673.80859 C 208.31632 676.28347 207.96891 678.80409 207.89258 681.37109 C 207.63792 689.92309 210.30459 698.77595 215.94727 708.11328 C 216.41259 707.23328 216.87789 706.35442 217.33789 705.48242 C 217.96589 704.41842 218.37823 703.25033 218.85156 702.125 C 219.28088 700.981 219.85225 699.91161 220.15625 698.73828 C 220.51093 697.58761 220.86489 696.45098 221.21289 695.32031 C 221.57157 694.19631 221.74167 693.02439 222.01367 691.90039 C 222.59233 689.65772 222.78046 687.37327 223.11914 685.19727 C 223.50446 680.78527 223.6571 676.58717 223.34375 672.72852 C 223.1531 668.86585 222.56623 665.3621 221.99023 662.30078 C 221.68889 660.7701 221.29929 659.36917 221.00195 658.0625 C 220.64195 656.77582 220.26122 655.61459 219.94922 654.55859 C 219.71322 653.91059 219.50912 653.34841 219.31445 652.81641 z M 99.638672 653.49414 C 97.741339 655.39947 96.340281 657.42921 95.488281 659.58789 C 91.176281 670.50256 101.43331 683.32746 106.94531 690.2168 C 109.82265 693.8128 113.88788 699.30714 117.81055 705.98047 C 117.69921 704.60447 117.59848 703.24458 117.50781 701.90625 C 117.41715 700.56792 117.33624 699.25027 117.26758 697.96094 C 116.61691 686.0636 116.79704 676.13948 117.0957 669.2168 C 117.14237 667.99148 117.20296 666.89661 117.26562 665.86328 C 110.58829 662.45661 104.69067 658.31679 99.638672 653.49414 z M 118.16602 666.30664 C 118.21002 667.20932 118.26165 668.1703 118.32031 669.20898 C 118.7123 676.10498 119.43358 685.93954 120.79492 697.6582 C 121.49892 703.51287 122.39673 709.83504 123.49805 716.48438 C 123.54339 716.74971 123.59529 717.02178 123.64062 717.28711 C 127.55396 726.14578 130.35699 736.08622 130.07031 746.07422 C 131.27965 750.30622 132.61465 754.55607 134.08398 758.80273 C 136.61465 766.0134 139.67272 773.15158 143.35938 779.90625 C 144.22872 781.63958 145.22432 783.2248 146.18164 784.85547 C 147.07764 786.47414 148.29023 788.12581 149.35156 789.75781 C 150.33556 791.28315 151.59657 792.80751 152.69922 794.32617 C 153.86589 795.82617 155.11445 797.24463 156.31445 798.69531 C 161.32779 804.30063 166.88167 809.24109 172.875 813.12109 C 178.91632 816.89176 185.22436 819.86008 191.56836 821.58008 C 197.89236 823.35741 204.12748 824.16061 209.91016 824.22461 C 215.69682 824.31528 221.01625 823.65918 225.65625 822.72852 C 230.02825 821.82452 233.77389 820.63701 236.83789 819.40234 C 237.04322 819.15034 237.26824 818.8991 237.46289 818.64844 C 234.58157 819.14844 231.00869 819.55469 227.02734 819.55469 C 215.11534 819.55602 198.49252 815.85819 186.95117 798.24219 C 186.86717 798.11419 186.79362 797.98088 186.71094 797.85156 C 178.57494 794.58756 167.31451 788.04743 161.92383 775.74609 C 156.71624 763.86193 158.203 749.38882 166.32617 732.60547 C 166.95103 731.31444 167.61498 730.00965 168.31836 728.69141 C 169.72511 726.05492 171.28927 723.36297 173.00977 720.61914 C 173.22977 720.26847 173.42658 719.9287 173.64258 719.58203 C 160.58125 714.0807 149.73675 707.06495 141.46875 698.73828 C 141.46075 699.66628 141.4588 700.64861 141.4668 701.72461 C 141.50146 704.60061 141.5805 707.9594 141.8125 711.55273 C 142.01915 715.1514 142.38882 718.97954 142.85547 722.79688 C 143.14347 724.69554 143.36181 726.60999 143.70312 728.47266 C 144.06046 730.32999 144.31481 732.1855 144.74414 733.9375 C 145.15881 735.69217 145.46736 737.42053 145.94336 739.00586 C 146.40069 740.59653 146.75536 742.12809 147.2207 743.49609 C 147.6807 744.87076 148.10447 746.12814 148.48047 747.24414 C 148.86314 748.35881 149.29747 749.28879 149.60547 750.07812 C 150.24947 751.64746 150.61914 752.54102 150.61914 752.54102 C 150.61914 752.54102 150.18446 751.67349 149.42578 750.16016 C 149.05911 749.39482 148.55394 748.49096 148.08594 747.4043 C 147.62594 746.31363 147.1083 745.08033 146.54297 743.73633 C 145.97097 742.39233 145.50053 740.88317 144.92188 739.3125 C 144.32053 737.74717 143.88138 736.03892 143.33203 734.29492 C 142.76403 732.55359 142.36853 730.70756 141.86719 728.85156 C 141.38185 726.99156 141.01865 725.07721 140.58398 723.17188 C 139.82398 719.34521 139.15907 715.49395 138.67773 711.86328 C 138.17107 708.23395 137.83733 704.82768 137.58398 701.90234 C 137.34398 698.97701 137.20207 696.52859 137.13672 694.80859 C 137.12472 694.46993 137.11479 694.18625 137.10547 693.90625 C 134.98947 691.35025 133.06706 688.70407 131.40039 685.94141 C 128.21639 680.66274 125.84048 675.01871 124.25781 669.02539 C 122.16716 668.17871 120.12735 667.27732 118.16602 666.30664 z M 179.43164 721.87695 C 179.02499 722.54495 178.63822 723.20548 178.21289 723.88281 C 165.60489 743.99081 162.01187 760.59819 167.5332 773.24219 C 170.77587 780.67152 176.78339 785.67771 182.55273 788.98438 C 181.99673 788.29504 181.42642 787.55994 180.84375 786.77344 C 180.26108 785.98694 179.66713 785.14729 179.06445 784.25195 C 177.2618 781.43062 175.37941 778.07339 174.19141 774.02539 C 173.00741 770.01072 172.56305 765.22941 173.76172 760.44141 C 174.29372 758.04007 175.21029 755.67186 176.37695 753.39453 C 177.51161 751.09053 178.95316 748.91244 180.50781 746.78711 C 185.68649 739.83778 192.32822 733.76248 198.82422 727.64648 C 195.92955 726.97048 192.91622 726.19226 189.82422 725.29492 C 186.23222 724.25226 182.77032 723.10895 179.43164 721.87695 z M 205.02344 728.98633 C 197.19009 735.60099 189.18699 741.76734 183.18164 748.88867 C 181.59764 750.79667 180.12564 752.74754 178.95898 754.79688 C 177.75232 756.83021 176.78326 758.93474 176.16992 761.08008 C 174.81126 765.35874 174.93641 769.73952 175.81641 773.60352 C 176.69909 777.49018 178.31416 780.86371 179.91016 783.73438 C 181.26884 786.04904 182.61261 788.03821 183.86328 789.71289 C 186.49928 791.11689 189.03701 792.17412 191.17969 792.93945 C 191.02544 792.36012 190.88597 791.74545 190.76562 791.0957 C 188.96039 781.34957 191.68228 763.76352 220.32227 740.79102 C 223.85695 737.95768 227.10677 735.06615 230.13477 732.13281 L 228.29883 732.05859 C 227.76548 732.03726 218.24744 731.61166 205.02344 728.98633 z M 127.8457 758.79492 C 126.3777 763.15759 124.19287 767.22022 121.29688 770.96289 C 125.24087 787.21889 132.9839 804.63964 147.64258 818.93164 C 160.93191 831.88897 176.54807 838.73828 192.80273 838.73828 C 210.97473 838.73828 226.1389 830.55053 234.60156 821.89453 C 232.1629 823.00386 229.38931 824.08499 226.22266 824.98633 C 221.52266 826.33166 216.05247 827.47332 209.98047 827.72266 C 206.94715 827.91332 203.77609 827.8109 200.49609 827.60156 C 197.22809 827.28423 193.84087 826.83495 190.43555 825.98828 C 183.59287 824.44561 176.6213 821.63407 170.0293 817.69141 C 163.4933 813.66874 157.29166 808.59662 151.90234 802.64062 C 150.609 801.11263 149.26505 799.60734 148.01172 798.02734 C 146.79972 796.39134 145.53137 794.89753 144.35938 793.13086 C 143.26071 791.47486 142.1138 789.95807 141.06445 788.13672 C 140.0018 786.37807 138.8907 784.62136 137.9707 782.83203 C 134.12002 775.69736 131.03194 768.22414 128.47461 760.74414 C 128.25061 760.09481 128.05902 759.44426 127.8457 758.79492 z "
       transform="matrix(0.75000002,0,0,-0.75000002,0,800.00005)"
       id="path148" /></g></svg>