<?xml version="1.0" encoding="UTF-8" standalone="no"?>
<!-- Created with Inkscape (http://www.inkscape.org/) -->

<svg
   xmlns:dc="http://purl.org/dc/elements/1.1/"
   xmlns:cc="http://creativecommons.org/ns#"
   xmlns:rdf="http://www.w3.org/1999/02/22-rdf-syntax-ns#"
   xmlns:svg="http://www.w3.org/2000/svg"
   xmlns="http://www.w3.org/2000/svg"
   xmlns:sodipodi="http://sodipodi.sourceforge.net/DTD/sodipodi-0.dtd"
   xmlns:inkscape="http://www.inkscape.org/namespaces/inkscape"
   inkscape:version="0.92.3 (2405546, 2018-03-11)"
   sodipodi:docname="woman_hair.svg"
   viewBox="0 0 1066.6667 1066.6667"
   height="1066.6667"
   width="1066.6667"
   xml:space="preserve"
   id="svg2"
   version="1.1"><metadata
     id="metadata8"><rdf:RDF><cc:Work
         rdf:about=""><dc:title></dc:title><dc:format>image/svg+xml</dc:format><dc:type
           rdf:resource="http://purl.org/dc/dcmitype/StillImage" /></cc:Work></rdf:RDF></metadata><defs
     id="defs6" /><sodipodi:namedview
     inkscape:current-layer="g10"
     inkscape:window-maximized="0"
     inkscape:window-y="27"
     inkscape:window-x="0"
     inkscape:cy="496.77357"
     inkscape:cx="339.96457"
     inkscape:zoom="1.2375231"
     showgrid="false"
     id="namedview4"
     inkscape:window-height="862"
     inkscape:window-width="1584"
     inkscape:pageshadow="2"
     inkscape:pageopacity="0"
     guidetolerance="10"
     gridtolerance="10"
     objecttolerance="10"
     borderopacity="1"
     bordercolor="#666666"
     pagecolor="#ffffff" /><g
     id="g10"
     inkscape:groupmode="layer"
     inkscape:label="12179-NNZAC5"
     transform="matrix(1.3333333,0,0,-1.3333333,0,1066.6667)"><path
       inkscape:connector-curvature="0"
       id="path148"
       style="fill:#454c53;fill-opacity:1;fill-rule:nonzero;stroke:none"
       d="m 253.18112,619.44796 c 0.91,0.229 1.985,0.544 3.191,0.927 1.205,0.386 2.613,0.675 4.063,1.136 0.734,0.21 1.481,0.463 2.256,0.708 0.777,0.237 1.605,0.397 2.424,0.639 0.827,0.221 1.67,0.457 2.517,0.73 0.846,0.285 1.738,0.43 2.617,0.695 0.878,0.268 1.776,0.524 2.672,0.846 0.916,0.205 1.836,0.465 2.774,0.711 1.863,0.599 3.815,0.743 5.773,1.049 0.983,0.037 1.965,0.072 2.945,0.108 0.987,0.072 1.961,0.002 2.934,-0.066 1.955,-0.053 3.855,-0.374 5.72,-0.624 1.833,-0.402 3.625,-0.776 5.289,-1.305 0.845,-0.227 1.659,-0.479 2.43,-0.774 0.775,-0.285 1.542,-0.526 2.254,-0.824 1.426,-0.587 2.743,-1.13 3.883,-1.681 1.151,-0.521 2.147,-1.023 2.977,-1.408 1.655,-0.796 2.599,-1.25 2.599,-1.25 l 0.357,0.593 c 0,0 -0.849,0.621 -2.331,1.707 -1.482,1.094 -3.648,2.6 -6.399,4.248 -0.683,0.421 -1.432,0.798 -2.189,1.222 -0.756,0.434 -1.563,0.834 -2.411,1.215 -1.662,0.846 -3.527,1.478 -5.453,2.192 -1.97,0.549 -4.012,1.203 -6.17,1.489 -1.071,0.195 -2.154,0.39 -3.254,0.44 -1.099,0.082 -2.206,0.185 -3.316,0.245 -1.106,-0.002 -2.215,-0.035 -3.328,-0.021 -1.117,0.041 -2.214,-0.054 -3.306,-0.158 -1.092,-0.098 -2.186,-0.178 -3.258,-0.309 -1.054,-0.196 -2.08,-0.46 -3.094,-0.701 -1,-0.288 -2.016,-0.499 -2.928,-0.903 -0.921,-0.383 -1.81,-0.786 -2.67,-1.188 -0.859,-0.397 -1.692,-0.791 -2.471,-1.211 -0.755,-0.475 -1.487,-0.917 -2.17,-1.375 -1.364,-0.918 -2.631,-1.713 -3.631,-2.607 -1.006,-0.883 -1.859,-1.671 -2.536,-2.35 -1.363,-1.35 -2.058,-2.208 -2.058,-2.207 l 0.364,-0.587 c 0,0.001 1.122,0.18 2.934,0.649" /><path
       inkscape:connector-curvature="0"
       id="path152"
       style="fill:#454c53;fill-opacity:1;fill-rule:nonzero;stroke:none"
       d="m 172.32023,626.99676 c 0.979,-0.036 1.962,-0.071 2.945,-0.107 1.958,-0.307 3.91,-0.451 5.774,-1.05 0.937,-0.245 1.856,-0.506 2.772,-0.711 0.897,-0.321 1.795,-0.578 2.672,-0.846 0.88,-0.265 1.772,-0.41 2.618,-0.695 0.848,-0.272 1.69,-0.509 2.517,-0.73 0.82,-0.242 1.647,-0.402 2.423,-0.638 0.777,-0.245 1.522,-0.498 2.257,-0.708 1.451,-0.462 2.858,-0.75 4.063,-1.137 1.206,-0.383 2.281,-0.697 3.19,-0.927 1.814,-0.469 2.934,-0.648 2.934,-0.649 l 0.365,0.587 c 0,-10e-4 -0.695,0.857 -2.057,2.207 -0.679,0.679 -1.533,1.467 -2.538,2.35 -0.998,0.894 -2.266,1.689 -3.63,2.607 -0.683,0.458 -1.416,0.9 -2.169,1.375 -0.78,0.421 -1.614,0.814 -2.473,1.212 -0.858,0.401 -1.748,0.804 -2.669,1.187 -0.912,0.404 -1.928,0.615 -2.927,0.903 -1.015,0.241 -2.041,0.505 -3.094,0.703 -1.074,0.129 -2.167,0.21 -3.26,0.307 -1.091,0.104 -2.187,0.199 -3.306,0.158 -1.112,-0.014 -2.22,0.019 -3.327,0.021 -1.11,-0.06 -2.218,-0.163 -3.316,-0.245 -1.1,-0.05 -2.184,-0.245 -3.254,-0.44 -1.936,-0.256 -3.777,-0.807 -5.559,-1.315 0.355,-1.319 0.73,-2.655 1.122,-4.007 1.633,0.229 3.291,0.476 4.993,0.523 0.972,0.067 1.948,0.137 2.934,0.065" /><path
       inkscape:connector-curvature="0"
       id="path156"
       style="fill:#454c53;fill-opacity:1;fill-rule:nonzero;stroke:none"
       d="m 320.80123,479.01337 c 0.194,16.221 5.709,36.749 17.351,64.604 22.532,53.917 20.05,90.323 -8.065,113.154 14.172,-20.729 25.744,-50.517 10.782,-86.516 -11.78,-28.347 -18.432,-51.315 -20.335,-70.216 -0.825,-8.209 -0.728,-15.593 0.281,-22.148 -0.003,0.373 -0.02,0.75 -0.014,1.122" /><path
       inkscape:connector-curvature="0"
       id="path160"
       style="fill:#454c53;fill-opacity:1;fill-rule:nonzero;stroke:none"
       d="m 86.449122,300.60326 c -5.008,2.555 -9.431,5.659 -13.22,9.276 -1.423,-1.429 -2.474,-2.951 -3.113,-4.57 -3.234,-8.186 4.459,-17.805 8.593,-22.972 2.158,-2.697 5.207,-6.817 8.149,-11.822 -0.167,2.064 -0.304,4.08 -0.407,6.014 -0.488,8.923 -0.354,16.366 -0.13,21.558 0.035,0.919 0.081,1.741 0.128,2.516" /><path
       inkscape:connector-curvature="0"
       id="path164"
       style="fill:#454c53;fill-opacity:1;fill-rule:nonzero;stroke:none"
       d="m 88.663022,318.05246 c 0.392,-1.12 0.837,-2.205 1.326,-3.247 0.047,1.23 0.126,2.474 0.244,3.735 -0.539,-0.159 -1.05,-0.325 -1.57,-0.488" /><path
       inkscape:connector-curvature="0"
       id="path168"
       style="fill:#454c53;fill-opacity:1;fill-rule:nonzero;stroke:none"
       d="m 168.16643,181.26046 c -3.525,-1.009 -7.627,-1.865 -12.181,-2.052 -2.275,-0.143 -4.653,-0.066 -7.113,0.091 -2.451,0.238 -4.992,0.575 -7.546,1.21 -5.132,1.157 -10.361,3.265 -15.305,6.222 -4.902,3.017 -9.553,6.821 -13.595,11.288 -0.97,1.146 -1.978,2.275 -2.918,3.46 -0.909,1.227 -1.86,2.347 -2.739,3.672 -0.824,1.242 -1.684,2.38 -2.471,3.746 -0.797,1.319 -1.631,2.636 -2.321,3.978 -2.888,5.351 -5.203,10.957 -7.121,16.567 -0.168,0.487 -0.312,0.974 -0.472,1.461 -1.101,-3.272 -2.74,-6.318 -4.912,-9.125 2.958,-12.192 8.765,-25.258 19.759,-35.977 9.967,-9.718 21.679,-14.855 33.87,-14.855 13.629,0 25.003,6.14 31.35,12.632 -1.829,-0.832 -3.91,-1.642 -6.285,-2.318" /><path
       inkscape:connector-curvature="0"
       id="path172"
       style="fill:#454c53;fill-opacity:1;fill-rule:nonzero;stroke:none"
       d="m 138.71383,201.31806 c -0.063,0.096 -0.118,0.197 -0.18,0.294 -6.102,2.448 -14.548,7.353 -18.591,16.579 -4.807,10.97 -2.009,24.881 8.314,41.344 0.165,0.263 0.313,0.519 0.475,0.779 -9.796,4.126 -17.929,9.387 -24.13,15.632 -0.006,-0.696 -0.007,-1.432 -0.001,-2.239 0.026,-2.157 0.085,-4.677 0.259,-7.372 0.155,-2.699 0.432,-5.569 0.782,-8.432 0.216,-1.424 0.379,-2.861 0.635,-4.258 0.268,-1.393 0.459,-2.784 0.781,-4.098 0.311,-1.316 0.542,-2.612 0.899,-3.801 0.343,-1.193 0.61,-2.342 0.959,-3.368 0.345,-1.031 0.662,-1.974 0.944,-2.811 0.287,-0.836 0.614,-1.533 0.845,-2.125 0.483,-1.177 0.759,-1.848 0.759,-1.848 0,0 -0.325,0.651 -0.894,1.786 -0.275,0.574 -0.655,1.252 -1.006,2.067 -0.345,0.818 -0.733,1.742 -1.157,2.75 -0.429,1.008 -0.782,2.14 -1.216,3.318 -0.451,1.174 -0.78,2.456 -1.192,3.764 -0.426,1.306 -0.722,2.69 -1.098,4.082 -0.364,1.395 -0.637,2.831 -0.963,4.26 -0.57,2.87 -1.068,5.758 -1.429,8.481 -0.38,2.722 -0.631,5.277 -0.821,7.471 -0.18,2.194 -0.287,4.03 -0.336,5.32 -0.009,0.254 -0.016,0.467 -0.023,0.677 -1.587,1.917 -3.029,3.902 -4.279,5.974 -2.388,3.959 -4.17,8.192 -5.357,12.687 -1.568,0.635 -3.097,1.311 -4.568,2.039 0.033,-0.677 0.072,-1.398 0.116,-2.177 0.294,-5.172 0.834,-12.548 1.855,-21.337 0.528,-4.391 1.201,-9.132 2.027,-14.119 0.034,-0.199 0.073,-0.403 0.107,-0.602 2.935,-6.644 5.038,-14.1 4.823,-21.591 0.907,-3.174 1.908,-6.361 3.01,-9.546 1.898,-5.408 4.192,-10.761 6.957,-15.827 0.652,-1.3 1.399,-2.49 2.117,-3.713 0.672,-1.214 1.581,-2.452 2.377,-3.676 0.738,-1.144 1.684,-2.287 2.511,-3.426 0.875,-1.125 1.811,-2.189 2.711,-3.277 3.76,-4.204 7.925,-7.91 12.42,-10.82 4.531,-2.828 9.263,-5.054 14.021,-6.344 4.743,-1.333 9.419,-1.936 13.756,-1.984 4.34,-0.068 8.33,0.425 11.81,1.123 3.279,0.678 6.087,1.568 8.385,2.494 0.154,0.189 0.324,0.378 0.47,0.566 -2.161,-0.375 -4.841,-0.68 -7.827,-0.68 -8.934,-0.001 -21.401,2.772 -30.057,15.984" /><path
       inkscape:connector-curvature="0"
       id="path176"
       style="fill:#454c53;fill-opacity:1;fill-rule:nonzero;stroke:none"
       d="m 171.10103,250.90007 -1.377,0.056 c -0.4,0.016 -7.539,0.335 -17.457,2.304 -5.875,-4.961 -11.877,-9.586 -16.381,-14.927 -1.188,-1.431 -2.292,-2.893 -3.167,-4.43 -0.905,-1.525 -1.631,-3.104 -2.091,-4.713 -1.019,-3.209 -0.925,-6.494 -0.265,-9.392 0.662,-2.915 1.872,-5.446 3.069,-7.599 1.019,-1.736 2.027,-3.227 2.965,-4.483 1.977,-1.053 3.881,-1.847 5.488,-2.421 -1.851,6.952 -1.056,20.733 21.856,39.111 2.651,2.125 5.089,4.294 7.36,6.494" /><path
       inkscape:connector-curvature="0"
       id="path180"
       style="fill:#454c53;fill-opacity:1;fill-rule:nonzero;stroke:none"
       d="m 176.76462,325.28587 c -2.898,-2.705 -5.811,-5.566 -8.54,-8.568 l 0.703,0.296 c 0,0 0.183,-0.479 0.526,-1.375 0.338,-0.795 0.862,-2.457 1.407,-4.368 0.22,-0.938 0.486,-1.973 0.727,-3.104 0.19,-1.137 0.444,-2.358 0.62,-3.67 0.332,-2.626 0.635,-5.593 0.6,-8.837 0.057,-3.239 -0.278,-6.748 -0.836,-10.417 -0.39,-1.821 -0.675,-3.708 -1.273,-5.579 -0.287,-0.936 -0.498,-1.899 -0.856,-2.835 -0.352,-0.935 -0.709,-1.879 -1.068,-2.83 -0.323,-0.961 -0.856,-1.857 -1.281,-2.797 -0.458,-0.926 -0.871,-1.88 -1.455,-2.758 -0.546,-0.893 -1.097,-1.791 -1.649,-2.694 -0.309,-0.44 -0.633,-0.871 -0.962,-1.302 2.259,-3.122 4.935,-6.318 8.06,-9.603 l 1.735,-1.825 c 21.57,22.315 23.942,48.188 6.937,75.84 -1.079,-1.251 -2.198,-2.457 -3.395,-3.574" /><path
       inkscape:connector-curvature="0"
       id="path184"
       style="fill:#454c53;fill-opacity:1;fill-rule:nonzero;stroke:none"
       d="m 160.46043,268.91476 c 0.349,0.66 0.698,1.319 1.043,1.973 0.471,0.798 0.78,1.675 1.135,2.519 0.322,0.858 0.751,1.659 0.979,2.539 0.266,0.863 0.531,1.716 0.792,2.564 0.269,0.843 0.397,1.722 0.601,2.565 0.434,1.682 0.575,3.396 0.829,5.028 0.289,3.309 0.404,6.457 0.169,9.351 -0.143,2.897 -0.584,5.524 -1.016,7.82 -0.226,1.148 -0.518,2.2 -0.741,3.18 -0.27,0.965 -0.555,1.835 -0.789,2.627 -0.177,0.486 -0.33,0.908 -0.476,1.307 -4.867,-6.561 -8.338,-13.715 -8.567,-21.416 -0.191,-6.414 1.809,-13.054 6.041,-20.057" /><path
       inkscape:connector-curvature="0"
       id="path188"
       style="fill:#454c53;fill-opacity:1;fill-rule:nonzero;stroke:none"
       d="m 147.61862,254.26537 c -2.171,0.507 -4.431,1.091 -6.75,1.764 -2.694,0.782 -5.291,1.639 -7.795,2.563 -0.305,-0.501 -0.595,-0.996 -0.914,-1.504 -9.456,-15.081 -12.15,-27.537 -8.009,-37.02 2.432,-5.572 6.937,-9.326 11.264,-11.806 -0.834,1.034 -1.713,2.205 -2.617,3.548 -1.352,2.116 -2.763,4.635 -3.654,7.671 -0.888,3.011 -1.222,6.596 -0.323,10.187 0.399,1.801 1.087,3.578 1.962,5.286 0.851,1.728 1.932,3.362 3.098,4.956 3.884,5.212 8.866,9.768 13.738,14.355" /><path
       inkscape:connector-curvature="0"
       id="path192"
       style="fill:#454c53;fill-opacity:1;fill-rule:nonzero;stroke:none"
       d="m 56.772922,358.42647 c 0.528,0.808 1.078,1.628 1.665,2.471 0.864,5.017 2.268,10.046 4.187,14.971 -19.892,-2.355 -28.206,-8.671 -31.657,-13.779 0.291,-5.765 1.402,-11.313 3.398,-16.406 0.722,-1.844 1.563,-3.61 2.494,-5.314 6.056,7.993 12.939,13.684 19.913,18.057" /><path
       inkscape:connector-curvature="0"
       id="path196"
       style="fill:#454c53;fill-opacity:1;fill-rule:nonzero;stroke:none"
       d="m 50.133222,423.15796 c -0.574,-2.632 -1.302,-5.288 -2.224,-7.94 12.665,6.66 19.458,13.797 19.701,20.798 0.079,2.265 -0.512,4.407 -1.486,6.38 -6.704,-6.536 -12.007,-12.92 -15.991,-19.238" /><path
       inkscape:connector-curvature="0"
       id="path200"
       style="fill:#454c53;fill-opacity:1;fill-rule:nonzero;stroke:none"
       d="m 101.10733,387.61206 c -9.014,-5.736 -20.146,-9.496 -33.286,-11.143 -2.004,-4.682 -3.492,-9.48 -4.47,-14.277 5.031,2.636 9.986,4.747 14.582,6.703 12.159,5.175 21.298,9.086 23.174,18.717" /><path
       inkscape:connector-curvature="0"
       id="path204"
       style="fill:#454c53;fill-opacity:1;fill-rule:nonzero;stroke:none"
       d="m 90.555622,303.74186 c -0.069,0.46 -0.127,0.926 -0.185,1.392 -2.301,3.147 -4.562,6.99 -6.086,11.383 -2.887,-1.135 -5.347,-2.377 -7.4,-3.719 3.87,-3.594 8.446,-6.627 13.671,-9.056" /><path
       inkscape:connector-curvature="0"
       id="path208"
       style="fill:#454c53;fill-opacity:1;fill-rule:nonzero;stroke:none"
       d="m 192.47502,373.12477 c -4.577,-6.532 -10.818,-12.218 -18.61,-16.897 0.14,-0.556 0.312,-1.437 0.375,-2.647 0.131,-2.16 -0.137,-5.345 -1.39,-8.914 -0.615,-1.782 -1.432,-3.671 -2.517,-5.542 -1.07,-1.877 -2.328,-3.787 -3.808,-5.61 -1.466,-1.837 -3.118,-3.609 -4.896,-5.304 -0.918,-0.847 -1.839,-1.703 -2.749,-2.45 l -1.374,-1.157 c -0.444,-0.364 -0.862,-0.759 -1.295,-1.138 -1.708,-1.537 -3.302,-3.196 -4.778,-4.906 -1.45,-1.733 -2.803,-3.502 -3.956,-5.32 -1.149,-1.816 -2.184,-3.632 -2.994,-5.435 -0.8,-1.807 -1.459,-3.566 -1.945,-5.235 -0.465,-1.673 -0.787,-3.244 -0.983,-4.662 -0.177,-1.417 -0.255,-2.675 -0.271,-3.719 0.002,-1.043 0.018,-1.864 0.066,-2.436 0.039,-0.57 0.06,-0.874 0.06,-0.874 0,0 -0.112,0.283 -0.32,0.815 -0.192,0.532 -0.48,1.341 -0.72,2.392 -0.502,2.092 -0.917,5.245 -0.436,9.003 0.433,3.752 1.761,8.057 4.014,12.228 2.251,4.175 5.437,8.184 9.178,11.565 0.478,0.41 0.943,0.838 1.434,1.232 l 1.398,1.151 c 0.954,0.765 1.819,1.5 2.668,2.236 1.713,1.518 3.337,3.082 4.824,4.666 1.474,1.594 2.847,3.186 4.01,4.797 1.151,1.617 2.169,3.201 2.983,4.738 1.631,3.073 2.518,5.896 2.893,7.937 0.202,1.056 0.281,1.889 0.31,2.453 -1.143,-0.681 -2.312,-1.345 -3.521,-1.984 l -10.055,-5.3 7.196,8.796 c 0.131,0.159 12.966,16.179 8.028,32.419 -1.182,-5.91 -2.992,-12.624 -5.77,-19.515 -5.202,-12.909 -14.597,-27.999 -31.417,-38.028 -1.727,-2.224 -4.465,-5.753 -4.507,-5.815 -0.042,-0.057 -0.104,-0.133 -0.222,-0.32 -0.222,-0.33 -0.555,-0.874 -0.969,-1.582 -0.815,-1.431 -1.957,-3.569 -3.074,-6.264 -1.11,-2.693 -2.242,-5.936 -2.972,-9.514 -0.399,-1.789 -0.635,-3.653 -0.818,-5.569 -0.111,-1.904 -0.2,-3.872 -0.019,-5.815 0.029,-0.987 0.21,-1.943 0.319,-2.922 0.16,-0.963 0.357,-1.922 0.569,-2.875 0.491,-1.88 1.076,-3.733 1.849,-5.454 0.387,-0.86 0.749,-1.726 1.215,-2.514 0.444,-0.802 0.851,-1.614 1.358,-2.333 0.923,-1.511 1.973,-2.822 2.935,-4.064 0.524,-0.583 1.026,-1.143 1.502,-1.676 0.474,-0.542 0.942,-1.04 1.419,-1.471 0.941,-0.872 1.718,-1.707 2.456,-2.271 1.439,-1.191 2.262,-1.874 2.262,-1.874 0,0 -0.947,0.504 -2.603,1.388 -0.853,0.414 -1.783,1.076 -2.915,1.764 -0.572,0.338 -1.147,0.743 -1.739,1.193 -0.601,0.446 -1.232,0.914 -1.891,1.404 -1.247,1.067 -2.631,2.217 -3.94,3.618 -0.699,0.661 -1.31,1.432 -1.97,2.203 -0.682,0.758 -1.27,1.611 -1.892,2.474 -1.243,1.728 -2.331,3.66 -3.331,5.695 -0.466,1.029 -0.918,2.085 -1.331,3.16 -0.361,1.089 -0.795,2.181 -1.069,3.304 -0.672,2.233 -1.052,4.53 -1.379,6.806 -0.255,2.274 -0.423,4.542 -0.393,6.725 -0.007,4.382 0.528,8.438 1.182,11.881 0.179,0.936 0.373,1.81 0.57,2.65 -3.154,-0.832 -6.478,-1.517 -9.988,-2.025 -5.063,-0.734 -9.619,-1.601 -13.717,-2.586 -1.439,-12.2 0.552,-22.863 5.992,-31.878 9.382,-15.554 27.561,-23.523 41.157,-27.469 8.824,-2.561 16.89,-3.805 22.028,-4.392 -9.972,11.656 -14.681,22.507 -14.367,33.046 0.467,15.703 12.297,28.803 23.807,39.545 11.167,10.424 16.667,27.961 18.854,44.472" /><path
       inkscape:connector-curvature="0"
       id="path212"
       style="fill:#454c53;fill-opacity:1;fill-rule:nonzero;stroke:none"
       d="m 321.07663,520.58756 c 0.189,0.719 0.377,1.431 0.562,2.134 0.392,1.4 0.699,2.783 0.985,4.134 0.303,1.346 0.531,2.67 0.731,3.959 0.217,1.286 0.425,2.533 0.557,3.751 0.217,1.512 0.372,2.96 0.494,4.352 0.272,3.069 0.361,5.839 0.436,8.235 0.04,3.491 -0.033,6.223 -0.148,8.084 -0.101,1.859 -0.155,2.849 -0.155,2.849 0,0 -0.114,-0.985 -0.327,-2.834 -0.162,-1.848 -0.566,-4.544 -1.031,-7.957 -0.581,-3.399 -1.264,-7.521 -2.416,-12.142 -0.257,-1.162 -0.592,-2.342 -0.937,-3.555 -0.328,-1.218 -0.691,-2.46 -1.117,-3.718 -0.388,-1.27 -0.794,-2.565 -1.283,-3.865 -0.234,-0.654 -0.47,-1.314 -0.71,-1.982 -0.267,-0.656 -0.536,-1.319 -0.808,-1.99 -2.19,-5.348 -5.059,-10.9 -8.779,-16.255 -1.868,-2.673 -3.993,-5.257 -6.316,-7.74 -2.309,-2.497 -4.852,-4.869 -7.603,-7.084 -2.753,-2.223 -5.693,-4.295 -8.84,-6.242 -1.616,-0.991 -3.244,-1.988 -4.879,-2.989 -1.681,-1.045 -3.215,-1.996 -4.877,-2.958 -6.547,-3.825 -13.481,-7.257 -20.587,-10.042 -7.088,-2.737 -14.5,-4.846 -21.601,-5.333 -3.646,-0.263 -7.202,-0.061 -10.718,0.496 -3.511,0.538 -6.938,1.468 -10.233,2.681 -6.632,2.362 -12.678,5.871 -18.349,9.479 -2.883,1.811 -5.687,3.575 -8.4,5.282 -2.699,1.688 -5.261,3.344 -7.663,5.012 -4.826,3.29 -9.003,6.641 -12.3,10.011 -1.255,1.264 -2.384,2.529 -3.388,3.776 0.083,-1.308 0.202,-2.714 0.367,-4.208 0.339,-0.444 0.687,-0.889 1.052,-1.334 3.137,-3.818 7.173,-7.676 11.848,-11.485 2.353,-1.883 4.864,-3.759 7.468,-5.647 1.289,-0.937 2.599,-1.889 3.93,-2.856 1.321,-0.997 2.662,-2.008 4.022,-3.036 5.526,-4.066 11.733,-8.208 18.923,-11.299 3.595,-1.522 7.435,-2.745 11.439,-3.544 3.993,-0.791 8.195,-1.14 12.326,-0.978 8.478,0.385 16.502,2.581 24.158,5.495 7.657,2.913 14.905,6.615 21.75,10.732 1.688,1.019 3.432,2.145 5.007,3.169 1.562,1.004 3.245,2.035 4.872,3.134 3.273,2.176 6.441,4.552 9.377,7.087 2.915,2.57 5.6,5.306 8.015,8.16 2.394,2.872 4.522,5.849 6.37,8.87 1.837,3.028 3.432,6.074 4.796,9.088 0.04,0.092 0.076,0.183 0.115,0.275 1.26,2.944 2.345,5.84 3.201,8.668 0.225,0.727 0.445,1.447 0.664,2.16" /><path
       inkscape:connector-curvature="0"
       id="path216"
       style="fill:#454c53;fill-opacity:1;fill-rule:nonzero;stroke:none"
       d="m 128.47302,436.18136 0.174,0.003 c -0.054,0.065 -0.105,0.131 -0.158,0.195 -0.006,-0.065 -0.011,-0.132 -0.016,-0.198" /><path
       inkscape:connector-curvature="0"
       id="path220"
       style="fill:#454c53;fill-opacity:1;fill-rule:nonzero;stroke:none"
       d="m 102.47702,339.46646 c -0.773,-0.178 -1.711,-0.394 -2.788,-0.641 -1.06,-0.267 -2.255,-0.567 -3.561,-0.894 -0.649,-0.159 -1.318,-0.35 -2.008,-0.559 -0.691,-0.197 -1.406,-0.385 -2.13,-0.623 -1.457,-0.431 -2.979,-0.92 -4.532,-1.472 -1.56,-0.531 -3.137,-1.159 -4.74,-1.789 -1.586,-0.67 -3.199,-1.342 -4.763,-2.116 -3.158,-1.486 -6.198,-3.196 -8.948,-4.958 -1.362,-0.899 -2.666,-1.791 -3.859,-2.696 -1.18,-0.915 -2.3,-1.792 -3.264,-2.677 -0.944,-0.897 -1.826,-1.727 -2.514,-2.537 -0.696,-0.805 -1.274,-1.544 -1.685,-2.197 -0.412,-0.66 -0.702,-1.18 -0.869,-1.587 -0.164,-0.4 -0.253,-0.613 -0.253,-0.613 0,0 -0.001,0.23 -0.005,0.663 0.019,0.417 0.072,1.101 0.289,1.894 0.206,0.804 0.53,1.773 1.056,2.803 0.495,1.052 1.176,2.169 2.01,3.319 1.643,2.324 3.955,4.722 6.708,6.93 1.384,1.091 2.867,2.155 4.44,3.126 1.572,0.973 3.218,1.88 4.909,2.686 1.693,0.807 3.425,1.521 5.161,2.137 1.738,0.61 3.473,1.132 5.177,1.532 1.696,0.423 3.361,0.722 4.945,0.943 1.581,0.229 3.089,0.35 4.478,0.406 1.386,0.097 2.663,0.057 3.788,0.033 1.125,-0.032 2.104,-0.132 2.906,-0.198 1.607,-0.194 2.512,-0.36 2.512,-0.36 0,0 -0.902,-0.237 -2.46,-0.555 m -11.816,-104.923 c 1.116,4.582 3.293,21.363 -15.549,44.917 -4.381,5.476 -13.496,16.87 -9.281,27.542 3.898,9.87 17.712,16.395 42.23,19.943 27.388,3.964 46.611,19.155 57.136,45.149 3.479,8.592 5.385,17.013 6.43,23.781 -1.878,2.174 -4.321,4.518 -7.13,7.013 -0.128,-1.849 -0.309,-4.083 -0.603,-6.619 -0.42,-3.705 -1.106,-8.038 -2.263,-12.595 -0.589,-2.274 -1.307,-4.601 -2.153,-6.923 -0.865,-2.315 -1.886,-4.615 -3.032,-6.847 -1.174,-2.219 -2.501,-4.351 -3.928,-6.355 -1.481,-1.969 -3.001,-3.849 -4.664,-5.485 -0.789,-0.855 -1.677,-1.586 -2.481,-2.357 -0.86,-0.713 -1.692,-1.418 -2.534,-2.06 -1.695,-1.274 -3.361,-2.371 -4.943,-3.302 -0.8,-0.445 -1.566,-0.872 -2.296,-1.279 -0.749,-0.365 -1.459,-0.711 -2.127,-1.037 -1.339,-0.634 -2.549,-1.089 -3.519,-1.513 -1.995,-0.712 -3.135,-1.119 -3.135,-1.119 0,0 1.089,0.522 2.993,1.435 0.919,0.522 2.063,1.094 3.312,1.855 0.62,0.387 1.28,0.799 1.975,1.231 0.668,0.471 1.372,0.965 2.105,1.48 1.44,1.063 2.936,2.292 4.428,3.677 0.741,0.698 1.462,1.454 2.206,2.214 0.688,0.816 1.453,1.586 2.112,2.472 1.402,1.7 2.637,3.612 3.82,5.578 1.13,2.002 2.149,4.098 3.015,6.255 0.841,2.168 1.558,4.379 2.131,6.593 0.553,2.221 0.991,4.431 1.315,6.588 0.627,4.322 0.845,8.41 0.875,11.93 0.039,3.519 -0.085,6.473 -0.176,8.554 -0.063,1.256 -0.109,3.012 -0.136,4.221 -0.306,0.257 -0.609,0.51 -0.917,0.769 -2.538,2.128 -5.197,4.36 -7.893,6.696 0.025,-1.072 0.041,-2.268 0.038,-3.576 -0.002,-5.375 -0.336,-12.555 -1.528,-19.63 -0.298,-1.769 -0.654,-3.525 -1.06,-5.243 -0.422,-1.714 -0.873,-3.39 -1.409,-4.985 -0.261,-0.799 -0.527,-1.58 -0.83,-2.332 -0.278,-0.759 -0.584,-1.488 -0.907,-2.189 -0.297,-0.71 -0.637,-1.378 -0.973,-2.02 -0.315,-0.652 -0.674,-1.254 -1.022,-1.829 -0.329,-0.585 -0.687,-1.119 -1.045,-1.615 -0.344,-0.506 -0.674,-0.982 -1.033,-1.392 -0.351,-0.417 -0.654,-0.827 -0.978,-1.168 -0.328,-0.336 -0.631,-0.646 -0.903,-0.924 -0.531,-0.57 -1.045,-0.918 -1.349,-1.199 -0.318,-0.27 -0.487,-0.411 -0.487,-0.411 0,0 0.161,0.151 0.462,0.439 0.286,0.303 0.774,0.675 1.267,1.274 0.253,0.292 0.533,0.616 0.838,0.968 0.299,0.356 0.574,0.781 0.895,1.211 0.329,0.426 0.625,0.915 0.934,1.432 0.32,0.509 0.641,1.055 0.929,1.649 0.306,0.585 0.621,1.194 0.892,1.854 0.291,0.649 0.583,1.321 0.832,2.035 0.274,0.705 0.53,1.436 0.757,2.197 0.252,0.751 0.465,1.534 0.673,2.331 0.429,1.589 0.77,3.259 1.081,4.96 0.295,1.704 0.539,3.446 0.724,5.193 0.746,6.996 0.644,14.054 0.326,19.311 -0.155,2.63 -0.358,4.817 -0.523,6.337 -0.013,0.123 -0.026,0.233 -0.039,0.345 -3.798,3.397 -7.595,7.009 -11.176,10.845 0.14,-2.903 0.306,-6.804 0.302,-11.399 -0.008,-5.181 -0.22,-11.251 -1.056,-17.723 -0.847,-6.456 -2.295,-13.377 -5.159,-19.87 -1.434,-3.235 -3.243,-6.348 -5.521,-9.052 -1.134,-1.351 -2.384,-2.597 -3.722,-3.696 -0.618,-0.515 -1.271,-1.03 -1.961,-1.539 -0.671,-0.519 -1.35,-0.963 -2.02,-1.433 -5.431,-3.618 -10.993,-5.992 -15.828,-7.665 -4.844,-1.675 -8.993,-2.644 -11.903,-3.237 -2.915,-0.585 -4.6,-0.781 -4.6,-0.781 0,0 1.666,0.326 4.516,1.128 2.844,0.813 6.884,2.091 11.516,4.102 4.621,2.005 9.865,4.755 14.75,8.584 0.593,0.491 1.222,0.973 1.789,1.489 l 0.867,0.767 0.887,0.842 c 1.112,1.065 2.134,2.241 3.055,3.517 1.846,2.546 3.273,5.462 4.365,8.508 2.182,6.113 3.082,12.691 3.434,18.855 0.343,6.18 0.125,11.995 -0.231,16.967 -0.12,1.666 -0.257,3.229 -0.399,4.693 -3.382,-13.715 -10.244,-24.714 -20.371,-32.737 -0.177,-15.334 -12.306,-20.505 -26.342,-26.479 -13.849,-5.892 -31.084,-13.228 -43.097,-32.75 -23.075,-37.498 8.738,-64.733 29.788,-82.755 l 1.231,-1.053 c 7.315,-6.271 11.168,-13.189 11.451,-20.562 0.021,-0.542 0.02,-1.076 0.004,-1.602 0.211,0.731 0.404,1.483 0.57,2.263 0.606,2.957 0.787,6.229 0.31,9.595 -0.476,3.368 -1.666,6.792 -3.396,10.095 -1.732,3.312 -4.119,6.424 -6.773,9.392 -1.327,1.486 -2.762,2.908 -4.258,4.284 -0.744,0.698 -1.508,1.348 -2.267,2.01 l -2.411,1.999 c -3.315,2.723 -6.441,5.704 -9.329,8.829 -2.898,3.118 -5.418,6.52 -7.543,10.016 -2.128,3.494 -3.755,7.165 -4.78,10.802 -1.036,3.634 -1.472,7.223 -1.382,10.506 0.079,3.284 0.626,6.254 1.406,8.767 0.758,2.525 1.724,4.603 2.603,6.248 0.873,1.651 1.716,2.848 2.282,3.662 0.572,0.811 0.899,1.224 0.899,1.224 0,0 -0.255,-0.464 -0.684,-1.352 -0.433,-0.884 -1.019,-2.208 -1.66,-3.912 -0.632,-1.709 -1.258,-3.829 -1.723,-6.287 -0.457,-2.459 -0.643,-5.273 -0.473,-8.297 0.2,-3.028 0.887,-6.25 2.014,-9.513 1.153,-3.261 2.874,-6.509 4.937,-9.689 2.072,-3.184 4.627,-6.203 7.365,-9.146 2.766,-2.924 5.788,-5.717 8.995,-8.308 l 2.42,-2.058 c 0.816,-0.727 1.642,-1.45 2.415,-2.196 1.57,-1.48 3.083,-3.018 4.494,-4.639 2.841,-3.219 5.251,-6.782 7.063,-10.525 1.829,-3.734 2.888,-7.722 3.186,-11.545 0.331,-3.828 -0.215,-7.466 -1.164,-10.615 -0.949,-3.162 -2.33,-5.844 -3.744,-8.055 -0.341,-0.54 -0.686,-1.047 -1.031,-1.532 -0.184,-0.479 -0.375,-0.947 -0.575,-1.395 7.422,4.833 12.044,10.857 13.78,17.983" /><path
       inkscape:connector-curvature="0"
       id="path224"
       style="fill:#454c53;fill-opacity:1;fill-rule:nonzero;stroke:none"
       d="m 25.364222,361.49577 c -0.028,0.203 -0.06,0.436 -0.099,0.722 -0.061,0.477 -0.155,1.066 -0.231,1.761 -0.049,0.701 -0.106,1.504 -0.17,2.404 -0.055,0.901 -0.017,1.901 -0.03,2.994 0.072,1.086 0.106,2.273 0.292,3.526 0.288,2.517 1.01,5.325 2.242,8.224 1.079,2.516 2.628,5.066 4.573,7.489 -1.561,2.325 -3.167,5.313 -4.491,9.027 -5.375,-4.834 -8.566,-10.085 -9.508,-15.718 -1.541,-9.215 3.352,-17.532 6.795,-22.059 0.17,0.519 0.38,1.068 0.627,1.63" /><path
       inkscape:connector-curvature="0"
       id="path228"
       style="fill:#454c53;fill-opacity:1;fill-rule:nonzero;stroke:none"
       d="m 67.078522,392.75657 c 1.033,0.358 2.243,0.928 3.64,1.514 1.407,0.557 2.93,1.332 4.598,2.119 0.845,0.372 1.678,0.854 2.543,1.338 0.86,0.493 1.796,0.906 2.669,1.489 0.884,0.561 1.817,1.092 2.719,1.708 0.892,0.626 1.803,1.267 2.729,1.916 0.881,0.701 1.778,1.413 2.685,2.136 0.844,0.789 1.753,1.527 2.59,2.35 1.658,1.662 3.316,3.381 4.731,5.296 1.497,1.852 2.754,3.881 3.947,5.903 1.129998,2.057 2.158998,4.139 2.993998,6.236 0.821,2.097 1.573,4.161 2.112,6.18 0.557,2.011 0.999,3.95 1.343,5.758 0.337,1.811 0.57,3.492 0.764,4.991 0.146,1.5 0.296,2.82 0.351,3.912 0.143,2.183 0.13,3.452 0.13,3.452 0,0 0.409,-1.206 0.781,-3.403 0.192,-1.098 0.373,-2.441 0.492,-3.994 0.099,-1.551 0.197,-3.317 0.1,-5.241 -0.069,-1.925 -0.22,-4.021 -0.615,-6.21 -0.345,-2.197 -0.878,-4.499 -1.626,-6.828 -0.378,-1.162 -0.789,-2.339 -1.292,-3.497 -0.449,-1.184 -1.041,-2.321 -1.609,-3.481 -1.215,-2.278 -2.598,-4.53 -4.228998,-6.597 -1.59,-2.099 -3.425,-3.998 -5.326,-5.745 -0.945,-0.881 -1.972,-1.65 -2.948,-2.449 -1.015,-0.749 -2.046,-1.445 -3.057,-2.133 -1.044,-0.632 -2.077,-1.24 -3.099,-1.81 -1.032,-0.552 -2.081,-1.012 -3.077,-1.5 -0.989,-0.502 -2.009,-0.86 -2.976,-1.244 -0.973,-0.365 -1.906,-0.73 -2.835,-0.986 -0.918,-0.276 -1.798,-0.54 -2.635,-0.791 -0.837,-0.244 -1.66,-0.376 -2.414,-0.554 -1.514,-0.343 -2.836,-0.601 -3.944,-0.721 -2.202,-0.293 -3.457,-0.403 -3.457,-0.403 0,0 1.173,0.506 3.221,1.289 m -2.681,-12.051 c 38.229998,3.781 58.696998,24.88 59.836998,61.272 -7.3,10.447 -12.014,22.336 -10.804,35.879 -9.031,-5.629 -17.154998,-11.08 -24.404998,-16.39 0.031,-0.068 0.068,-0.148 0.122,-0.266 0.109,-0.255 0.27,-0.634 0.48,-1.13 0.397,-0.977 0.937,-2.398 1.512,-4.235 1.115,-3.667 2.527,-9.04 2.478,-15.784 -0.014,-3.356 -0.524,-7.059 -1.761,-10.798 -1.299,-3.712 -3.404,-7.443 -6.395,-10.486 -1.446,-1.568 -3.145,-2.888 -4.885,-4.144 -0.906,-0.568 -1.804,-1.158 -2.739,-1.694 -0.887,-0.484 -1.732,-0.978 -2.671,-1.463 -3.673,-1.957 -7.399,-3.721 -11.147,-5.457 -7.468,-3.467 -14.951,-6.758 -21.328,-10.851 -0.637,-0.408 -1.254,-0.831 -1.867,-1.256 -0.04,-3.217 0.228,-6.454 0.796,-9.719 l 0.955,-5.491 -4.553,3.213 c -0.227,0.162 -2.445,1.781 -5.023,5.22 -1.851,-2.091 -3.368,-4.305 -4.49,-6.532 -1.348,-2.697 -2.218,-5.372 -2.648,-7.81 -0.258,-1.212 -0.362,-2.373 -0.5,-3.439 -0.052,-1.073 -0.151,-2.063 -0.151,-2.958 0.009,-0.897 0.016,-1.696 0.023,-2.393 0.032,-0.696 0.091,-1.286 0.122,-1.766 0.018,-0.243 0.034,-0.457 0.048,-0.642 3.029,6.847 12.106,16.461 38.994,19.12" /><path
       inkscape:connector-curvature="0"
       id="path232"
       style="fill:#454c53;fill-opacity:1;fill-rule:nonzero;stroke:none"
       d="m 69.584422,445.66766 c 1.659,-2.895 2.752,-6.18 2.63,-9.794 -0.332,-9.872 -9.535,-19.058 -27.354,-27.303 -0.658,-0.303 -1.286,-0.615 -1.921,-0.924 -1.048,-3.527 -1.706,-7.055 -1.975,-10.603 0.097,0.072 0.187,0.148 0.285,0.218 6.346,4.644 13.76,8.45 20.966,12.352 3.598,1.943 7.191,3.927 10.541,5.985 0.832,0.494 1.695,1.069 2.536,1.599 0.775,0.51 1.512,1.068 2.257,1.593 1.398,1.159 2.745,2.334 3.829,3.68 2.271,2.611 3.708,5.628 4.566,8.625 0.789,3.03 1.037,6.044 0.871,8.846 -0.296,5.619 -1.803,10.266 -2.97,13.378 -0.522,1.369 -0.994,2.434 -1.359,3.21 -4.722,-3.678 -9.02,-7.295 -12.902,-10.862" /><path
       inkscape:connector-curvature="0"
       id="path236"
       style="fill:#454c53;fill-opacity:1;fill-rule:nonzero;stroke:none"
       d="m 63.953522,551.83956 c 1.068,1.148 2.003,2.468 3.046,3.734 0.965,1.33 1.969,2.675 2.918,4.088 1.875,2.849 3.616,5.91 5.182,9.125 1.538,3.225 2.948,6.583 4.034,10.057 1.158,3.448 2.116,6.972 2.814,10.497 0.715,3.521 1.32,7.019 1.686,10.437 0.389,3.416 0.67,6.738 0.818,9.9 0.159,3.16 0.224,6.16 0.257,8.933 0.004,0.619 0.005,1.221 0.006,1.816 -3.82,-33.864 -14.782,-55.024 -25.358,-73.45 1.519,1.488 3.061,3.112 4.597,4.863" /><path
       inkscape:connector-curvature="0"
       id="path240"
       style="fill:#454c53;fill-opacity:1;fill-rule:nonzero;stroke:none"
       d="m 114.68642,538.79266 c 2.068,3.482 3.57,7.847 4.301,12.77 0.736,4.927 0.715,10.38 0.324,16.128 -0.39,5.755 -1.217,11.814 -2.064,18.094 -0.861,6.28 -1.863,12.773 -2.714,19.404 -0.854,6.628 -1.623,13.388 -2.199,20.171 -0.559,6.786 -0.912,13.588 -0.957,20.317 -0.049,6.723 0.297,13.358 1.067,19.734 1.468,12.772 4.95,24.415 9.221,33.729 4.202,9.372 9.037,16.446 12.478,21.273 1.728,2.417 3.199,4.237 4.192,5.475 1.003,1.232 1.538,1.889 1.538,1.889 0,0 -0.481,-0.697 -1.385,-2.005 -0.906,-1.307 -2.183,-3.25 -3.781,-5.741 -1.58,-2.501 -3.448,-5.57 -5.378,-9.198 -1.926,-3.631 -3.923,-7.812 -5.816,-12.481 -1.884,-4.672 -3.587,-9.861 -4.988,-15.444 -1.373,-5.591 -2.403,-11.583 -3.034,-17.833 -0.651,-6.249 -0.82,-12.757 -0.768,-19.369 0.075,-6.61 0.496,-13.346 1.044,-20.064 1.051,-13.451 2.958,-26.831 4.472,-39.47 0.773,-6.317 1.377,-12.466 1.617,-18.342 0.253,-5.869 0.032,-11.495 -0.942,-16.597 -0.487,-2.545 -1.162,-4.958 -2.039,-7.162 -0.89,-2.2 -1.953,-4.194 -3.119,-5.949 -2.335,-3.523 -5.06,-6.035 -7.421,-7.853 -2.37,-1.831 -4.432,-2.96 -5.831,-3.712 -1.406,-0.746 -2.175,-1.102 -2.175,-1.102 0,0 0.741,0.413 2.083,1.26 1.344,0.839 3.268,2.158 5.504,4.066 2.218,1.915 4.726,4.512 6.77,8.012 m 35.684,200.794 c 0.403,0.592 0.958,1.251 1.602,2.008 0.625,0.775 1.384,1.598 2.248,2.466 0.833,0.901 1.818,1.787 2.856,2.73 1.047,0.934 2.183,1.882 3.389,2.82 1.225,0.912 2.464,1.901 3.81,2.773 1.317,0.918 2.701,1.772 4.075,2.647 1.41,0.812 2.804,1.654 4.218,2.404 1.396,0.782 2.816,1.465 4.183,2.136 1.359,0.686 2.718,1.255 3.991,1.825 1.285,0.542 2.499,1.056 3.642,1.475 2.267,0.877 4.206,1.505 5.558,1.918 1.359,0.401 2.144,0.612 2.144,0.612 0,0 -2.864,-1.492 -7.16,-3.73 -1.066,-0.564 -2.22,-1.174 -3.441,-1.818 -1.21,-0.662 -2.486,-1.358 -3.805,-2.079 -1.321,-0.716 -2.66,-1.502 -4.028,-2.28 -1.38,-0.76 -2.735,-1.61 -4.107,-2.43 -1.358,-0.839 -2.734,-1.654 -4.038,-2.531 -1.32,-0.854 -2.605,-1.71 -3.841,-2.556 -1.212,-0.873 -2.406,-1.694 -3.502,-2.518 -1.077,-0.847 -2.142,-1.6 -3.053,-2.376 -0.931,-0.757 -1.791,-1.447 -2.511,-2.107 -0.727,-0.651 -1.397,-1.192 -1.889,-1.695 -1.019,-0.973 -1.624,-1.521 -1.624,-1.521 0,0 0.452,0.668 1.283,1.827 m -103.143,-220.776 c 3.447,3.136 7.27,5.727 11.442,8.002 l 3,1.559 c 0.96,0.507 1.944,0.982 2.889,1.518 1.914,1.035 3.819,2.088 5.669,3.226 3.704,2.265 7.269,4.751 10.506,7.556 6.488,5.589 11.638,12.443 14.488,20.246 1.434,3.893 2.378,7.963 2.938,12.088 0.588,4.121 0.861,8.291 0.949,12.428 0.155,8.283 -0.324,16.424 -0.534,24.185 -0.265,7.765 -0.434,15.153 -0.2,21.977 0.101,3.41 0.268,6.677 0.485,9.781 0.221,3.104 0.562,6.037 0.888,8.788 0.682,5.502 1.557,10.253 2.41,14.129 0.815,3.883 1.676,6.884 2.243,8.925 0.6,2.032 0.92,3.115 0.92,3.115 0,0 -0.182,-1.114 -0.525,-3.205 -0.317,-2.093 -0.751,-5.16 -1.189,-9.072 -0.423,-3.912 -0.819,-8.668 -1.058,-14.122 -0.188,-5.459 -0.232,-11.613 0.015,-18.322 0.277,-6.711 0.764,-13.97 1.397,-21.684 0.646,-7.716 1.338,-15.898 1.429,-24.534 0.021,-4.317 -0.091,-8.754 -0.659,-13.263 -0.568,-4.501 -1.569,-9.075 -3.165,-13.534 -1.607,-4.452 -3.84,-8.757 -6.639,-12.661 -2.79,-3.918 -6.168,-7.364 -9.771,-10.435 -3.615,-3.069 -7.505,-5.719 -11.486,-8.101 -1.991,-1.19 -4.012,-2.307 -6.056,-3.35 -2.021,-0.987 -4.035,-1.971 -6.042,-2.95 -7.446,-3.773 -13.969,-9.193 -18.114,-15.888 -4.148,-6.45 -6.105,-13.926 -6.923,-21.175 -0.056,-3.01 0.024,-6.149 0.255,-9.435 0.271,0.705 0.554,1.417 0.862,2.139 0.961,2.201 2.034,4.513 3.369,6.779 1.325,2.271 2.757,4.595 4.432,6.798 1.623,2.245 3.476,4.368 5.39,6.424 0.951,1.036 1.995,1.981 2.984,2.97 1.019,0.958 2.089,1.851 3.124,2.767 1.077,0.864 2.151,1.714 3.231,2.527 1.106,0.774 2.199,1.54 3.274,2.293 1.111,0.695 2.186,1.404 3.27,2.047 1.087,0.634 2.184,1.199 3.231,1.777 2.106,1.134 4.166,2.072 6.085,2.874 1.924,0.794 3.69,1.498 5.306,1.992 1.596,0.538 2.99,0.987 4.168,1.269 2.338,0.609 3.68,0.901 3.68,0.901 0,0 -1.213,-0.674 -3.346,-1.755 -1.08,-0.511 -2.332,-1.258 -3.796,-2.03 -1.472,-0.757 -3.061,-1.744 -4.823,-2.739 -0.888,-0.487 -1.762,-1.082 -2.684,-1.662 -0.915,-0.591 -1.897,-1.136 -2.837,-1.808 -0.95,-0.655 -1.944,-1.297 -2.922,-2.007 -0.96,-0.735 -1.975,-1.432 -2.986,-2.17 -0.979,-0.776 -1.974,-1.565 -2.982,-2.365 -0.971,-0.843 -1.951,-1.695 -2.955,-2.533 -0.958,-0.89 -1.923,-1.787 -2.891,-2.689 -0.924,-0.944 -1.9,-1.845 -2.79,-2.829 -0.902,-0.97 -1.83,-1.92 -2.669,-2.939 l -1.293,-1.496 -1.228,-1.534 c -0.834,-1.007 -1.575,-2.07 -2.365,-3.08 -0.74,-1.044 -1.483,-2.072 -2.159,-3.119 -1.357,-2.091 -2.62,-4.152 -3.736,-6.16 -1.07,-2.028 -2.097,-3.954 -2.924,-5.791 -0.15,-0.325 -0.29,-0.641 -0.432,-0.958 0.238,-1.98 0.535,-4.018 0.879,-6.106 8.244,12.107 20.332,22.916 36.715,33.073 l 4,2.477 c 36.856,22.802 59.102,36.566 55.538,72.204 -0.741,7.41 -2.476,14.979 -4.312,22.992 -4.199,18.323 -8.958,39.09 -4.565,67.648 3.208,20.852 11.988,41.777 24.721,58.919 13.726,18.476 31.435,32.062 51.216,39.289 11.687,4.27 22.732,6.436 32.826,6.436 13.741,0 24.991,-4.167 32.206,-11.364 -0.719,2.543 -1.555,5.15 -2.54,7.82 l -0.401,-0.686 c 0,0 -0.139,0.084 -0.406,0.247 -0.306,0.175 -0.759,0.435 -1.351,0.774 -1.218,0.677 -3.065,1.653 -5.491,2.795 -4.844,2.283 -12.036,5.211 -21.024,7.575 -4.492,1.181 -9.434,2.181 -14.713,2.877 -5.28,0.687 -10.902,1.081 -16.718,0.955 -5.813,-0.122 -11.82,-0.72 -17.834,-1.877 -6.078,-1.166 -11.949,-2.832 -17.706,-5.283 -5.725,-2.426 -11.2,-5.485 -16.257,-9.02 -5.046,-3.551 -9.646,-7.595 -13.761,-11.854 -8.248,-8.532 -14.363,-17.998 -18.717,-26.515 -4.353,-8.544 -6.964,-16.175 -8.471,-21.582 -0.761,-2.705 -1.261,-4.861 -1.578,-6.334 -0.309,-1.476 -0.474,-2.266 -0.474,-2.266 0,0 0.118,0.797 0.34,2.29 0.23,1.493 0.603,3.678 1.206,6.437 1.192,5.513 3.358,13.341 7.261,22.268 3.907,8.896 9.563,18.936 17.584,28.283 4.003,4.665 8.553,9.174 13.646,13.227 5.102,4.037 10.723,7.635 16.694,10.59 5.929,2.958 12.394,5.228 18.685,6.786 6.36,1.569 12.768,2.544 19.007,2.996 6.241,0.458 12.309,0.349 18.03,-0.096 5.723,-0.456 11.104,-1.26 16.01,-2.282 7.845,-1.635 14.461,-3.72 19.6,-5.634 -0.486,0.851 -1.001,1.713 -1.528,2.576 -12.205,6.411 -31.906,12.309 -53.562,12.309 -17.514,0 -33.177,-3.754 -46.555,-11.161 -25.281,-13.994 -44.055,-35.43 -55.799,-63.712 -11.05,-26.611 -13.525,-53.696 -13.654,-71.73 -0.038,-5.227 -0.232,-10.189 -0.555,-14.929 0.378,-3.001 0.812,-6.806 1.114,-11.238 0.182,-2.794 0.351,-5.831 0.337,-9.051 0.019,-3.219 -0.052,-6.625 -0.367,-10.138 -0.284,-3.512 -0.711,-7.146 -1.437,-10.792 -0.683,-3.654 -1.637,-7.324 -2.804,-10.927 -1.164,-3.608 -2.678,-7.1 -4.321,-10.451 -0.431,-0.829 -0.86,-1.655 -1.287,-2.476 -0.441,-0.813 -0.945,-1.588 -1.41,-2.377 -0.908,-1.59 -1.981,-3.051 -2.973,-4.524 -1.048,-1.435 -2.109,-2.827 -3.2,-4.139 -1.156,-1.262 -2.199,-2.569 -3.368,-3.699 -2.253,-2.341 -4.56,-4.37 -6.772,-6.121 -0.905,-0.682 -1.753,-1.354 -2.6,-1.977 -5.555,-9.585 -10.804,-18.662 -14.525,-28.81 1.587,2.004 3.354,3.892 5.271,5.623" /><path
       inkscape:connector-curvature="0"
       id="path244"
       style="fill:#454c53;fill-opacity:1;fill-rule:nonzero;stroke:none"
       d="m 268.59122,726.67356 c -0.587,0.248 -1.291,0.564 -1.989,0.811 -2.801,1.109 -7.268,2.692 -12.999,4.028 -1.43,0.376 -2.968,0.601 -4.566,0.937 -1.61,0.237 -3.292,0.552 -5.061,0.722 -3.531,0.445 -7.384,0.613 -11.495,0.552 -8.215,-0.138 -17.535,-1.515 -27.144,-4.927 -9.589,-3.399 -19.48,-8.771 -28.487,-16.362 -4.477,-3.775 -8.851,-8.129 -12.699,-12.84 l -1.513,-1.901 c -0.518,-0.641 -0.91,-1.229 -1.375,-1.847 -0.912,-1.191 -1.764,-2.536 -2.649,-3.828 -1.68,-2.658 -3.279,-5.411 -4.708,-8.29 -5.741,-11.509 -9.035,-24.758 -9.915,-38.445 -0.894,-13.698 0.511,-27.817 3.74,-41.508 0.389,-1.718 0.846,-3.413 1.289,-5.123 l 1.383,-5.23 c 0.892,-3.507 1.707,-7.038 2.408,-10.588 1.404,-7.098 2.384,-14.279 2.687,-21.472 0.294,-7.184 -0.087,-14.411 -1.652,-21.39 -1.558,-6.955 -4.433,-13.693 -8.923,-19.147 -1.12,-1.358 -2.332,-2.63 -3.615,-3.808 -0.642,-0.602 -1.296,-1.136 -1.99,-1.709 l -1.957,-1.523 c -2.675,-2.035 -5.375,-3.927 -8.095,-5.724 -5.438,-3.6 -10.942,-6.783 -16.322,-9.803 -10.776,-6.009 -21.092,-11.363 -30.178,-17.031 -4.545,-2.826 -8.794,-5.701 -12.662,-8.667 -3.886,-2.955 -7.313,-6.032 -10.487,-9.043 -3.208,-2.96 -6.134,-5.789 -8.59,-8.641 -2.468,-2.838 -4.474,-5.664 -6.083,-8.339 -3.192,-5.377 -4.869,-10.051 -5.834,-13.253 -0.541,-1.59 -0.789,-2.857 -1.029,-3.689 -0.219,-0.841 -0.331,-1.273 -0.331,-1.273 0,0 0.104,0.435 0.306,1.279 0.223,0.838 0.445,2.11 0.954,3.712 0.903,3.227 2.487,7.945 5.592,13.424 1.566,2.725 3.531,5.619 5.965,8.531 2.417,2.926 5.316,5.842 8.462,8.864 1.568,1.513 3.169,3.104 4.889,4.681 1.713,1.581 3.539,3.134 5.45,4.683 3.827,3.094 8.039,6.104 12.543,9.069 9.004,5.941 19.228,11.586 29.795,17.84 5.274,3.142 10.644,6.435 15.894,10.109 2.625,1.834 5.229,3.763 7.753,5.786 l 1.918,1.571 c 0.568,0.5 1.189,1.03 1.747,1.583 1.139,1.103 2.209,2.284 3.194,3.542 3.944,5.051 6.433,11.269 7.726,17.808 1.296,6.557 1.495,13.432 1.035,20.313 -0.467,6.89 -1.589,13.81 -3.129,20.668 -0.769,3.431 -1.65,6.847 -2.609,10.252 l -1.494,5.114 c -0.5,1.744 -1.021,3.495 -1.471,5.259 -3.711,14.088 -5.579,28.743 -5.016,43.226 0.55,14.459 3.664,28.766 9.593,41.482 1.475,3.177 3.141,6.235 4.911,9.198 0.938,1.456 1.807,2.908 2.839,4.343 0.497,0.701 1.005,1.473 1.493,2.109 l 1.463,1.94 c 4.193,5.41 8.714,10.124 13.532,14.412 9.623,8.535 20.355,14.745 30.9,18.784 10.564,4.056 20.949,5.873 30.159,6.26 4.608,0.19 8.944,0.103 12.921,-0.292 1.995,-0.143 3.89,-0.442 5.708,-0.668 1.801,-0.324 3.539,-0.546 5.154,-0.921 6.117,-1.269 10.785,-2.743 14.206,-3.974 -0.025,0.135 -0.05,0.269 -0.076,0.404 -3.112,13.724 -16.438,22.106 -35.661,22.106 -9.554,0 -20.066,-2.071 -31.245,-6.155 -37.021,-13.527 -66.344,-51.536 -72.966,-94.581 -4.259,-27.687 0.396,-47.998 4.503,-65.918 1.87,-8.159 3.636,-15.865 4.405,-23.563 3.851,-38.501 -20.635,-53.651 -57.698,-76.58 l -3.997,-2.474 c -41.57,-25.775 -47.64,-52.739 -48.284,-73.35 -0.392,-12.563 2.885,-20.941 6.05,-26.048 0.343,0.333 0.694,0.664 1.051,0.991 -0.13,31.348 26.506,60.472 88.106,96.678 0.022,0.278 0.033,0.425 0.033,0.425 l 0.577,-0.07 c 3.88,2.273 7.881,4.573 12.038,6.906 0.661,0.371 1.309,0.746 1.951,1.123 0.02,0.35 0.03,0.545 0.03,0.545 l 0.72,-0.099 c 22.242,13.261 33.942,30.394 35.725,52.3 1.632,20.059 -5.163,41.454 -11.158,60.33 -4.667,14.697 -9.075,28.578 -8.851,39.795 0.373,18.686 6.788,34.431 18.551,45.533 10.235,9.662 24.18,15.444 39.267,16.283 2.935,0.163 5.762,0.31 8.48,0.453 24.218,1.27 40.216,2.11 46.156,9.055 0.908,1.062 1.598,2.292 2.084,3.706 -0.373,0.16 -0.812,0.346 -1.333,0.569" /><path
       inkscape:connector-curvature="0"
       id="path248"
       style="fill:#454c53;fill-opacity:1;fill-rule:nonzero;stroke:none"
       d="m 339.72013,728.94796 c -1.414,1.715 -2.902,3.393 -4.374,5.101 -1.576,1.604 -3.091,3.294 -4.731,4.851 -1.666,1.532 -3.266,3.147 -5.026,4.563 -0.863,0.728 -1.723,1.457 -2.583,2.183 -0.893,0.682 -1.786,1.363 -2.675,2.039 -1.748,1.399 -3.628,2.58 -5.423,3.846 -0.911,0.61 -1.852,1.163 -2.77,1.741 -0.921,0.572 -1.827,1.155 -2.77,1.657 -3.691,2.155 -7.431,3.933 -11.022,5.528 -3.625,1.507 -7.106,2.837 -10.399,3.831 -6.568,2.045 -12.239,3.113 -16.228,3.634 -2.48,0.334 -4.309,0.465 -5.34,0.518 2.809,-6.56 4.66,-12.758 6.034,-18.512 0.083,-0.015 0.147,-0.028 0.238,-0.044 1.073,-0.214 2.617,-0.545 4.557,-1.021 3.882,-0.945 9.356,-2.463 15.75,-4.744 3.202,-1.125 6.624,-2.464 10.197,-3.983 3.568,-1.528 7.28,-3.255 11.042,-5.191 1.884,-0.953 3.759,-2.012 5.669,-3.049 1.868,-1.12 3.805,-2.163 5.666,-3.376 1.882,-1.173 3.767,-2.37 5.605,-3.66 1.87,-1.235 3.673,-2.587 5.479,-3.927 1.828,-1.311 3.532,-2.789 5.292,-4.168 1.715,-1.441 3.383,-2.923 5.039,-4.384 1.589,-1.539 3.211,-3.014 4.724,-4.562 1.279,-1.368 2.58,-2.678 3.801,-4.034 -0.626,1.328 -1.241,2.705 -1.996,4.042 -0.926,1.703 -1.878,3.453 -2.85,5.241 -1.065,1.734 -2.155,3.507 -3.261,5.309 -1.149,1.775 -2.409,3.517 -3.635,5.32 -1.268,1.772 -2.663,3.479 -4.01,5.251" /><path
       inkscape:connector-curvature="0"
       id="path252"
       style="fill:#454c53;fill-opacity:1;fill-rule:nonzero;stroke:none"
       d="m 361.50043,689.39426 c -0.478,1.276 -0.902,2.655 -1.501,4.076 -0.433,1.042 -0.887,2.135 -1.353,3.253 -0.084,0.097 -0.169,0.191 -0.253,0.288 -1.303,1.495 -2.776,2.897 -4.191,4.388 -1.43,1.48 -3.015,2.855 -4.542,4.316 -1.562,1.427 -3.23,2.776 -4.859,4.186 -1.697,1.333 -3.401,2.681 -5.146,3.988 -1.792,1.244 -3.522,2.584 -5.373,3.758 -1.828,1.2 -3.647,2.411 -5.531,3.506 -1.85,1.148 -3.744,2.204 -5.631,3.236 -1.862,1.07 -3.801,1.974 -5.663,2.952 -1.904,0.899 -3.77,1.818 -5.646,2.634 -3.737,1.663 -7.41,3.124 -10.93,4.4 -3.524,1.267 -6.886,2.368 -10.021,3.272 -6.259,1.841 -11.565,2.989 -15.271,3.672 -0.492,0.092 -0.952,0.174 -1.388,0.249 0.263,-1.353 0.511,-2.677 0.753,-3.963 0.507,-2.704 0.989,-5.268 1.52,-7.701 l 0.055,0.298 c 0,0 0.992,-0.263 2.731,-0.722 1.725,-0.465 4.164,-1.166 7.081,-2.039 1.452,-0.452 3.024,-0.942 4.688,-1.461 1.655,-0.552 3.408,-1.091 5.199,-1.727 1.795,-0.619 3.649,-1.255 5.517,-1.959 1.875,-0.672 3.764,-1.406 5.645,-2.158 1.889,-0.72 3.745,-1.544 5.58,-2.316 1.836,-0.763 3.598,-1.645 5.323,-2.424 1.714,-0.809 3.333,-1.686 4.881,-2.464 1.534,-0.817 2.944,-1.671 4.26,-2.413 1.311,-0.754 2.444,-1.574 3.477,-2.23 1.043,-0.646 1.887,-1.312 2.578,-1.858 1.389,-1.074 2.181,-1.689 2.181,-1.689 0,0 -0.862,0.509 -2.373,1.402 -0.748,0.45 -1.653,0.997 -2.764,1.504 -1.102,0.518 -2.3,1.177 -3.679,1.754 -1.386,0.564 -2.86,1.221 -4.458,1.829 -1.614,0.571 -3.289,1.224 -5.06,1.801 -1.786,0.549 -3.596,1.188 -5.484,1.705 -1.887,0.528 -3.783,1.099 -5.717,1.568 -1.923,0.501 -3.848,0.981 -5.758,1.405 -1.899,0.455 -3.784,0.847 -5.605,1.228 -1.816,0.397 -3.592,0.706 -5.262,1.04 -1.679,0.298 -3.265,0.581 -4.73,0.842 -2.404,0.4 -4.472,0.726 -6.083,0.962 0.77,-2.181 1.685,-4.221 2.824,-6.121 l 2.148,-2.508 c 4.701,-5.485 15.051,-8.773 27.035,-12.579 9.855,-3.13 21.024,-6.678 31.425,-12.227 6.757,-3.603 15.505,-9.925 23.995,-18.523 -0.533,3.621 -1.327,8.169 -2.491,13.337 -0.546,1.848 -1.291,3.887 -2.133,6.233" /><path
       inkscape:connector-curvature="0"
       id="path256"
       style="fill:#454c53;fill-opacity:1;fill-rule:nonzero;stroke:none"
       d="m 261.45642,778.42456 c 1.91,-3.394 3.516,-6.704 4.9,-9.933 1.031,0.006 2.878,-0.026 5.401,-0.225 4.027,-0.305 9.782,-1.064 16.531,-2.767 3.383,-0.822 6.978,-1.974 10.748,-3.305 3.734,-1.418 7.647,-3.024 11.541,-5.02 0.991,-0.462 1.951,-1.006 2.927,-1.539 0.97,-0.541 1.969,-1.056 2.937,-1.63 1.91,-1.194 3.911,-2.31 5.787,-3.645 0.955,-0.65 1.912,-1.3 2.871,-1.953 0.926,-0.699 1.856,-1.401 2.787,-2.104 1.899,-1.366 3.64,-2.937 5.452,-4.432 1.788,-1.521 3.451,-3.179 5.181,-4.761 1.622,-1.684 3.263,-3.344 4.831,-5.048 0.862,-1.013 1.735,-2.009 2.596,-3.007 -18.863,31.922 -47.227,48.515 -84.49,49.369" /><path
       inkscape:connector-curvature="0"
       id="path260"
       style="fill:#454c53;fill-opacity:1;fill-rule:nonzero;stroke:none"
       d="m 406.00533,437.65497 c -1.444,-0.074 -3.061,-0.13 -4.859,-0.137 -4.105,-0.008 -9.126,0.089 -14.854,0.997 -5.698,0.914 -12.24,2.47 -18.684,6.144 -3.208,1.826 -6.364,4.19 -9.134,7.174 -2.788,2.966 -5.085,6.593 -6.794,10.545 -3.441,7.949 -4.494,17.033 -4.153,26.05 0.341,9.052 1.762,18.214 3.821,27.292 2.062,9.083 4.619,18.131 7.27,27.1 2.708,8.95 5.582,17.805 8.158,26.54 2.532,8.739 5.016,17.314 6.545,25.666 1.565,8.306 1.907,16.36 0.79,23.939 -0.548,3.783 -1.423,7.423 -2.544,10.869 -1.082,3.458 -2.41,6.726 -3.888,9.776 -1.48,3.05 -3.115,5.878 -4.805,8.49 -1.67,2.625 -3.408,5.03 -5.137,7.221 -3.495,4.355 -6.902,7.89 -9.869,10.641 -2.973,2.741 -5.463,4.758 -7.202,6.067 -1.737,1.323 -2.693,2.001 -2.693,2.001 0,0 0.257,-0.137 0.759,-0.401 0.498,-0.27 1.25,-0.64 2.193,-1.201 1.905,-1.093 4.687,-2.736 7.992,-5.199 3.315,-2.441 7.204,-5.642 11.198,-9.831 1.994,-2.095 4.025,-4.421 6.023,-7.002 1.979,-2.594 3.907,-5.45 5.713,-8.568 1.802,-3.119 3.476,-6.506 4.913,-10.149 1.401,-3.653 2.561,-7.559 3.378,-11.667 0.817,-4.105 1.289,-8.411 1.34,-12.829 0.032,-1.104 -0.002,-2.215 -0.063,-3.329 l -0.082,-1.697 -0.129,-1.625 c -0.201,-2.264 -0.474,-4.457 -0.814,-6.689 -1.382,-8.881 -3.565,-17.782 -6.124,-26.657 -2.54,-8.881 -5.285,-17.796 -7.949,-26.687 -2.72,-8.873 -5.319,-17.744 -7.406,-26.532 -2.068,-8.782 -3.813,-17.469 -4.338,-25.879 -0.503,-8.374 0,-16.52 2.631,-23.464 2.565,-6.957 7.278,-12.442 12.796,-16.061 5.523,-3.634 11.505,-5.702 16.888,-7.057 5.415,-1.318 10.296,-1.991 14.327,-2.406 2.643,-0.254 4.921,-0.427 6.796,-0.54 0.009,0.005 0.021,0.01 0.029,0.015 -15.586,2.89 -26.8,9.74 -33.388,20.416 -16.074,26.045 -2.526,70.361 11.074,106.059 10.32,27.089 8.448,54.291 -5.416,78.664 -11.48,20.181 -28.913,34.467 -40.353,40.569 -10.03,5.35 -20.986,8.83 -30.651,11.9 -9.612,3.053 -18.226,5.789 -24.248,9.769 2.111,-7.836 9.444,-22.758 34.83,-36.818 23.381,-12.948 36.133,-32.141 37.906,-57.045 1.368,-19.207 -3.669,-42.186 -15.396,-70.246 -11.251,-26.919 -16.81,-47.489 -16.995,-62.886 -0.155,-12.917 5.058,-27.394 12.68,-35.205 9.012,-9.237 20.552,-13.92 34.302,-13.92 13.217,0 25.747,4.363 33.616,7.823" /><path
       inkscape:connector-curvature="0"
       id="path272"
       style="fill:#454c53;fill-opacity:1;fill-rule:nonzero;stroke:none"
       d="m 156.60882,503.85807 -9.673,-6.218 c -0.001,-0.009 -0.04,-0.203 -0.112,-0.563 -0.031,-0.166 -0.07,-0.37 -0.116,-0.611 -0.04,-0.269 -0.086,-0.58 -0.139,-0.927 -0.107,-0.695 -0.187,-1.569 -0.288,-2.565 -0.055,-1.005 -0.169,-2.141 -0.164,-3.393 -0.049,-1.251 -0.002,-2.607 0.058,-4.049 0.053,-1.442 0.236,-2.953 0.398,-4.528 0.281,-1.546 0.43,-3.197 0.864,-4.802 0.19,-0.815 0.381,-1.634 0.573,-2.458 0.23,-0.812 0.505,-1.615 0.757,-2.429 0.458,-1.649 1.146,-3.207 1.79,-4.768 l 0.482,-1.168 c 0.172,-0.381 0.381,-0.742 0.568,-1.111 0.385,-0.735 0.765,-1.463 1.14,-2.179 0.188,-0.358 0.374,-0.714 0.559,-1.068 0.215,-0.334 0.428,-0.663 0.641,-0.989 0.428,-0.655 0.845,-1.297 1.252,-1.919 0.772,-1.289 1.685,-2.367 2.51,-3.383 0.842,-0.999 1.534,-2.007 2.301,-2.748 0.754,-0.761 1.411,-1.423 1.953,-1.97 1.09,-1.097 1.712,-1.725 1.712,-1.725 0,0 -0.704,0.532 -1.938,1.463 -0.621,0.469 -1.374,1.039 -2.238,1.691 -0.883,0.64 -1.712,1.54 -2.714,2.433 -0.985,0.911 -2.079,1.883 -3.054,3.082 -0.511,0.581 -1.036,1.178 -1.572,1.789 -0.269,0.306 -0.539,0.619 -0.813,0.933 -0.243,0.336 -0.488,0.676 -0.736,1.019 -0.497,0.688 -1.002,1.39 -1.514,2.098 -0.252,0.36 -0.525,0.71 -0.763,1.084 l -0.681,1.148 c -0.913,1.539 -1.881,3.099 -2.621,4.773 -0.393,0.827 -0.809,1.648 -1.181,2.484 -0.333,0.851 -0.664,1.701 -0.993,2.543 -0.715,1.675 -1.137,3.409 -1.681,5.059 -0.424,1.677 -0.859,3.306 -1.145,4.874 -0.295,1.568 -0.559,3.059 -0.706,4.453 -0.174,1.2 -0.244,2.305 -0.323,3.327 l -6.785,-4.363 c -0.072,-0.733 -0.151,-1.827 -0.169,-3.241 -0.026,-2.89 0.211,-7.118 1.387,-12.058 1.16,-4.931 3.298,-10.571 6.76,-16.004 0.855,-1.367 1.79,-2.697 2.828,-4.054 1.003,-1.316 2.096,-2.652 3.224,-3.948 2.266,-2.606 4.739,-5.128 7.32,-7.564 5.161,-4.877 10.753,-9.386 15.867,-13.83 5.11,-4.431 9.752,-8.889 12.831,-13.448 1.545,-2.267 2.679,-4.536 3.404,-6.639 0.733,-2.1 1.062,-4.022 1.183,-5.598 0.118,-1.582 0.062,-2.825 -0.008,-3.664 -0.087,-0.84 -0.133,-1.288 -0.133,-1.288 0,0 0.016,0.449 0.049,1.29 0.015,0.84 -0.012,2.078 -0.231,3.624 -0.221,1.545 -0.667,3.4 -1.511,5.386 -0.837,1.991 -2.074,4.105 -3.708,6.194 -3.26,4.205 -8.047,8.241 -13.386,12.288 -5.34,4.059 -11.242,8.206 -16.858,12.852 -2.808,2.32 -5.543,4.763 -8.1,7.339 -1.282,1.293 -2.504,2.599 -3.696,3.967 -1.153,1.329 -2.309,2.718 -3.357,4.132 -4.251,5.637 -7.142,11.723 -8.881,17.16 -1.519,4.702 -2.215,8.906 -2.529,12.145 l -6.299,-4.049 c -3.658,-28.248 20.875,-48.821 40.633,-65.39 10.535,-8.833 18.855,-15.811 20.864,-22.409 3.283,-10.791 -0.015,-21.149 -3.487,-28.092 11.256,8.152 18.173,18.9 20.171,31.501 2.849,17.949 -4.728,38.72 -19.773,54.207 -18.142,18.675 -20.069,44.325 -20.003,54.872" /><path
       inkscape:connector-curvature="0"
       id="path288"
       style="fill:#454c53;fill-opacity:1;fill-rule:nonzero;stroke:none"
       d="m 229.35493,492.62867 c 16.051,0 28.502,10.907 35.396,18.11 -10.804,0.205 -17.646,7.614 -26.445,11.009 -3.358,1.297 -8.951,-2.16 -8.951,-2.16 0,0 -5.595,3.457 -8.953,2.16 -8.798,-3.395 -15.64,-10.804 -26.445,-11.009 6.894,-7.203 19.345,-18.11 35.398,-18.11" /><path
       inkscape:connector-curvature="0"
       id="path292"
       style="fill:#454c53;fill-opacity:1;fill-rule:nonzero;stroke:none"
       d="m 208.40223,545.55347 c 0.25,-0.193 0.646,-0.453 1.202,-0.669 1.101,-0.46 2.781,-0.736 4.663,-1.044 0.936,-0.147 1.939,-0.353 2.825,-0.675 0.439,-0.16 0.837,-0.368 1.127,-0.609 0.062,-0.066 0.143,-0.12 0.192,-0.19 l 0.042,-0.048 0.021,-0.024 0.088,-0.085 0.153,-0.162 c 0.063,-0.085 0.329,-0.289 0.499,-0.422 0.18,-0.133 0.33,-0.218 0.501,-0.327 1.306,-0.748 2.616,-1.102 3.958,-1.391 1.339,-0.27 2.699,-0.404 4.065,-0.443 1.367,-0.029 2.735,0.047 4.095,0.264 1.361,0.248 2.708,0.554 4.055,1.372 0.332,0.214 0.668,0.468 0.982,0.816 l 0.294,0.329 0.203,0.21 c 0.311,0.292 0.68,0.525 1.086,0.705 0.806,0.39 1.78,0.557 2.71,0.664 0.935,0.119 1.84,0.208 2.648,0.337 0.806,0.131 1.511,0.337 2.061,0.562 0.55,0.233 0.94,0.494 1.184,0.686 0.242,0.198 0.356,0.314 0.356,0.314 0,0 -0.153,-0.066 -0.438,-0.162 -0.281,-0.104 -0.713,-0.201 -1.252,-0.258 -0.542,-0.062 -1.201,-0.041 -1.964,0.023 -0.763,0.054 -1.633,0.192 -2.63,0.275 -0.995,0.063 -2.147,0.118 -3.446,-0.214 -0.64,-0.18 -1.3,-0.469 -1.907,-0.895 -0.153,-0.114 -0.345,-0.258 -0.463,-0.36 -0.115,-0.095 -0.218,-0.194 -0.343,-0.287 -0.108,-0.07 -0.274,-0.156 -0.471,-0.23 -0.794,-0.324 -1.942,-0.517 -3.086,-0.613 -1.159,-0.103 -2.374,-0.123 -3.586,-0.09 -1.212,0.034 -2.424,0.128 -3.59,0.283 -1.148,0.162 -2.3,0.383 -3.159,0.732 l -0.28,0.125 c -0.068,0.045 -0.069,-0.016 -0.22,0.107 l -0.179,0.132 c -0.018,0.015 0.111,-0.106 0.049,-0.049 l -0.014,0.013 -0.031,0.026 -0.061,0.049 -0.121,0.1 c -0.16,0.139 -0.334,0.236 -0.5,0.35 -0.683,0.4 -1.361,0.607 -1.988,0.739 -1.259,0.252 -2.361,0.192 -3.351,0.172 -0.991,-0.03 -1.872,-0.135 -2.646,-0.168 -0.771,-0.032 -1.443,-0.073 -1.987,-0.024 -1.097,0.054 -1.694,0.378 -1.694,0.378 0,0 0.1,-0.129 0.348,-0.324" /></g></svg>